<svg class="rich-terminal" viewBox="0 0 2214 1318.8" xmlns="http://www.w3.org/2000/svg">
    <!-- Generated with Rich https://www.textualize.io -->
    <style>

    @font-face {
        font-family: "Fira Code";
        src: local("FiraCode-Regular"),
                url("https://cdnjs.cloudflare.com/ajax/libs/firacode/6.2.0/woff2/FiraCode-Regular.woff2") format("woff2"),
                url("https://cdnjs.cloudflare.com/ajax/libs/firacode/6.2.0/woff/FiraCode-Regular.woff") format("woff");
        font-style: normal;
        font-weight: 400;
    }
    @font-face {
        font-family: "Fira Code";
        src: local("FiraCode-Bold"),
                url("https://cdnjs.cloudflare.com/ajax/libs/firacode/6.2.0/woff2/FiraCode-Bold.woff2") format("woff2"),
                url("https://cdnjs.cloudflare.com/ajax/libs/firacode/6.2.0/woff/FiraCode-Bold.woff") format("woff");
        font-style: bold;
        font-weight: 700;
    }

    .terminal-2112581389-matrix {
        font-family: Fira Code, monospace;
        font-size: 20px;
        line-height: 24.4px;
        font-variant-east-asian: full-width;
    }

    .terminal-2112581389-title {
        font-size: 18px;
        font-weight: bold;
        font-family: arial;
    }

    .terminal-2112581389-r1 { fill: #c5c8c6 }
.terminal-2112581389-r2 { fill: #595959 }
.terminal-2112581389-r3 { fill: #363636;font-weight: bold }
.terminal-2112581389-r4 { fill: #e0e0e0 }
.terminal-2112581389-r5 { fill: #c9c9c9 }
.terminal-2112581389-r6 { fill: #363636 }
.terminal-2112581389-r7 { fill: #1e1e1e }
.terminal-2112581389-r8 { fill: #656565 }
.terminal-2112581389-r9 { fill: #121212 }
.terminal-2112581389-r10 { fill: #797979 }
.terminal-2112581389-r11 { fill: #a5a5a5 }
.terminal-2112581389-r12 { fill: #a5a5a5;font-weight: bold }
.terminal-2112581389-r13 { fill: #838383 }
.terminal-2112581389-r14 { fill: #2d2d2d }
.terminal-2112581389-r15 { fill: #e9e9e9;font-weight: bold }
.terminal-2112581389-r16 { fill: #e0e0e0;font-weight: bold }
.terminal-2112581389-r17 { fill: #1c1c1c }
.terminal-2112581389-r18 { fill: #0d0d0d }
    </style>

    <defs>
    <clipPath id="terminal-2112581389-clip-terminal">
      <rect x="0" y="0" width="2195.0" height="1267.8" />
    </clipPath>
    <clipPath id="terminal-2112581389-line-0">
    <rect x="0" y="1.5" width="2196" height="24.65"/>
            </clipPath>
<clipPath id="terminal-2112581389-line-1">
    <rect x="0" y="25.9" width="2196" height="24.65"/>
            </clipPath>
<clipPath id="terminal-2112581389-line-2">
    <rect x="0" y="50.3" width="2196" height="24.65"/>
            </clipPath>
<clipPath id="terminal-2112581389-line-3">
    <rect x="0" y="74.7" width="2196" height="24.65"/>
            </clipPath>
<clipPath id="terminal-2112581389-line-4">
    <rect x="0" y="99.1" width="2196" height="24.65"/>
            </clipPath>
<clipPath id="terminal-2112581389-line-5">
    <rect x="0" y="123.5" width="2196" height="24.65"/>
            </clipPath>
<clipPath id="terminal-2112581389-line-6">
    <rect x="0" y="147.9" width="2196" height="24.65"/>
            </clipPath>
<clipPath id="terminal-2112581389-line-7">
    <rect x="0" y="172.3" width="2196" height="24.65"/>
            </clipPath>
<clipPath id="terminal-2112581389-line-8">
    <rect x="0" y="196.7" width="2196" height="24.65"/>
            </clipPath>
<clipPath id="terminal-2112581389-line-9">
    <rect x="0" y="221.1" width="2196" height="24.65"/>
            </clipPath>
<clipPath id="terminal-2112581389-line-10">
    <rect x="0" y="245.5" width="2196" height="24.65"/>
            </clipPath>
<clipPath id="terminal-2112581389-line-11">
    <rect x="0" y="269.9" width="2196" height="24.65"/>
            </clipPath>
<clipPath id="terminal-2112581389-line-12">
    <rect x="0" y="294.3" width="2196" height="24.65"/>
            </clipPath>
<clipPath id="terminal-2112581389-line-13">
    <rect x="0" y="318.7" width="2196" height="24.65"/>
            </clipPath>
<clipPath id="terminal-2112581389-line-14">
    <rect x="0" y="343.1" width="2196" height="24.65"/>
            </clipPath>
<clipPath id="terminal-2112581389-line-15">
    <rect x="0" y="367.5" width="2196" height="24.65"/>
            </clipPath>
<clipPath id="terminal-2112581389-line-16">
    <rect x="0" y="391.9" width="2196" height="24.65"/>
            </clipPath>
<clipPath id="terminal-2112581389-line-17">
    <rect x="0" y="416.3" width="2196" height="24.65"/>
            </clipPath>
<clipPath id="terminal-2112581389-line-18">
    <rect x="0" y="440.7" width="2196" height="24.65"/>
            </clipPath>
<clipPath id="terminal-2112581389-line-19">
    <rect x="0" y="465.1" width="2196" height="24.65"/>
            </clipPath>
<clipPath id="terminal-2112581389-line-20">
    <rect x="0" y="489.5" width="2196" height="24.65"/>
            </clipPath>
<clipPath id="terminal-2112581389-line-21">
    <rect x="0" y="513.9" width="2196" height="24.65"/>
            </clipPath>
<clipPath id="terminal-2112581389-line-22">
    <rect x="0" y="538.3" width="2196" height="24.65"/>
            </clipPath>
<clipPath id="terminal-2112581389-line-23">
    <rect x="0" y="562.7" width="2196" height="24.65"/>
            </clipPath>
<clipPath id="terminal-2112581389-line-24">
    <rect x="0" y="587.1" width="2196" height="24.65"/>
            </clipPath>
<clipPath id="terminal-2112581389-line-25">
    <rect x="0" y="611.5" width="2196" height="24.65"/>
            </clipPath>
<clipPath id="terminal-2112581389-line-26">
    <rect x="0" y="635.9" width="2196" height="24.65"/>
            </clipPath>
<clipPath id="terminal-2112581389-line-27">
    <rect x="0" y="660.3" width="2196" height="24.65"/>
            </clipPath>
<clipPath id="terminal-2112581389-line-28">
    <rect x="0" y="684.7" width="2196" height="24.65"/>
            </clipPath>
<clipPath id="terminal-2112581389-line-29">
    <rect x="0" y="709.1" width="2196" height="24.65"/>
            </clipPath>
<clipPath id="terminal-2112581389-line-30">
    <rect x="0" y="733.5" width="2196" height="24.65"/>
            </clipPath>
<clipPath id="terminal-2112581389-line-31">
    <rect x="0" y="757.9" width="2196" height="24.65"/>
            </clipPath>
<clipPath id="terminal-2112581389-line-32">
    <rect x="0" y="782.3" width="2196" height="24.65"/>
            </clipPath>
<clipPath id="terminal-2112581389-line-33">
    <rect x="0" y="806.7" width="2196" height="24.65"/>
            </clipPath>
<clipPath id="terminal-2112581389-line-34">
    <rect x="0" y="831.1" width="2196" height="24.65"/>
            </clipPath>
<clipPath id="terminal-2112581389-line-35">
    <rect x="0" y="855.5" width="2196" height="24.65"/>
            </clipPath>
<clipPath id="terminal-2112581389-line-36">
    <rect x="0" y="879.9" width="2196" height="24.65"/>
            </clipPath>
<clipPath id="terminal-2112581389-line-37">
    <rect x="0" y="904.3" width="2196" height="24.65"/>
            </clipPath>
<clipPath id="terminal-2112581389-line-38">
    <rect x="0" y="928.7" width="2196" height="24.65"/>
            </clipPath>
<clipPath id="terminal-2112581389-line-39">
    <rect x="0" y="953.1" width="2196" height="24.65"/>
            </clipPath>
<clipPath id="terminal-2112581389-line-40">
    <rect x="0" y="977.5" width="2196" height="24.65"/>
            </clipPath>
<clipPath id="terminal-2112581389-line-41">
    <rect x="0" y="1001.9" width="2196" height="24.65"/>
            </clipPath>
<clipPath id="terminal-2112581389-line-42">
    <rect x="0" y="1026.3" width="2196" height="24.65"/>
            </clipPath>
<clipPath id="terminal-2112581389-line-43">
    <rect x="0" y="1050.7" width="2196" height="24.65"/>
            </clipPath>
<clipPath id="terminal-2112581389-line-44">
    <rect x="0" y="1075.1" width="2196" height="24.65"/>
            </clipPath>
<clipPath id="terminal-2112581389-line-45">
    <rect x="0" y="1099.5" width="2196" height="24.65"/>
            </clipPath>
<clipPath id="terminal-2112581389-line-46">
    <rect x="0" y="1123.9" width="2196" height="24.65"/>
            </clipPath>
<clipPath id="terminal-2112581389-line-47">
    <rect x="0" y="1148.3" width="2196" height="24.65"/>
            </clipPath>
<clipPath id="terminal-2112581389-line-48">
    <rect x="0" y="1172.7" width="2196" height="24.65"/>
            </clipPath>
<clipPath id="terminal-2112581389-line-49">
    <rect x="0" y="1197.1" width="2196" height="24.65"/>
            </clipPath>
<clipPath id="terminal-2112581389-line-50">
    <rect x="0" y="1221.5" width="2196" height="24.65"/>
            </clipPath>
    </defs>

    <rect fill="#292929" stroke="rgba(255,255,255,0.35)" stroke-width="1" x="1" y="1" width="2212" height="1316.8" rx="8"/><text class="terminal-2112581389-title" fill="#c5c8c6" text-anchor="middle" x="1106" y="27">Dispatch</text>
            <g transform="translate(26,22)">
            <circle cx="0" cy="0" r="7" fill="#ff5f57"/>
            <circle cx="22" cy="0" r="7" fill="#febc2e"/>
            <circle cx="44" cy="0" r="7" fill="#28c840"/>
            </g>
        
    <g transform="translate(9, 41)" clip-path="url(#terminal-2112581389-clip-terminal)">
    <rect fill="#1e1e1e" x="0" y="1.5" width="2196" height="24.65" shape-rendering="crispEdges"/><rect fill="#1e1e1e" x="0" y="25.9" width="2196" height="24.65" shape-rendering="crispEdges"/><rect fill="#1e1e1e" x="0" y="50.3" width="2196" height="24.65" shape-rendering="crispEdges"/><rect fill="#1e1e1e" x="0" y="74.7" width="2196" height="24.65" shape-rendering="crispEdges"/><rect fill="#1e1e1e" x="0" y="99.1" width="2196" height="24.65" shape-rendering="crispEdges"/><rect fill="#1e1e1e" x="0" y="123.5" width="2196" height="24.65" shape-rendering="crispEdges"/><rect fill="#1e1e1e" x="0" y="147.9" width="2196" height="24.65" shape-rendering="crispEdges"/><rect fill="#1e1e1e" x="0" y="172.3" width="2196" height="24.65" shape-rendering="crispEdges"/><rect fill="#1e1e1e" x="0" y="196.7" width="2196" height="24.65" shape-rendering="crispEdges"/><rect fill="#1e1e1e" x="0" y="221.1" width="2196" height="24.65" shape-rendering="crispEdges"/><rect fill="#1e1e1e" x="0" y="245.5" width="2196" height="24.65" shape-rendering="crispEdges"/><rect fill="#1e1e1e" x="0" y="269.9" width="2196" height="24.65" shape-rendering="crispEdges"/><rect fill="#1e1e1e" x="0" y="294.3" width="2196" height="24.65" shape-rendering="crispEdges"/><rect fill="#1e1e1e" x="0" y="318.7" width="2196" height="24.65" shape-rendering="crispEdges"/><rect fill="#1e1e1e" x="0" y="343.1" width="2196" height="24.65" shape-rendering="crispEdges"/><rect fill="#1e1e1e" x="0" y="367.5" width="707.6" height="24.65" shape-rendering="crispEdges"/><rect fill="#1e1e1e" x="707.6" y="367.5" width="12.2" height="24.65" shape-rendering="crispEdges"/><rect fill="#1e1e1e" x="719.8" y="367.5" width="756.4" height="24.65" shape-rendering="crispEdges"/><rect fill="#1e1e1e" x="1476.2" y="367.5" width="12.2" height="24.65" shape-rendering="crispEdges"/><rect fill="#1e1e1e" x="1488.4" y="367.5" width="707.6" height="24.65" shape-rendering="crispEdges"/><rect fill="#1e1e1e" x="0" y="391.9" width="707.6" height="24.65" shape-rendering="crispEdges"/><rect fill="#1e1e1e" x="707.6" y="391.9" width="12.2" height="24.65" shape-rendering="crispEdges"/><rect fill="#1e1e1e" x="719.8" y="391.9" width="756.4" height="24.65" shape-rendering="crispEdges"/><rect fill="#1e1e1e" x="1476.2" y="391.9" width="12.2" height="24.65" shape-rendering="crispEdges"/><rect fill="#1e1e1e" x="1488.4" y="391.9" width="707.6" height="24.65" shape-rendering="crispEdges"/><rect fill="#1e1e1e" x="0" y="416.3" width="707.6" height="24.65" shape-rendering="crispEdges"/><rect fill="#1e1e1e" x="707.6" y="416.3" width="12.2" height="24.65" shape-rendering="crispEdges"/><rect fill="#1e1e1e" x="719.8" y="416.3" width="24.4" height="24.65" shape-rendering="crispEdges"/><rect fill="#1e1e1e" x="744.2" y="416.3" width="122" height="24.65" shape-rendering="crispEdges"/><rect fill="#1e1e1e" x="866.2" y="416.3" width="585.6" height="24.65" shape-rendering="crispEdges"/><rect fill="#1e1e1e" x="1451.8" y="416.3" width="24.4" height="24.65" shape-rendering="crispEdges"/><rect fill="#1e1e1e" x="1476.2" y="416.3" width="12.2" height="24.65" shape-rendering="crispEdges"/><rect fill="#1e1e1e" x="1488.4" y="416.3" width="707.6" height="24.65" shape-rendering="crispEdges"/><rect fill="#1e1e1e" x="0" y="440.7" width="707.6" height="24.65" shape-rendering="crispEdges"/><rect fill="#1e1e1e" x="707.6" y="440.7" width="12.2" height="24.65" shape-rendering="crispEdges"/><rect fill="#1e1e1e" x="719.8" y="440.7" width="24.4" height="24.65" shape-rendering="crispEdges"/><rect fill="#1e1e1e" x="744.2" y="440.7" width="707.6" height="24.65" shape-rendering="crispEdges"/><rect fill="#1e1e1e" x="1451.8" y="440.7" width="24.4" height="24.65" shape-rendering="crispEdges"/><rect fill="#1e1e1e" x="1476.2" y="440.7" width="12.2" height="24.65" shape-rendering="crispEdges"/><rect fill="#1e1e1e" x="1488.4" y="440.7" width="707.6" height="24.65" shape-rendering="crispEdges"/><rect fill="#1e1e1e" x="0" y="465.1" width="707.6" height="24.65" shape-rendering="crispEdges"/><rect fill="#1e1e1e" x="707.6" y="465.1" width="12.2" height="24.65" shape-rendering="crispEdges"/><rect fill="#1e1e1e" x="719.8" y="465.1" width="24.4" height="24.65" shape-rendering="crispEdges"/><rect fill="#1e1e1e" x="744.2" y="465.1" width="61" height="24.65" shape-rendering="crispEdges"/><rect fill="#1e1e1e" x="805.2" y="465.1" width="268.4" height="24.65" shape-rendering="crispEdges"/><rect fill="#1e1e1e" x="1073.6" y="465.1" width="12.2" height="24.65" shape-rendering="crispEdges"/><rect fill="#1e1e1e" x="1085.8" y="465.1" width="366" height="24.65" shape-rendering="crispEdges"/><rect fill="#1e1e1e" x="1451.8" y="465.1" width="24.4" height="24.65" shape-rendering="crispEdges"/><rect fill="#1e1e1e" x="1476.2" y="465.1" width="12.2" height="24.65" shape-rendering="crispEdges"/><rect fill="#1e1e1e" x="1488.4" y="465.1" width="707.6" height="24.65" shape-rendering="crispEdges"/><rect fill="#1e1e1e" x="0" y="489.5" width="707.6" height="24.65" shape-rendering="crispEdges"/><rect fill="#1e1e1e" x="707.6" y="489.5" width="12.2" height="24.65" shape-rendering="crispEdges"/><rect fill="#1e1e1e" x="719.8" y="489.5" width="24.4" height="24.65" shape-rendering="crispEdges"/><rect fill="#1e1e1e" x="744.2" y="489.5" width="0" height="24.65" shape-rendering="crispEdges"/><rect fill="#1e1e1e" x="744.2" y="489.5" width="707.6" height="24.65" shape-rendering="crispEdges"/><rect fill="#1e1e1e" x="1451.8" y="489.5" width="24.4" height="24.65" shape-rendering="crispEdges"/><rect fill="#1e1e1e" x="1476.2" y="489.5" width="12.2" height="24.65" shape-rendering="crispEdges"/><rect fill="#1e1e1e" x="1488.4" y="489.5" width="707.6" height="24.65" shape-rendering="crispEdges"/><rect fill="#1e1e1e" x="0" y="513.9" width="707.6" height="24.65" shape-rendering="crispEdges"/><rect fill="#1e1e1e" x="707.6" y="513.9" width="12.2" height="24.65" shape-rendering="crispEdges"/><rect fill="#1e1e1e" x="719.8" y="513.9" width="24.4" height="24.65" shape-rendering="crispEdges"/><rect fill="#1e1e1e" x="744.2" y="513.9" width="268.4" height="24.65" shape-rendering="crispEdges"/><rect fill="#1e1e1e" x="1012.6" y="513.9" width="439.2" height="24.65" shape-rendering="crispEdges"/><rect fill="#1e1e1e" x="1451.8" y="513.9" width="24.4" height="24.65" shape-rendering="crispEdges"/><rect fill="#1e1e1e" x="1476.2" y="513.9" width="12.2" height="24.65" shape-rendering="crispEdges"/><rect fill="#1e1e1e" x="1488.4" y="513.9" width="707.6" height="24.65" shape-rendering="crispEdges"/><rect fill="#1e1e1e" x="0" y="538.3" width="707.6" height="24.65" shape-rendering="crispEdges"/><rect fill="#1e1e1e" x="707.6" y="538.3" width="12.2" height="24.65" shape-rendering="crispEdges"/><rect fill="#1e1e1e" x="719.8" y="538.3" width="24.4" height="24.65" shape-rendering="crispEdges"/><rect fill="#1e1e1e" x="744.2" y="538.3" width="439.2" height="24.65" shape-rendering="crispEdges"/><rect fill="#1e1e1e" x="1183.4" y="538.3" width="268.4" height="24.65" shape-rendering="crispEdges"/><rect fill="#1e1e1e" x="1451.8" y="538.3" width="24.4" height="24.65" shape-rendering="crispEdges"/><rect fill="#1e1e1e" x="1476.2" y="538.3" width="12.2" height="24.65" shape-rendering="crispEdges"/><rect fill="#1e1e1e" x="1488.4" y="538.3" width="707.6" height="24.65" shape-rendering="crispEdges"/><rect fill="#1e1e1e" x="0" y="562.7" width="707.6" height="24.65" shape-rendering="crispEdges"/><rect fill="#1e1e1e" x="707.6" y="562.7" width="12.2" height="24.65" shape-rendering="crispEdges"/><rect fill="#1e1e1e" x="719.8" y="562.7" width="24.4" height="24.65" shape-rendering="crispEdges"/><rect fill="#1e1e1e" x="744.2" y="562.7" width="707.6" height="24.65" shape-rendering="crispEdges"/><rect fill="#1e1e1e" x="1451.8" y="562.7" width="24.4" height="24.65" shape-rendering="crispEdges"/><rect fill="#1e1e1e" x="1476.2" y="562.7" width="12.2" height="24.65" shape-rendering="crispEdges"/><rect fill="#1e1e1e" x="1488.4" y="562.7" width="707.6" height="24.65" shape-rendering="crispEdges"/><rect fill="#1e1e1e" x="0" y="587.1" width="707.6" height="24.65" shape-rendering="crispEdges"/><rect fill="#1e1e1e" x="707.6" y="587.1" width="12.2" height="24.65" shape-rendering="crispEdges"/><rect fill="#1e1e1e" x="719.8" y="587.1" width="24.4" height="24.65" shape-rendering="crispEdges"/><rect fill="#656565" x="744.2" y="587.1" width="12.2" height="24.65" shape-rendering="crispEdges"/><rect fill="#272727" x="756.4" y="587.1" width="683.2" height="24.65" shape-rendering="crispEdges"/><rect fill="#1e1e1e" x="1439.6" y="587.1" width="12.2" height="24.65" shape-rendering="crispEdges"/><rect fill="#1e1e1e" x="1451.8" y="587.1" width="24.4" height="24.65" shape-rendering="crispEdges"/><rect fill="#1e1e1e" x="1476.2" y="587.1" width="12.2" height="24.65" shape-rendering="crispEdges"/><rect fill="#1e1e1e" x="1488.4" y="587.1" width="707.6" height="24.65" shape-rendering="crispEdges"/><rect fill="#1e1e1e" x="0" y="611.5" width="707.6" height="24.65" shape-rendering="crispEdges"/><rect fill="#1e1e1e" x="707.6" y="611.5" width="12.2" height="24.65" shape-rendering="crispEdges"/><rect fill="#1e1e1e" x="719.8" y="611.5" width="24.4" height="24.65" shape-rendering="crispEdges"/><rect fill="#656565" x="744.2" y="611.5" width="12.2" height="24.65" shape-rendering="crispEdges"/><rect fill="#272727" x="756.4" y="611.5" width="24.4" height="24.65" shape-rendering="crispEdges"/><rect fill="#e0e0e0" x="780.8" y="611.5" width="12.2" height="24.65" shape-rendering="crispEdges"/><rect fill="#272727" x="793" y="611.5" width="451.4" height="24.65" shape-rendering="crispEdges"/><rect fill="#272727" x="1244.4" y="611.5" width="170.8" height="24.65" shape-rendering="crispEdges"/><rect fill="#272727" x="1415.2" y="611.5" width="24.4" height="24.65" shape-rendering="crispEdges"/><rect fill="#1e1e1e" x="1439.6" y="611.5" width="12.2" height="24.65" shape-rendering="crispEdges"/><rect fill="#1e1e1e" x="1451.8" y="611.5" width="24.4" height="24.65" shape-rendering="crispEdges"/><rect fill="#1e1e1e" x="1476.2" y="611.5" width="12.2" height="24.65" shape-rendering="crispEdges"/><rect fill="#1e1e1e" x="1488.4" y="611.5" width="707.6" height="24.65" shape-rendering="crispEdges"/><rect fill="#1e1e1e" x="0" y="635.9" width="707.6" height="24.65" shape-rendering="crispEdges"/><rect fill="#1e1e1e" x="707.6" y="635.9" width="12.2" height="24.65" shape-rendering="crispEdges"/><rect fill="#1e1e1e" x="719.8" y="635.9" width="24.4" height="24.65" shape-rendering="crispEdges"/><rect fill="#656565" x="744.2" y="635.9" width="12.2" height="24.65" shape-rendering="crispEdges"/><rect fill="#272727" x="756.4" y="635.9" width="683.2" height="24.65" shape-rendering="crispEdges"/><rect fill="#1e1e1e" x="1439.6" y="635.9" width="12.2" height="24.65" shape-rendering="crispEdges"/><rect fill="#1e1e1e" x="1451.8" y="635.9" width="24.4" height="24.65" shape-rendering="crispEdges"/><rect fill="#1e1e1e" x="1476.2" y="635.9" width="12.2" height="24.65" shape-rendering="crispEdges"/><rect fill="#1e1e1e" x="1488.4" y="635.9" width="707.6" height="24.65" shape-rendering="crispEdges"/><rect fill="#1e1e1e" x="0" y="660.3" width="707.6" height="24.65" shape-rendering="crispEdges"/><rect fill="#1e1e1e" x="707.6" y="660.3" width="12.2" height="24.65" shape-rendering="crispEdges"/><rect fill="#1e1e1e" x="719.8" y="660.3" width="24.4" height="24.65" shape-rendering="crispEdges"/><rect fill="#1e1e1e" x="744.2" y="660.3" width="317.2" height="24.65" shape-rendering="crispEdges"/><rect fill="#1e1e1e" x="1061.4" y="660.3" width="12.2" height="24.65" shape-rendering="crispEdges"/><rect fill="#1e1e1e" x="1073.6" y="660.3" width="48.8" height="24.65" shape-rendering="crispEdges"/><rect fill="#1e1e1e" x="1122.4" y="660.3" width="61" height="24.65" shape-rendering="crispEdges"/><rect fill="#1e1e1e" x="1183.4" y="660.3" width="158.6" height="24.65" shape-rendering="crispEdges"/><rect fill="#1e1e1e" x="1342" y="660.3" width="12.2" height="24.65" shape-rendering="crispEdges"/><rect fill="#1e1e1e" x="1354.2" y="660.3" width="48.8" height="24.65" shape-rendering="crispEdges"/><rect fill="#1e1e1e" x="1403" y="660.3" width="36.6" height="24.65" shape-rendering="crispEdges"/><rect fill="#1e1e1e" x="1439.6" y="660.3" width="12.2" height="24.65" shape-rendering="crispEdges"/><rect fill="#1e1e1e" x="1451.8" y="660.3" width="24.4" height="24.65" shape-rendering="crispEdges"/><rect fill="#1e1e1e" x="1476.2" y="660.3" width="12.2" height="24.65" shape-rendering="crispEdges"/><rect fill="#1e1e1e" x="1488.4" y="660.3" width="707.6" height="24.65" shape-rendering="crispEdges"/><rect fill="#1e1e1e" x="0" y="684.7" width="707.6" height="24.65" shape-rendering="crispEdges"/><rect fill="#1e1e1e" x="707.6" y="684.7" width="12.2" height="24.65" shape-rendering="crispEdges"/><rect fill="#1e1e1e" x="719.8" y="684.7" width="24.4" height="24.65" shape-rendering="crispEdges"/><rect fill="#1e1e1e" x="744.2" y="684.7" width="97.6" height="24.65" shape-rendering="crispEdges"/><rect fill="#1e1e1e" x="841.8" y="684.7" width="610" height="24.65" shape-rendering="crispEdges"/><rect fill="#1e1e1e" x="1451.8" y="684.7" width="24.4" height="24.65" shape-rendering="crispEdges"/><rect fill="#1e1e1e" x="1476.2" y="684.7" width="12.2" height="24.65" shape-rendering="crispEdges"/><rect fill="#1e1e1e" x="1488.4" y="684.7" width="707.6" height="24.65" shape-rendering="crispEdges"/><rect fill="#1e1e1e" x="0" y="709.1" width="707.6" height="24.65" shape-rendering="crispEdges"/><rect fill="#1e1e1e" x="707.6" y="709.1" width="12.2" height="24.65" shape-rendering="crispEdges"/><rect fill="#1e1e1e" x="719.8" y="709.1" width="24.4" height="24.65" shape-rendering="crispEdges"/><rect fill="#1e1e1e" x="744.2" y="709.1" width="707.6" height="24.65" shape-rendering="crispEdges"/><rect fill="#1e1e1e" x="1451.8" y="709.1" width="24.4" height="24.65" shape-rendering="crispEdges"/><rect fill="#1e1e1e" x="1476.2" y="709.1" width="12.2" height="24.65" shape-rendering="crispEdges"/><rect fill="#1e1e1e" x="1488.4" y="709.1" width="707.6" height="24.65" shape-rendering="crispEdges"/><rect fill="#1e1e1e" x="0" y="733.5" width="707.6" height="24.65" shape-rendering="crispEdges"/><rect fill="#1e1e1e" x="707.6" y="733.5" width="12.2" height="24.65" shape-rendering="crispEdges"/><rect fill="#1e1e1e" x="719.8" y="733.5" width="24.4" height="24.65" shape-rendering="crispEdges"/><rect fill="#1e1e1e" x="744.2" y="733.5" width="707.6" height="24.65" shape-rendering="crispEdges"/><rect fill="#1e1e1e" x="1451.8" y="733.5" width="24.4" height="24.65" shape-rendering="crispEdges"/><rect fill="#1e1e1e" x="1476.2" y="733.5" width="12.2" height="24.65" shape-rendering="crispEdges"/><rect fill="#1e1e1e" x="1488.4" y="733.5" width="707.6" height="24.65" shape-rendering="crispEdges"/><rect fill="#1e1e1e" x="0" y="757.9" width="707.6" height="24.65" shape-rendering="crispEdges"/><rect fill="#1e1e1e" x="707.6" y="757.9" width="12.2" height="24.65" shape-rendering="crispEdges"/><rect fill="#1e1e1e" x="719.8" y="757.9" width="24.4" height="24.65" shape-rendering="crispEdges"/><rect fill="#1e1e1e" x="744.2" y="757.9" width="146.4" height="24.65" shape-rendering="crispEdges"/><rect fill="#595959" x="890.6" y="757.9" width="195.2" height="24.65" shape-rendering="crispEdges"/><rect fill="#1e1e1e" x="1085.8" y="757.9" width="12.2" height="24.65" shape-rendering="crispEdges"/><rect fill="#1e1e1e" x="1098" y="757.9" width="195.2" height="24.65" shape-rendering="crispEdges"/><rect fill="#1e1e1e" x="1293.2" y="757.9" width="158.6" height="24.65" shape-rendering="crispEdges"/><rect fill="#1e1e1e" x="1451.8" y="757.9" width="24.4" height="24.65" shape-rendering="crispEdges"/><rect fill="#1e1e1e" x="1476.2" y="757.9" width="12.2" height="24.65" shape-rendering="crispEdges"/><rect fill="#1e1e1e" x="1488.4" y="757.9" width="707.6" height="24.65" shape-rendering="crispEdges"/><rect fill="#1e1e1e" x="0" y="782.3" width="707.6" height="24.65" shape-rendering="crispEdges"/><rect fill="#1e1e1e" x="707.6" y="782.3" width="12.2" height="24.65" shape-rendering="crispEdges"/><rect fill="#1e1e1e" x="719.8" y="782.3" width="24.4" height="24.65" shape-rendering="crispEdges"/><rect fill="#1e1e1e" x="744.2" y="782.3" width="146.4" height="24.65" shape-rendering="crispEdges"/><rect fill="#595959" x="890.6" y="782.3" width="61" height="24.65" shape-rendering="crispEdges"/><rect fill="#595959" x="951.6" y="782.3" width="73.2" height="24.65" shape-rendering="crispEdges"/><rect fill="#595959" x="1024.8" y="782.3" width="61" height="24.65" shape-rendering="crispEdges"/><rect fill="#1e1e1e" x="1085.8" y="782.3" width="12.2" height="24.65" shape-rendering="crispEdges"/><rect fill="#1e1e1e" x="1098" y="782.3" width="24.4" height="24.65" shape-rendering="crispEdges"/><rect fill="#1e1e1e" x="1122.4" y="782.3" width="146.4" height="24.65" shape-rendering="crispEdges"/><rect fill="#1e1e1e" x="1268.8" y="782.3" width="24.4" height="24.65" shape-rendering="crispEdges"/><rect fill="#1e1e1e" x="1293.2" y="782.3" width="158.6" height="24.65" shape-rendering="crispEdges"/><rect fill="#1e1e1e" x="1451.8" y="782.3" width="24.4" height="24.65" shape-rendering="crispEdges"/><rect fill="#1e1e1e" x="1476.2" y="782.3" width="12.2" height="24.65" shape-rendering="crispEdges"/><rect fill="#1e1e1e" x="1488.4" y="782.3" width="707.6" height="24.65" shape-rendering="crispEdges"/><rect fill="#1e1e1e" x="0" y="806.7" width="707.6" height="24.65" shape-rendering="crispEdges"/><rect fill="#1e1e1e" x="707.6" y="806.7" width="12.2" height="24.65" shape-rendering="crispEdges"/><rect fill="#1e1e1e" x="719.8" y="806.7" width="24.4" height="24.65" shape-rendering="crispEdges"/><rect fill="#1e1e1e" x="744.2" y="806.7" width="146.4" height="24.65" shape-rendering="crispEdges"/><rect fill="#595959" x="890.6" y="806.7" width="195.2" height="24.65" shape-rendering="crispEdges"/><rect fill="#1e1e1e" x="1085.8" y="806.7" width="12.2" height="24.65" shape-rendering="crispEdges"/><rect fill="#1e1e1e" x="1098" y="806.7" width="195.2" height="24.65" shape-rendering="crispEdges"/><rect fill="#1e1e1e" x="1293.2" y="806.7" width="158.6" height="24.65" shape-rendering="crispEdges"/><rect fill="#1e1e1e" x="1451.8" y="806.7" width="24.4" height="24.65" shape-rendering="crispEdges"/><rect fill="#1e1e1e" x="1476.2" y="806.7" width="12.2" height="24.65" shape-rendering="crispEdges"/><rect fill="#1e1e1e" x="1488.4" y="806.7" width="707.6" height="24.65" shape-rendering="crispEdges"/><rect fill="#1e1e1e" x="0" y="831.1" width="707.6" height="24.65" shape-rendering="crispEdges"/><rect fill="#1e1e1e" x="707.6" y="831.1" width="12.2" height="24.65" shape-rendering="crispEdges"/><rect fill="#1e1e1e" x="719.8" y="831.1" width="756.4" height="24.65" shape-rendering="crispEdges"/><rect fill="#1e1e1e" x="1476.2" y="831.1" width="12.2" height="24.65" shape-rendering="crispEdges"/><rect fill="#1e1e1e" x="1488.4" y="831.1" width="707.6" height="24.65" shape-rendering="crispEdges"/><rect fill="#1e1e1e" x="0" y="855.5" width="707.6" height="24.65" shape-rendering="crispEdges"/><rect fill="#1e1e1e" x="707.6" y="855.5" width="12.2" height="24.65" shape-rendering="crispEdges"/><rect fill="#1e1e1e" x="719.8" y="855.5" width="756.4" height="24.65" shape-rendering="crispEdges"/><rect fill="#1e1e1e" x="1476.2" y="855.5" width="12.2" height="24.65" shape-rendering="crispEdges"/><rect fill="#1e1e1e" x="1488.4" y="855.5" width="707.6" height="24.65" shape-rendering="crispEdges"/><rect fill="#1e1e1e" x="0" y="879.9" width="2196" height="24.65" shape-rendering="crispEdges"/><rect fill="#1e1e1e" x="0" y="904.3" width="2196" height="24.65" shape-rendering="crispEdges"/><rect fill="#1e1e1e" x="0" y="928.7" width="2196" height="24.65" shape-rendering="crispEdges"/><rect fill="#1e1e1e" x="0" y="953.1" width="2196" height="24.65" shape-rendering="crispEdges"/><rect fill="#1e1e1e" x="0" y="977.5" width="2196" height="24.65" shape-rendering="crispEdges"/><rect fill="#1e1e1e" x="0" y="1001.9" width="2196" height="24.65" shape-rendering="crispEdges"/><rect fill="#1e1e1e" x="0" y="1026.3" width="2196" height="24.65" shape-rendering="crispEdges"/><rect fill="#1e1e1e" x="0" y="1050.7" width="2196" height="24.65" shape-rendering="crispEdges"/><rect fill="#1e1e1e" x="0" y="1075.1" width="2196" height="24.65" shape-rendering="crispEdges"/><rect fill="#1e1e1e" x="0" y="1099.5" width="2196" height="24.65" shape-rendering="crispEdges"/><rect fill="#1e1e1e" x="0" y="1123.9" width="2196" height="24.65" shape-rendering="crispEdges"/><rect fill="#1e1e1e" x="0" y="1148.3" width="2196" height="24.65" shape-rendering="crispEdges"/><rect fill="#1e1e1e" x="0" y="1172.7" width="2196" height="24.65" shape-rendering="crispEdges"/><rect fill="#1e1e1e" x="0" y="1197.1" width="2196" height="24.65" shape-rendering="crispEdges"/><rect fill="#1e1e1e" x="0" y="1221.5" width="2196" height="24.65" shape-rendering="crispEdges"/><rect fill="#1e1e1e" x="0" y="1245.9" width="2196" height="24.65" shape-rendering="crispEdges"/>
    <g class="terminal-2112581389-matrix">
    <text class="terminal-2112581389-r1" x="2196" y="20" textLength="12.2" clip-path="url(#terminal-2112581389-line-0)">
</text><text class="terminal-2112581389-r1" x="2196" y="44.4" textLength="12.2" clip-path="url(#terminal-2112581389-line-1)">
</text><text class="terminal-2112581389-r1" x="2196" y="68.8" textLength="12.2" clip-path="url(#terminal-2112581389-line-2)">
</text><text class="terminal-2112581389-r1" x="2196" y="93.2" textLength="12.2" clip-path="url(#terminal-2112581389-line-3)">
</text><text class="terminal-2112581389-r1" x="2196" y="117.6" textLength="12.2" clip-path="url(#terminal-2112581389-line-4)">
</text><text class="terminal-2112581389-r1" x="2196" y="142" textLength="12.2" clip-path="url(#terminal-2112581389-line-5)">
</text><text class="terminal-2112581389-r1" x="2196" y="166.4" textLength="12.2" clip-path="url(#terminal-2112581389-line-6)">
</text><text class="terminal-2112581389-r1" x="2196" y="190.8" textLength="12.2" clip-path="url(#terminal-2112581389-line-7)">
</text><text class="terminal-2112581389-r1" x="2196" y="215.2" textLength="12.2" clip-path="url(#terminal-2112581389-line-8)">
</text><text class="terminal-2112581389-r1" x="2196" y="239.6" textLength="12.2" clip-path="url(#terminal-2112581389-line-9)">
</text><text class="terminal-2112581389-r1" x="2196" y="264" textLength="12.2" clip-path="url(#terminal-2112581389-line-10)">
</text><text class="terminal-2112581389-r1" x="2196" y="288.4" textLength="12.2" clip-path="url(#terminal-2112581389-line-11)">
</text><text class="terminal-2112581389-r1" x="2196" y="312.8" textLength="12.2" clip-path="url(#terminal-2112581389-line-12)">
</text><text class="terminal-2112581389-r1" x="2196" y="337.2" textLength="12.2" clip-path="url(#terminal-2112581389-line-13)">
</text><text class="terminal-2112581389-r1" x="2196" y="361.6" textLength="12.2" clip-path="url(#terminal-2112581389-line-14)">
</text><text class="terminal-2112581389-r2" x="707.6" y="386" textLength="12.2" clip-path="url(#terminal-2112581389-line-15)">╔</text><text class="terminal-2112581389-r2" x="719.8" y="386" textLength="756.4" clip-path="url(#terminal-2112581389-line-15)">══════════════════════════════════════════════════════════════</text><text class="terminal-2112581389-r2" x="1476.2" y="386" textLength="12.2" clip-path="url(#terminal-2112581389-line-15)">╗</text><text class="terminal-2112581389-r1" x="2196" y="386" textLength="12.2" clip-path="url(#terminal-2112581389-line-15)">
</text><text class="terminal-2112581389-r2" x="707.6" y="410.4" textLength="12.2" clip-path="url(#terminal-2112581389-line-16)">║</text><text class="terminal-2112581389-r2" x="1476.2" y="410.4" textLength="12.2" clip-path="url(#terminal-2112581389-line-16)">║</text><text class="terminal-2112581389-r1" x="2196" y="410.4" textLength="12.2" clip-path="url(#terminal-2112581389-line-16)">
</text><text class="terminal-2112581389-r2" x="707.6" y="434.8" textLength="12.2" clip-path="url(#terminal-2112581389-line-17)">║</text><text class="terminal-2112581389-r3" x="744.2" y="434.8" textLength="122" clip-path="url(#terminal-2112581389-line-17)">DROP&#160;TABLE</text><text class="terminal-2112581389-r2" x="1476.2" y="434.8" textLength="12.2" clip-path="url(#terminal-2112581389-line-17)">║</text><text class="terminal-2112581389-r1" x="2196" y="434.8" textLength="12.2" clip-path="url(#terminal-2112581389-line-17)">
</text><text class="terminal-2112581389-r2" x="707.6" y="459.2" textLength="12.2" clip-path="url(#terminal-2112581389-line-18)">║</text><text class="terminal-2112581389-r2" x="1476.2" y="459.2" textLength="12.2" clip-path="url(#terminal-2112581389-line-18)">║</text><text class="terminal-2112581389-r1" x="2196" y="459.2" textLength="12.2" clip-path="url(#terminal-2112581389-line-18)">
</text><text class="terminal-2112581389-r2" x="707.6" y="483.6" textLength="12.2" clip-path="url(#terminal-2112581389-line-19)">║</text><text class="terminal-2112581389-r4" x="744.2" y="483.6" textLength="61" clip-path="url(#terminal-2112581389-line-19)">Drop&#160;</text><text class="terminal-2112581389-r5" x="805.2" y="483.6" textLength="268.4" clip-path="url(#terminal-2112581389-line-19)">aa_enc.dispatch_result</text><text class="terminal-2112581389-r4" x="1073.6" y="483.6" textLength="12.2" clip-path="url(#terminal-2112581389-line-19)">?</text><text class="terminal-2112581389-r2" x="1476.2" y="483.6" textLength="12.2" clip-path="url(#terminal-2112581389-line-19)">║</text><text class="terminal-2112581389-r1" x="2196" y="483.6" textLength="12.2" clip-path="url(#terminal-2112581389-line-19)">
</text><text class="terminal-2112581389-r2" x="707.6" y="508" textLength="12.2" clip-path="url(#terminal-2112581389-line-20)">║</text><text class="terminal-2112581389-r2" x="1476.2" y="508" textLength="12.2" clip-path="url(#terminal-2112581389-line-20)">║</text><text class="terminal-2112581389-r1" x="2196" y="508" textLength="12.2" clip-path="url(#terminal-2112581389-line-20)">
</text><text class="terminal-2112581389-r2" x="707.6" y="532.4" textLength="12.2" clip-path="url(#terminal-2112581389-line-21)">║</text><text class="terminal-2112581389-r6" x="744.2" y="532.4" textLength="268.4" clip-path="url(#terminal-2112581389-line-21)">This&#160;cannot&#160;be&#160;undone.</text><text class="terminal-2112581389-r2" x="1476.2" y="532.4" textLength="12.2" clip-path="url(#terminal-2112581389-line-21)">║</text><text class="terminal-2112581389-r1" x="2196" y="532.4" textLength="12.2" clip-path="url(#terminal-2112581389-line-21)">
</text><text class="terminal-2112581389-r2" x="707.6" y="556.8" textLength="12.2" clip-path="url(#terminal-2112581389-line-22)">║</text><text class="terminal-2112581389-r4" x="744.2" y="556.8" textLength="439.2" clip-path="url(#terminal-2112581389-line-22)">Type&#160;the&#160;full&#160;table&#160;name&#160;to&#160;confirm.</text><text class="terminal-2112581389-r2" x="1476.2" y="556.8" textLength="12.2" clip-path="url(#terminal-2112581389-line-22)">║</text><text class="terminal-2112581389-r1" x="2196" y="556.8" textLength="12.2" clip-path="url(#terminal-2112581389-line-22)">
</text><text class="terminal-2112581389-r2" x="707.6" y="581.2" textLength="12.2" clip-path="url(#terminal-2112581389-line-23)">║</text><text class="terminal-2112581389-r2" x="1476.2" y="581.2" textLength="12.2" clip-path="url(#terminal-2112581389-line-23)">║</text><text class="terminal-2112581389-r1" x="2196" y="581.2" textLength="12.2" clip-path="url(#terminal-2112581389-line-23)">
</text><text class="terminal-2112581389-r2" x="707.6" y="605.6" textLength="12.2" clip-path="url(#terminal-2112581389-line-24)">║</text><text class="terminal-2112581389-r7" x="744.2" y="605.6" textLength="12.2" clip-path="url(#terminal-2112581389-line-24)">▊</text><text class="terminal-2112581389-r8" x="756.4" y="605.6" textLength="683.2" clip-path="url(#terminal-2112581389-line-24)">▔▔▔▔▔▔▔▔▔▔▔▔▔▔▔▔▔▔▔▔▔▔▔▔▔▔▔▔▔▔▔▔▔▔▔▔▔▔▔▔▔▔▔▔▔▔▔▔▔▔▔▔▔▔▔▔</text><text class="terminal-2112581389-r8" x="1439.6" y="605.6" textLength="12.2" clip-path="url(#terminal-2112581389-line-24)">▎</text><text class="terminal-2112581389-r2" x="1476.2" y="605.6" textLength="12.2" clip-path="url(#terminal-2112581389-line-24)">║</text><text class="terminal-2112581389-r1" x="2196" y="605.6" textLength="12.2" clip-path="url(#terminal-2112581389-line-24)">
</text><text class="terminal-2112581389-r2" x="707.6" y="630" textLength="12.2" clip-path="url(#terminal-2112581389-line-25)">║</text><text class="terminal-2112581389-r7" x="744.2" y="630" textLength="12.2" clip-path="url(#terminal-2112581389-line-25)">▊</text><text class="terminal-2112581389-r9" x="780.8" y="630" textLength="12.2" clip-path="url(#terminal-2112581389-line-25)">T</text><text class="terminal-2112581389-r10" x="793" y="630" textLength="451.4" clip-path="url(#terminal-2112581389-line-25)">ype&#160;aa_enc.dispatch_result&#160;to&#160;confirm</text><text class="terminal-2112581389-r8" x="1439.6" y="630" textLength="12.2" clip-path="url(#terminal-2112581389-line-25)">▎</text><text class="terminal-2112581389-r2" x="1476.2" y="630" textLength="12.2" clip-path="url(#terminal-2112581389-line-25)">║</text><text class="terminal-2112581389-r1" x="2196" y="630" textLength="12.2" clip-path="url(#terminal-2112581389-line-25)">
</text><text class="terminal-2112581389-r2" x="707.6" y="654.4" textLength="12.2" clip-path="url(#terminal-2112581389-line-26)">║</text><text class="terminal-2112581389-r7" x="744.2" y="654.4" textLength="12.2" clip-path="url(#terminal-2112581389-line-26)">▊</text><text class="terminal-2112581389-r8" x="756.4" y="654.4" textLength="683.2" clip-path="url(#terminal-2112581389-line-26)">▁▁▁▁▁▁▁▁▁▁▁▁▁▁▁▁▁▁▁▁▁▁▁▁▁▁▁▁▁▁▁▁▁▁▁▁▁▁▁▁▁▁▁▁▁▁▁▁▁▁▁▁▁▁▁▁</text><text class="terminal-2112581389-r8" x="1439.6" y="654.4" textLength="12.2" clip-path="url(#terminal-2112581389-line-26)">▎</text><text class="terminal-2112581389-r2" x="1476.2" y="654.4" textLength="12.2" clip-path="url(#terminal-2112581389-line-26)">║</text><text class="terminal-2112581389-r1" x="2196" y="654.4" textLength="12.2" clip-path="url(#terminal-2112581389-line-26)">
</text><text class="terminal-2112581389-r2" x="707.6" y="678.8" textLength="12.2" clip-path="url(#terminal-2112581389-line-27)">║</text><text class="terminal-2112581389-r11" x="744.2" y="678.8" textLength="317.2" clip-path="url(#terminal-2112581389-line-27)">Type&#160;the&#160;exact&#160;name,&#160;then&#160;</text><text class="terminal-2112581389-r12" x="1061.4" y="678.8" textLength="12.2" clip-path="url(#terminal-2112581389-line-27)">Y</text><text class="terminal-2112581389-r11" x="1073.6" y="678.8" textLength="48.8" clip-path="url(#terminal-2112581389-line-27)">&#160;or&#160;</text><text class="terminal-2112581389-r12" x="1122.4" y="678.8" textLength="61" clip-path="url(#terminal-2112581389-line-27)">Enter</text><text class="terminal-2112581389-r11" x="1183.4" y="678.8" textLength="158.6" clip-path="url(#terminal-2112581389-line-27)">&#160;to&#160;confirm;&#160;</text><text class="terminal-2112581389-r12" x="1342" y="678.8" textLength="12.2" clip-path="url(#terminal-2112581389-line-27)">N</text><text class="terminal-2112581389-r11" x="1354.2" y="678.8" textLength="48.8" clip-path="url(#terminal-2112581389-line-27)">&#160;or&#160;</text><text class="terminal-2112581389-r12" x="1403" y="678.8" textLength="36.6" clip-path="url(#terminal-2112581389-line-27)">Esc</text><text class="terminal-2112581389-r2" x="1476.2" y="678.8" textLength="12.2" clip-path="url(#terminal-2112581389-line-27)">║</text><text class="terminal-2112581389-r1" x="2196" y="678.8" textLength="12.2" clip-path="url(#terminal-2112581389-line-27)">
</text><text class="terminal-2112581389-r2" x="707.6" y="703.2" textLength="12.2" clip-path="url(#terminal-2112581389-line-28)">║</text><text class="terminal-2112581389-r11" x="744.2" y="703.2" textLength="97.6" clip-path="url(#terminal-2112581389-line-28)">cancels.</text><text class="terminal-2112581389-r2" x="1476.2" y="703.2" textLength="12.2" clip-path="url(#terminal-2112581389-line-28)">║</text><text class="terminal-2112581389-r1" x="2196" y="703.2" textLength="12.2" clip-path="url(#terminal-2112581389-line-28)">
</text><text class="terminal-2112581389-r2" x="707.6" y="727.6" textLength="12.2" clip-path="url(#terminal-2112581389-line-29)">║</text><text class="terminal-2112581389-r2" x="1476.2" y="727.6" textLength="12.2" clip-path="url(#terminal-2112581389-line-29)">║</text><text class="terminal-2112581389-r1" x="2196" y="727.6" textLength="12.2" clip-path="url(#terminal-2112581389-line-29)">
</text><text class="terminal-2112581389-r2" x="707.6" y="752" textLength="12.2" clip-path="url(#terminal-2112581389-line-30)">║</text><text class="terminal-2112581389-r2" x="1476.2" y="752" textLength="12.2" clip-path="url(#terminal-2112581389-line-30)">║</text><text class="terminal-2112581389-r1" x="2196" y="752" textLength="12.2" clip-path="url(#terminal-2112581389-line-30)">
</text><text class="terminal-2112581389-r2" x="707.6" y="776.4" textLength="12.2" clip-path="url(#terminal-2112581389-line-31)">║</text><text class="terminal-2112581389-r13" x="890.6" y="776.4" textLength="195.2" clip-path="url(#terminal-2112581389-line-31)">▔▔▔▔▔▔▔▔▔▔▔▔▔▔▔▔</text><text class="terminal-2112581389-r14" x="1098" y="776.4" textLength="195.2" clip-path="url(#terminal-2112581389-line-31)">▔▔▔▔▔▔▔▔▔▔▔▔▔▔▔▔</text><text class="terminal-2112581389-r2" x="1476.2" y="776.4" textLength="12.2" clip-path="url(#terminal-2112581389-line-31)">║</text><text class="terminal-2112581389-r1" x="2196" y="776.4" textLength="12.2" clip-path="url(#terminal-2112581389-line-31)">
</text><text class="terminal-2112581389-r2" x="707.6" y="800.8" textLength="12.2" clip-path="url(#terminal-2112581389-line-32)">║</text><text class="terminal-2112581389-r15" x="951.6" y="800.8" textLength="73.2" clip-path="url(#terminal-2112581389-line-32)">&#160;Drop&#160;</text><text class="terminal-2112581389-r16" x="1122.4" y="800.8" textLength="146.4" clip-path="url(#terminal-2112581389-line-32)">&#160;Keep&#160;Table&#160;</text><text class="terminal-2112581389-r2" x="1476.2" y="800.8" textLength="12.2" clip-path="url(#terminal-2112581389-line-32)">║</text><text class="terminal-2112581389-r1" x="2196" y="800.8" textLength="12.2" clip-path="url(#terminal-2112581389-line-32)">
</text><text class="terminal-2112581389-r2" x="707.6" y="825.2" textLength="12.2" clip-path="url(#terminal-2112581389-line-33)">║</text><text class="terminal-2112581389-r17" x="890.6" y="825.2" textLength="195.2" clip-path="url(#terminal-2112581389-line-33)">▁▁▁▁▁▁▁▁▁▁▁▁▁▁▁▁</text><text class="terminal-2112581389-r18" x="1098" y="825.2" textLength="195.2" clip-path="url(#terminal-2112581389-line-33)">▁▁▁▁▁▁▁▁▁▁▁▁▁▁▁▁</text><text class="terminal-2112581389-r2" x="1476.2" y="825.2" textLength="12.2" clip-path="url(#terminal-2112581389-line-33)">║</text><text class="terminal-2112581389-r1" x="2196" y="825.2" textLength="12.2" clip-path="url(#terminal-2112581389-line-33)">
</text><text class="terminal-2112581389-r2" x="707.6" y="849.6" textLength="12.2" clip-path="url(#terminal-2112581389-line-34)">║</text><text class="terminal-2112581389-r2" x="1476.2" y="849.6" textLength="12.2" clip-path="url(#terminal-2112581389-line-34)">║</text><text class="terminal-2112581389-r1" x="2196" y="849.6" textLength="12.2" clip-path="url(#terminal-2112581389-line-34)">
</text><text class="terminal-2112581389-r2" x="707.6" y="874" textLength="12.2" clip-path="url(#terminal-2112581389-line-35)">╚</text><text class="terminal-2112581389-r2" x="719.8" y="874" textLength="756.4" clip-path="url(#terminal-2112581389-line-35)">══════════════════════════════════════════════════════════════</text><text class="terminal-2112581389-r2" x="1476.2" y="874" textLength="12.2" clip-path="url(#terminal-2112581389-line-35)">╝</text><text class="terminal-2112581389-r1" x="2196" y="874" textLength="12.2" clip-path="url(#terminal-2112581389-line-35)">
</text><text class="terminal-2112581389-r1" x="2196" y="898.4" textLength="12.2" clip-path="url(#terminal-2112581389-line-36)">
</text><text class="terminal-2112581389-r1" x="2196" y="922.8" textLength="12.2" clip-path="url(#terminal-2112581389-line-37)">
</text><text class="terminal-2112581389-r1" x="2196" y="947.2" textLength="12.2" clip-path="url(#terminal-2112581389-line-38)">
</text><text class="terminal-2112581389-r1" x="2196" y="971.6" textLength="12.2" clip-path="url(#terminal-2112581389-line-39)">
</text><text class="terminal-2112581389-r1" x="2196" y="996" textLength="12.2" clip-path="url(#terminal-2112581389-line-40)">
</text><text class="terminal-2112581389-r1" x="2196" y="1020.4" textLength="12.2" clip-path="url(#terminal-2112581389-line-41)">
</text><text class="terminal-2112581389-r1" x="2196" y="1044.8" textLength="12.2" clip-path="url(#terminal-2112581389-line-42)">
</text><text class="terminal-2112581389-r1" x="2196" y="1069.2" textLength="12.2" clip-path="url(#terminal-2112581389-line-43)">
</text><text class="terminal-2112581389-r1" x="2196" y="1093.6" textLength="12.2" clip-path="url(#terminal-2112581389-line-44)">
</text><text class="terminal-2112581389-r1" x="2196" y="1118" textLength="12.2" clip-path="url(#terminal-2112581389-line-45)">
</text><text class="terminal-2112581389-r1" x="2196" y="1142.4" textLength="12.2" clip-path="url(#terminal-2112581389-line-46)">
</text><text class="terminal-2112581389-r1" x="2196" y="1166.8" textLength="12.2" clip-path="url(#terminal-2112581389-line-47)">
</text><text class="terminal-2112581389-r1" x="2196" y="1191.2" textLength="12.2" clip-path="url(#terminal-2112581389-line-48)">
</text><text class="terminal-2112581389-r1" x="2196" y="1215.6" textLength="12.2" clip-path="url(#terminal-2112581389-line-49)">
</text><text class="terminal-2112581389-r1" x="2196" y="1240" textLength="12.2" clip-path="url(#terminal-2112581389-line-50)">
</text>
    </g>
    </g>
</svg>
