<svg class="rich-terminal" viewBox="0 0 1287 830.8" xmlns="http://www.w3.org/2000/svg">
    <!-- Generated with Rich https://www.textualize.io -->
    <style>

    @font-face {
        font-family: "Fira Code";
        src: local("FiraCode-Regular"),
                url("https://cdnjs.cloudflare.com/ajax/libs/firacode/6.2.0/woff2/FiraCode-Regular.woff2") format("woff2"),
                url("https://cdnjs.cloudflare.com/ajax/libs/firacode/6.2.0/woff/FiraCode-Regular.woff") format("woff");
        font-style: normal;
        font-weight: 400;
    }
    @font-face {
        font-family: "Fira Code";
        src: local("FiraCode-Bold"),
                url("https://cdnjs.cloudflare.com/ajax/libs/firacode/6.2.0/woff2/FiraCode-Bold.woff2") format("woff2"),
                url("https://cdnjs.cloudflare.com/ajax/libs/firacode/6.2.0/woff/FiraCode-Bold.woff") format("woff");
        font-style: bold;
        font-weight: 700;
    }

    .terminal-3909667212-matrix {
        font-family: Fira Code, monospace;
        font-size: 20px;
        line-height: 24.4px;
        font-variant-east-asian: full-width;
    }

    .terminal-3909667212-title {
        font-size: 18px;
        font-weight: bold;
        font-family: arial;
    }

    .terminal-3909667212-r1 { fill: #c5c8c6 }
.terminal-3909667212-r2 { fill: #e0e0e0 }
.terminal-3909667212-r3 { fill: #9e9e9e;font-weight: bold }
.terminal-3909667212-r4 { fill: #e0e0e0;font-weight: bold }
.terminal-3909667212-r5 { fill: #9e9e9e }
.terminal-3909667212-r6 { fill: #2f2f2f }
.terminal-3909667212-r7 { fill: #a1a1a1 }
.terminal-3909667212-r8 { fill: #7c7c7c }
.terminal-3909667212-r9 { fill: #5e5e5e }
.terminal-3909667212-r10 { fill: #282828 }
.terminal-3909667212-r11 { fill: #272727 }
.terminal-3909667212-r12 { fill: #a4a4a4 }
.terminal-3909667212-r13 { fill: #363636;font-weight: bold }
.terminal-3909667212-r14 { fill: #ededed }
.terminal-3909667212-r15 { fill: #c9c9c9 }
.terminal-3909667212-r16 { fill: #1e1e1e }
.terminal-3909667212-r17 { fill: #a9a9a9 }
.terminal-3909667212-r18 { fill: #363636 }
.terminal-3909667212-r19 { fill: #6c6c6c }
.terminal-3909667212-r20 { fill: #eaeaea;font-weight: bold }
.terminal-3909667212-r21 { fill: #3a3a3a }
.terminal-3909667212-r22 { fill: #b0b0b0;font-weight: bold }
.terminal-3909667212-r23 { fill: #515151 }
    </style>

    <defs>
    <clipPath id="terminal-3909667212-clip-terminal">
      <rect x="0" y="0" width="1267.8" height="779.8" />
    </clipPath>
    <clipPath id="terminal-3909667212-line-0">
    <rect x="0" y="1.5" width="1268.8" height="24.65"/>
            </clipPath>
<clipPath id="terminal-3909667212-line-1">
    <rect x="0" y="25.9" width="1268.8" height="24.65"/>
            </clipPath>
<clipPath id="terminal-3909667212-line-2">
    <rect x="0" y="50.3" width="1268.8" height="24.65"/>
            </clipPath>
<clipPath id="terminal-3909667212-line-3">
    <rect x="0" y="74.7" width="1268.8" height="24.65"/>
            </clipPath>
<clipPath id="terminal-3909667212-line-4">
    <rect x="0" y="99.1" width="1268.8" height="24.65"/>
            </clipPath>
<clipPath id="terminal-3909667212-line-5">
    <rect x="0" y="123.5" width="1268.8" height="24.65"/>
            </clipPath>
<clipPath id="terminal-3909667212-line-6">
    <rect x="0" y="147.9" width="1268.8" height="24.65"/>
            </clipPath>
<clipPath id="terminal-3909667212-line-7">
    <rect x="0" y="172.3" width="1268.8" height="24.65"/>
            </clipPath>
<clipPath id="terminal-3909667212-line-8">
    <rect x="0" y="196.7" width="1268.8" height="24.65"/>
            </clipPath>
<clipPath id="terminal-3909667212-line-9">
    <rect x="0" y="221.1" width="1268.8" height="24.65"/>
            </clipPath>
<clipPath id="terminal-3909667212-line-10">
    <rect x="0" y="245.5" width="1268.8" height="24.65"/>
            </clipPath>
<clipPath id="terminal-3909667212-line-11">
    <rect x="0" y="269.9" width="1268.8" height="24.65"/>
            </clipPath>
<clipPath id="terminal-3909667212-line-12">
    <rect x="0" y="294.3" width="1268.8" height="24.65"/>
            </clipPath>
<clipPath id="terminal-3909667212-line-13">
    <rect x="0" y="318.7" width="1268.8" height="24.65"/>
            </clipPath>
<clipPath id="terminal-3909667212-line-14">
    <rect x="0" y="343.1" width="1268.8" height="24.65"/>
            </clipPath>
<clipPath id="terminal-3909667212-line-15">
    <rect x="0" y="367.5" width="1268.8" height="24.65"/>
            </clipPath>
<clipPath id="terminal-3909667212-line-16">
    <rect x="0" y="391.9" width="1268.8" height="24.65"/>
            </clipPath>
<clipPath id="terminal-3909667212-line-17">
    <rect x="0" y="416.3" width="1268.8" height="24.65"/>
            </clipPath>
<clipPath id="terminal-3909667212-line-18">
    <rect x="0" y="440.7" width="1268.8" height="24.65"/>
            </clipPath>
<clipPath id="terminal-3909667212-line-19">
    <rect x="0" y="465.1" width="1268.8" height="24.65"/>
            </clipPath>
<clipPath id="terminal-3909667212-line-20">
    <rect x="0" y="489.5" width="1268.8" height="24.65"/>
            </clipPath>
<clipPath id="terminal-3909667212-line-21">
    <rect x="0" y="513.9" width="1268.8" height="24.65"/>
            </clipPath>
<clipPath id="terminal-3909667212-line-22">
    <rect x="0" y="538.3" width="1268.8" height="24.65"/>
            </clipPath>
<clipPath id="terminal-3909667212-line-23">
    <rect x="0" y="562.7" width="1268.8" height="24.65"/>
            </clipPath>
<clipPath id="terminal-3909667212-line-24">
    <rect x="0" y="587.1" width="1268.8" height="24.65"/>
            </clipPath>
<clipPath id="terminal-3909667212-line-25">
    <rect x="0" y="611.5" width="1268.8" height="24.65"/>
            </clipPath>
<clipPath id="terminal-3909667212-line-26">
    <rect x="0" y="635.9" width="1268.8" height="24.65"/>
            </clipPath>
<clipPath id="terminal-3909667212-line-27">
    <rect x="0" y="660.3" width="1268.8" height="24.65"/>
            </clipPath>
<clipPath id="terminal-3909667212-line-28">
    <rect x="0" y="684.7" width="1268.8" height="24.65"/>
            </clipPath>
<clipPath id="terminal-3909667212-line-29">
    <rect x="0" y="709.1" width="1268.8" height="24.65"/>
            </clipPath>
<clipPath id="terminal-3909667212-line-30">
    <rect x="0" y="733.5" width="1268.8" height="24.65"/>
            </clipPath>
    </defs>

    <rect fill="#292929" stroke="rgba(255,255,255,0.35)" stroke-width="1" x="1" y="1" width="1285" height="828.8" rx="8"/><text class="terminal-3909667212-title" fill="#c5c8c6" text-anchor="middle" x="642" y="27">Dispatch&#160;—&#160;advisor&#160;surface&#160;prototype</text>
            <g transform="translate(26,22)">
            <circle cx="0" cy="0" r="7" fill="#ff5f57"/>
            <circle cx="22" cy="0" r="7" fill="#febc2e"/>
            <circle cx="44" cy="0" r="7" fill="#28c840"/>
            </g>
        
    <g transform="translate(9, 41)" clip-path="url(#terminal-3909667212-clip-terminal)">
    <rect fill="#2d2d2d" x="0" y="1.5" width="12.2" height="24.65" shape-rendering="crispEdges"/><rect fill="#2d2d2d" x="12.2" y="1.5" width="12.2" height="24.65" shape-rendering="crispEdges"/><rect fill="#2d2d2d" x="24.4" y="1.5" width="61" height="24.65" shape-rendering="crispEdges"/><rect fill="#2d2d2d" x="85.4" y="1.5" width="12.2" height="24.65" shape-rendering="crispEdges"/><rect fill="#2d2d2d" x="97.6" y="1.5" width="305" height="24.65" shape-rendering="crispEdges"/><rect fill="#2d2d2d" x="402.6" y="1.5" width="439.2" height="24.65" shape-rendering="crispEdges"/><rect fill="#2d2d2d" x="841.8" y="1.5" width="305" height="24.65" shape-rendering="crispEdges"/><rect fill="#2d2d2d" x="1146.8" y="1.5" width="12.2" height="24.65" shape-rendering="crispEdges"/><rect fill="#2d2d2d" x="1159" y="1.5" width="0" height="24.65" shape-rendering="crispEdges"/><rect fill="#2d2d2d" x="1159" y="1.5" width="97.6" height="24.65" shape-rendering="crispEdges"/><rect fill="#2d2d2d" x="1256.6" y="1.5" width="12.2" height="24.65" shape-rendering="crispEdges"/><rect fill="#1e1e1e" x="0" y="25.9" width="1268.8" height="24.65" shape-rendering="crispEdges"/><rect fill="#1e1e1e" x="0" y="50.3" width="12.2" height="24.65" shape-rendering="crispEdges"/><rect fill="#1e1e1e" x="12.2" y="50.3" width="134.2" height="24.65" shape-rendering="crispEdges"/><rect fill="#1e1e1e" x="146.4" y="50.3" width="12.2" height="24.65" shape-rendering="crispEdges"/><rect fill="#1e1e1e" x="158.6" y="50.3" width="366" height="24.65" shape-rendering="crispEdges"/><rect fill="#1e1e1e" x="524.6" y="50.3" width="732" height="24.65" shape-rendering="crispEdges"/><rect fill="#1e1e1e" x="1256.6" y="50.3" width="12.2" height="24.65" shape-rendering="crispEdges"/><rect fill="#0d0d0d" x="0" y="74.7" width="1268.8" height="24.65" shape-rendering="crispEdges"/><rect fill="#0d0d0d" x="0" y="99.1" width="24.4" height="24.65" shape-rendering="crispEdges"/><rect fill="#0d0d0d" x="24.4" y="99.1" width="85.4" height="24.65" shape-rendering="crispEdges"/><rect fill="#0d0d0d" x="109.8" y="99.1" width="280.6" height="24.65" shape-rendering="crispEdges"/><rect fill="#0d0d0d" x="390.4" y="99.1" width="244" height="24.65" shape-rendering="crispEdges"/><rect fill="#0d0d0d" x="634.4" y="99.1" width="427" height="24.65" shape-rendering="crispEdges"/><rect fill="#0d0d0d" x="1061.4" y="99.1" width="183" height="24.65" shape-rendering="crispEdges"/><rect fill="#0d0d0d" x="1244.4" y="99.1" width="24.4" height="24.65" shape-rendering="crispEdges"/><rect fill="#0d0d0d" x="0" y="123.5" width="1268.8" height="24.65" shape-rendering="crispEdges"/><rect fill="#1e1e1e" x="0" y="147.9" width="12.2" height="24.65" shape-rendering="crispEdges"/><rect fill="#1e1e1e" x="12.2" y="147.9" width="12.2" height="24.65" shape-rendering="crispEdges"/><rect fill="#1e1e1e" x="24.4" y="147.9" width="1220" height="24.65" shape-rendering="crispEdges"/><rect fill="#1e1e1e" x="1244.4" y="147.9" width="12.2" height="24.65" shape-rendering="crispEdges"/><rect fill="#1e1e1e" x="1256.6" y="147.9" width="12.2" height="24.65" shape-rendering="crispEdges"/><rect fill="#1e1e1e" x="0" y="172.3" width="12.2" height="24.65" shape-rendering="crispEdges"/><rect fill="#1e1e1e" x="12.2" y="172.3" width="12.2" height="24.65" shape-rendering="crispEdges"/><rect fill="#272727" x="24.4" y="172.3" width="12.2" height="24.65" shape-rendering="crispEdges"/><rect fill="#272727" x="36.6" y="172.3" width="24.4" height="24.65" shape-rendering="crispEdges"/><rect fill="#272727" x="61" y="172.3" width="24.4" height="24.65" shape-rendering="crispEdges"/><rect fill="#0c0c0c" x="85.4" y="172.3" width="48.8" height="24.65" shape-rendering="crispEdges"/><rect fill="#0c0c0c" x="134.2" y="172.3" width="12.2" height="24.65" shape-rendering="crispEdges"/><rect fill="#0c0c0c" x="146.4" y="172.3" width="268.4" height="24.65" shape-rendering="crispEdges"/><rect fill="#0c0c0c" x="414.8" y="172.3" width="12.2" height="24.65" shape-rendering="crispEdges"/><rect fill="#0c0c0c" x="427" y="172.3" width="24.4" height="24.65" shape-rendering="crispEdges"/><rect fill="#0c0c0c" x="451.4" y="172.3" width="12.2" height="24.65" shape-rendering="crispEdges"/><rect fill="#0c0c0c" x="463.6" y="172.3" width="36.6" height="24.65" shape-rendering="crispEdges"/><rect fill="#272727" x="500.2" y="172.3" width="707.6" height="24.65" shape-rendering="crispEdges"/><rect fill="#000000" x="1207.8" y="172.3" width="24.4" height="24.65" shape-rendering="crispEdges"/><rect fill="#272727" x="1232.2" y="172.3" width="12.2" height="24.65" shape-rendering="crispEdges"/><rect fill="#1e1e1e" x="1244.4" y="172.3" width="12.2" height="24.65" shape-rendering="crispEdges"/><rect fill="#1e1e1e" x="1256.6" y="172.3" width="12.2" height="24.65" shape-rendering="crispEdges"/><rect fill="#1e1e1e" x="0" y="196.7" width="12.2" height="24.65" shape-rendering="crispEdges"/><rect fill="#1e1e1e" x="12.2" y="196.7" width="12.2" height="24.65" shape-rendering="crispEdges"/><rect fill="#272727" x="24.4" y="196.7" width="12.2" height="24.65" shape-rendering="crispEdges"/><rect fill="#272727" x="36.6" y="196.7" width="24.4" height="24.65" shape-rendering="crispEdges"/><rect fill="#272727" x="61" y="196.7" width="24.4" height="24.65" shape-rendering="crispEdges"/><rect fill="#0c0c0c" x="85.4" y="196.7" width="61" height="24.65" shape-rendering="crispEdges"/><rect fill="#0c0c0c" x="146.4" y="196.7" width="12.2" height="24.65" shape-rendering="crispEdges"/><rect fill="#0c0c0c" x="158.6" y="196.7" width="48.8" height="24.65" shape-rendering="crispEdges"/><rect fill="#0c0c0c" x="207.4" y="196.7" width="12.2" height="24.65" shape-rendering="crispEdges"/><rect fill="#0c0c0c" x="219.6" y="196.7" width="134.2" height="24.65" shape-rendering="crispEdges"/><rect fill="#0c0c0c" x="353.8" y="196.7" width="12.2" height="24.65" shape-rendering="crispEdges"/><rect fill="#0c0c0c" x="366" y="196.7" width="268.4" height="24.65" shape-rendering="crispEdges"/><rect fill="#0c0c0c" x="634.4" y="196.7" width="12.2" height="24.65" shape-rendering="crispEdges"/><rect fill="#0c0c0c" x="646.6" y="196.7" width="24.4" height="24.65" shape-rendering="crispEdges"/><rect fill="#0c0c0c" x="671" y="196.7" width="12.2" height="24.65" shape-rendering="crispEdges"/><rect fill="#0c0c0c" x="683.2" y="196.7" width="36.6" height="24.65" shape-rendering="crispEdges"/><rect fill="#272727" x="719.8" y="196.7" width="488" height="24.65" shape-rendering="crispEdges"/><rect fill="#282828" x="1207.8" y="196.7" width="24.4" height="24.65" shape-rendering="crispEdges"/><rect fill="#272727" x="1232.2" y="196.7" width="12.2" height="24.65" shape-rendering="crispEdges"/><rect fill="#1e1e1e" x="1244.4" y="196.7" width="12.2" height="24.65" shape-rendering="crispEdges"/><rect fill="#1e1e1e" x="1256.6" y="196.7" width="12.2" height="24.65" shape-rendering="crispEdges"/><rect fill="#1e1e1e" x="0" y="221.1" width="12.2" height="24.65" shape-rendering="crispEdges"/><rect fill="#1e1e1e" x="12.2" y="221.1" width="12.2" height="24.65" shape-rendering="crispEdges"/><rect fill="#272727" x="24.4" y="221.1" width="12.2" height="24.65" shape-rendering="crispEdges"/><rect fill="#272727" x="36.6" y="221.1" width="24.4" height="24.65" shape-rendering="crispEdges"/><rect fill="#272727" x="61" y="221.1" width="24.4" height="24.65" shape-rendering="crispEdges"/><rect fill="#0c0c0c" x="85.4" y="221.1" width="24.4" height="24.65" shape-rendering="crispEdges"/><rect fill="#0c0c0c" x="109.8" y="221.1" width="24.4" height="24.65" shape-rendering="crispEdges"/><rect fill="#0c0c0c" x="134.2" y="221.1" width="12.2" height="24.65" shape-rendering="crispEdges"/><rect fill="#0c0c0c" x="146.4" y="221.1" width="170.8" height="24.65" shape-rendering="crispEdges"/><rect fill="#0c0c0c" x="317.2" y="221.1" width="12.2" height="24.65" shape-rendering="crispEdges"/><rect fill="#0c0c0c" x="329.4" y="221.1" width="12.2" height="24.65" shape-rendering="crispEdges"/><rect fill="#0c0c0c" x="341.6" y="221.1" width="12.2" height="24.65" shape-rendering="crispEdges"/><rect fill="#0c0c0c" x="353.8" y="221.1" width="170.8" height="24.65" shape-rendering="crispEdges"/><rect fill="#272727" x="524.6" y="221.1" width="683.2" height="24.65" shape-rendering="crispEdges"/><rect fill="#282828" x="1207.8" y="221.1" width="24.4" height="24.65" shape-rendering="crispEdges"/><rect fill="#272727" x="1232.2" y="221.1" width="12.2" height="24.65" shape-rendering="crispEdges"/><rect fill="#1e1e1e" x="1244.4" y="221.1" width="12.2" height="24.65" shape-rendering="crispEdges"/><rect fill="#1e1e1e" x="1256.6" y="221.1" width="12.2" height="24.65" shape-rendering="crispEdges"/><rect fill="#1e1e1e" x="0" y="245.5" width="12.2" height="24.65" shape-rendering="crispEdges"/><rect fill="#1e1e1e" x="12.2" y="245.5" width="12.2" height="24.65" shape-rendering="crispEdges"/><rect fill="#272727" x="24.4" y="245.5" width="12.2" height="24.65" shape-rendering="crispEdges"/><rect fill="#272727" x="36.6" y="245.5" width="24.4" height="24.65" shape-rendering="crispEdges"/><rect fill="#272727" x="61" y="245.5" width="24.4" height="24.65" shape-rendering="crispEdges"/><rect fill="#0c0c0c" x="85.4" y="245.5" width="61" height="24.65" shape-rendering="crispEdges"/><rect fill="#0c0c0c" x="146.4" y="245.5" width="12.2" height="24.65" shape-rendering="crispEdges"/><rect fill="#0c0c0c" x="158.6" y="245.5" width="207.4" height="24.65" shape-rendering="crispEdges"/><rect fill="#0c0c0c" x="366" y="245.5" width="12.2" height="24.65" shape-rendering="crispEdges"/><rect fill="#0c0c0c" x="378.2" y="245.5" width="73.2" height="24.65" shape-rendering="crispEdges"/><rect fill="#0c0c0c" x="451.4" y="245.5" width="12.2" height="24.65" shape-rendering="crispEdges"/><rect fill="#0c0c0c" x="463.6" y="245.5" width="97.6" height="24.65" shape-rendering="crispEdges"/><rect fill="#272727" x="561.2" y="245.5" width="646.6" height="24.65" shape-rendering="crispEdges"/><rect fill="#282828" x="1207.8" y="245.5" width="24.4" height="24.65" shape-rendering="crispEdges"/><rect fill="#272727" x="1232.2" y="245.5" width="12.2" height="24.65" shape-rendering="crispEdges"/><rect fill="#1e1e1e" x="1244.4" y="245.5" width="12.2" height="24.65" shape-rendering="crispEdges"/><rect fill="#1e1e1e" x="1256.6" y="245.5" width="12.2" height="24.65" shape-rendering="crispEdges"/><rect fill="#1e1e1e" x="0" y="269.9" width="12.2" height="24.65" shape-rendering="crispEdges"/><rect fill="#1e1e1e" x="12.2" y="269.9" width="12.2" height="24.65" shape-rendering="crispEdges"/><rect fill="#272727" x="24.4" y="269.9" width="12.2" height="24.65" shape-rendering="crispEdges"/><rect fill="#272727" x="36.6" y="269.9" width="24.4" height="24.65" shape-rendering="crispEdges"/><rect fill="#272727" x="61" y="269.9" width="24.4" height="24.65" shape-rendering="crispEdges"/><rect fill="#0c0c0c" x="85.4" y="269.9" width="61" height="24.65" shape-rendering="crispEdges"/><rect fill="#272727" x="146.4" y="269.9" width="1061.4" height="24.65" shape-rendering="crispEdges"/><rect fill="#282828" x="1207.8" y="269.9" width="24.4" height="24.65" shape-rendering="crispEdges"/><rect fill="#272727" x="1232.2" y="269.9" width="12.2" height="24.65" shape-rendering="crispEdges"/><rect fill="#1e1e1e" x="1244.4" y="269.9" width="12.2" height="24.65" shape-rendering="crispEdges"/><rect fill="#1e1e1e" x="1256.6" y="269.9" width="12.2" height="24.65" shape-rendering="crispEdges"/><rect fill="#1e1e1e" x="0" y="294.3" width="12.2" height="24.65" shape-rendering="crispEdges"/><rect fill="#1e1e1e" x="12.2" y="294.3" width="12.2" height="24.65" shape-rendering="crispEdges"/><rect fill="#272727" x="24.4" y="294.3" width="12.2" height="24.65" shape-rendering="crispEdges"/><rect fill="#272727" x="36.6" y="294.3" width="24.4" height="24.65" shape-rendering="crispEdges"/><rect fill="#272727" x="61" y="294.3" width="24.4" height="24.65" shape-rendering="crispEdges"/><rect fill="#0c0c0c" x="85.4" y="294.3" width="73.2" height="24.65" shape-rendering="crispEdges"/><rect fill="#0c0c0c" x="158.6" y="294.3" width="12.2" height="24.65" shape-rendering="crispEdges"/><rect fill="#0c0c0c" x="170.8" y="294.3" width="12.2" height="24.65" shape-rendering="crispEdges"/><rect fill="#0c0c0c" x="183" y="294.3" width="12.2" height="24.65" shape-rendering="crispEdges"/><rect fill="#0c0c0c" x="195.2" y="294.3" width="48.8" height="24.65" shape-rendering="crispEdges"/><rect fill="#0c0c0c" x="244" y="294.3" width="12.2" height="24.65" shape-rendering="crispEdges"/><rect fill="#0c0c0c" x="256.2" y="294.3" width="268.4" height="24.65" shape-rendering="crispEdges"/><rect fill="#272727" x="524.6" y="294.3" width="683.2" height="24.65" shape-rendering="crispEdges"/><rect fill="#282828" x="1207.8" y="294.3" width="24.4" height="24.65" shape-rendering="crispEdges"/><rect fill="#272727" x="1232.2" y="294.3" width="12.2" height="24.65" shape-rendering="crispEdges"/><rect fill="#1e1e1e" x="1244.4" y="294.3" width="12.2" height="24.65" shape-rendering="crispEdges"/><rect fill="#1e1e1e" x="1256.6" y="294.3" width="12.2" height="24.65" shape-rendering="crispEdges"/><rect fill="#1e1e1e" x="0" y="318.7" width="12.2" height="24.65" shape-rendering="crispEdges"/><rect fill="#1e1e1e" x="12.2" y="318.7" width="12.2" height="24.65" shape-rendering="crispEdges"/><rect fill="#272727" x="24.4" y="318.7" width="12.2" height="24.65" shape-rendering="crispEdges"/><rect fill="#272727" x="36.6" y="318.7" width="24.4" height="24.65" shape-rendering="crispEdges"/><rect fill="#272727" x="61" y="318.7" width="24.4" height="24.65" shape-rendering="crispEdges"/><rect fill="#272727" x="85.4" y="318.7" width="1122.4" height="24.65" shape-rendering="crispEdges"/><rect fill="#282828" x="1207.8" y="318.7" width="24.4" height="24.65" shape-rendering="crispEdges"/><rect fill="#272727" x="1232.2" y="318.7" width="12.2" height="24.65" shape-rendering="crispEdges"/><rect fill="#1e1e1e" x="1244.4" y="318.7" width="12.2" height="24.65" shape-rendering="crispEdges"/><rect fill="#1e1e1e" x="1256.6" y="318.7" width="12.2" height="24.65" shape-rendering="crispEdges"/><rect fill="#1e1e1e" x="0" y="343.1" width="12.2" height="24.65" shape-rendering="crispEdges"/><rect fill="#1e1e1e" x="12.2" y="343.1" width="12.2" height="24.65" shape-rendering="crispEdges"/><rect fill="#1e1e1e" x="24.4" y="343.1" width="1220" height="24.65" shape-rendering="crispEdges"/><rect fill="#1e1e1e" x="1244.4" y="343.1" width="12.2" height="24.65" shape-rendering="crispEdges"/><rect fill="#1e1e1e" x="1256.6" y="343.1" width="12.2" height="24.65" shape-rendering="crispEdges"/><rect fill="#1e1e1e" x="0" y="367.5" width="1268.8" height="24.65" shape-rendering="crispEdges"/><rect fill="#1e1e1e" x="0" y="391.9" width="12.2" height="24.65" shape-rendering="crispEdges"/><rect fill="#1e1e1e" x="12.2" y="391.9" width="195.2" height="24.65" shape-rendering="crispEdges"/><rect fill="#1e1e1e" x="207.4" y="391.9" width="12.2" height="24.65" shape-rendering="crispEdges"/><rect fill="#1e1e1e" x="219.6" y="391.9" width="378.2" height="24.65" shape-rendering="crispEdges"/><rect fill="#1e1e1e" x="597.8" y="391.9" width="658.8" height="24.65" shape-rendering="crispEdges"/><rect fill="#1e1e1e" x="1256.6" y="391.9" width="12.2" height="24.65" shape-rendering="crispEdges"/><rect fill="#1e1e1e" x="0" y="416.3" width="61" height="24.65" shape-rendering="crispEdges"/><rect fill="#1e1e1e" x="61" y="416.3" width="12.2" height="24.65" shape-rendering="crispEdges"/><rect fill="#1e1e1e" x="73.2" y="416.3" width="36.6" height="24.65" shape-rendering="crispEdges"/><rect fill="#1e1e1e" x="109.8" y="416.3" width="12.2" height="24.65" shape-rendering="crispEdges"/><rect fill="#1e1e1e" x="122" y="416.3" width="97.6" height="24.65" shape-rendering="crispEdges"/><rect fill="#1e1e1e" x="219.6" y="416.3" width="963.8" height="24.65" shape-rendering="crispEdges"/><rect fill="#1e1e1e" x="1183.4" y="416.3" width="85.4" height="24.65" shape-rendering="crispEdges"/><rect fill="#1e1e1e" x="0" y="440.7" width="73.2" height="24.65" shape-rendering="crispEdges"/><rect fill="#1e1e1e" x="73.2" y="440.7" width="841.8" height="24.65" shape-rendering="crispEdges"/><rect fill="#1e1e1e" x="915" y="440.7" width="353.8" height="24.65" shape-rendering="crispEdges"/><rect fill="#1e1e1e" x="0" y="465.1" width="85.4" height="24.65" shape-rendering="crispEdges"/><rect fill="#1e1e1e" x="85.4" y="465.1" width="12.2" height="24.65" shape-rendering="crispEdges"/><rect fill="#1e1e1e" x="97.6" y="465.1" width="36.6" height="24.65" shape-rendering="crispEdges"/><rect fill="#1e1e1e" x="134.2" y="465.1" width="12.2" height="24.65" shape-rendering="crispEdges"/><rect fill="#1e1e1e" x="146.4" y="465.1" width="61" height="24.65" shape-rendering="crispEdges"/><rect fill="#1e1e1e" x="207.4" y="465.1" width="1012.6" height="24.65" shape-rendering="crispEdges"/><rect fill="#1e1e1e" x="1220" y="465.1" width="48.8" height="24.65" shape-rendering="crispEdges"/><rect fill="#1e1e1e" x="0" y="489.5" width="73.2" height="24.65" shape-rendering="crispEdges"/><rect fill="#1e1e1e" x="73.2" y="489.5" width="634.4" height="24.65" shape-rendering="crispEdges"/><rect fill="#1e1e1e" x="707.6" y="489.5" width="561.2" height="24.65" shape-rendering="crispEdges"/><rect fill="#1e1e1e" x="0" y="513.9" width="48.8" height="24.65" shape-rendering="crispEdges"/><rect fill="#1e1e1e" x="48.8" y="513.9" width="12.2" height="24.65" shape-rendering="crispEdges"/><rect fill="#1e1e1e" x="61" y="513.9" width="36.6" height="24.65" shape-rendering="crispEdges"/><rect fill="#1e1e1e" x="97.6" y="513.9" width="12.2" height="24.65" shape-rendering="crispEdges"/><rect fill="#1e1e1e" x="109.8" y="513.9" width="48.8" height="24.65" shape-rendering="crispEdges"/><rect fill="#1e1e1e" x="158.6" y="513.9" width="573.4" height="24.65" shape-rendering="crispEdges"/><rect fill="#1e1e1e" x="732" y="513.9" width="536.8" height="24.65" shape-rendering="crispEdges"/><rect fill="#1e1e1e" x="0" y="538.3" width="73.2" height="24.65" shape-rendering="crispEdges"/><rect fill="#1e1e1e" x="73.2" y="538.3" width="671" height="24.65" shape-rendering="crispEdges"/><rect fill="#1e1e1e" x="744.2" y="538.3" width="524.6" height="24.65" shape-rendering="crispEdges"/><rect fill="#1e1e1e" x="0" y="562.7" width="48.8" height="24.65" shape-rendering="crispEdges"/><rect fill="#1e1e1e" x="48.8" y="562.7" width="12.2" height="24.65" shape-rendering="crispEdges"/><rect fill="#1e1e1e" x="61" y="562.7" width="36.6" height="24.65" shape-rendering="crispEdges"/><rect fill="#1e1e1e" x="97.6" y="562.7" width="12.2" height="24.65" shape-rendering="crispEdges"/><rect fill="#1e1e1e" x="109.8" y="562.7" width="48.8" height="24.65" shape-rendering="crispEdges"/><rect fill="#1e1e1e" x="158.6" y="562.7" width="414.8" height="24.65" shape-rendering="crispEdges"/><rect fill="#1e1e1e" x="573.4" y="562.7" width="695.4" height="24.65" shape-rendering="crispEdges"/><rect fill="#1e1e1e" x="0" y="587.1" width="73.2" height="24.65" shape-rendering="crispEdges"/><rect fill="#1e1e1e" x="73.2" y="587.1" width="927.2" height="24.65" shape-rendering="crispEdges"/><rect fill="#1e1e1e" x="1000.4" y="587.1" width="268.4" height="24.65" shape-rendering="crispEdges"/><rect fill="#0d0d0d" x="0" y="611.5" width="1268.8" height="24.65" shape-rendering="crispEdges"/><rect fill="#0d0d0d" x="0" y="635.9" width="1268.8" height="24.65" shape-rendering="crispEdges"/><rect fill="#0d0d0d" x="0" y="660.3" width="12.2" height="24.65" shape-rendering="crispEdges"/><rect fill="#0d0d0d" x="12.2" y="660.3" width="12.2" height="24.65" shape-rendering="crispEdges"/><rect fill="#0d0d0d" x="24.4" y="660.3" width="1049.2" height="24.65" shape-rendering="crispEdges"/><rect fill="#0d0d0d" x="1073.6" y="660.3" width="12.2" height="24.65" shape-rendering="crispEdges"/><rect fill="#0d0d0d" x="1085.8" y="660.3" width="12.2" height="24.65" shape-rendering="crispEdges"/><rect fill="#656565" x="1098" y="660.3" width="146.4" height="24.65" shape-rendering="crispEdges"/><rect fill="#0d0d0d" x="1244.4" y="660.3" width="12.2" height="24.65" shape-rendering="crispEdges"/><rect fill="#0d0d0d" x="1256.6" y="660.3" width="12.2" height="24.65" shape-rendering="crispEdges"/><rect fill="#0d0d0d" x="0" y="684.7" width="12.2" height="24.65" shape-rendering="crispEdges"/><rect fill="#0d0d0d" x="12.2" y="684.7" width="12.2" height="24.65" shape-rendering="crispEdges"/><rect fill="#0d0d0d" x="24.4" y="684.7" width="170.8" height="24.65" shape-rendering="crispEdges"/><rect fill="#0d0d0d" x="195.2" y="684.7" width="12.2" height="24.65" shape-rendering="crispEdges"/><rect fill="#0d0d0d" x="207.4" y="684.7" width="378.2" height="24.65" shape-rendering="crispEdges"/><rect fill="#0d0d0d" x="585.6" y="684.7" width="488" height="24.65" shape-rendering="crispEdges"/><rect fill="#0d0d0d" x="1073.6" y="684.7" width="12.2" height="24.65" shape-rendering="crispEdges"/><rect fill="#0d0d0d" x="1085.8" y="684.7" width="12.2" height="24.65" shape-rendering="crispEdges"/><rect fill="#656565" x="1098" y="684.7" width="24.4" height="24.65" shape-rendering="crispEdges"/><rect fill="#656565" x="1122.4" y="684.7" width="85.4" height="24.65" shape-rendering="crispEdges"/><rect fill="#656565" x="1207.8" y="684.7" width="36.6" height="24.65" shape-rendering="crispEdges"/><rect fill="#0d0d0d" x="1244.4" y="684.7" width="12.2" height="24.65" shape-rendering="crispEdges"/><rect fill="#0d0d0d" x="1256.6" y="684.7" width="12.2" height="24.65" shape-rendering="crispEdges"/><rect fill="#0d0d0d" x="0" y="709.1" width="12.2" height="24.65" shape-rendering="crispEdges"/><rect fill="#0d0d0d" x="12.2" y="709.1" width="12.2" height="24.65" shape-rendering="crispEdges"/><rect fill="#0d0d0d" x="24.4" y="709.1" width="1049.2" height="24.65" shape-rendering="crispEdges"/><rect fill="#0d0d0d" x="1073.6" y="709.1" width="12.2" height="24.65" shape-rendering="crispEdges"/><rect fill="#0d0d0d" x="1085.8" y="709.1" width="12.2" height="24.65" shape-rendering="crispEdges"/><rect fill="#656565" x="1098" y="709.1" width="146.4" height="24.65" shape-rendering="crispEdges"/><rect fill="#0d0d0d" x="1244.4" y="709.1" width="12.2" height="24.65" shape-rendering="crispEdges"/><rect fill="#0d0d0d" x="1256.6" y="709.1" width="12.2" height="24.65" shape-rendering="crispEdges"/><rect fill="#0d0d0d" x="0" y="733.5" width="1268.8" height="24.65" shape-rendering="crispEdges"/><rect fill="#2d2d2d" x="0" y="757.9" width="36.6" height="24.65" shape-rendering="crispEdges"/><rect fill="#2d2d2d" x="36.6" y="757.9" width="61" height="24.65" shape-rendering="crispEdges"/><rect fill="#2d2d2d" x="97.6" y="757.9" width="1024.8" height="24.65" shape-rendering="crispEdges"/><rect fill="#2d2d2d" x="1122.4" y="757.9" width="12.2" height="24.65" shape-rendering="crispEdges"/><rect fill="#2d2d2d" x="1134.6" y="757.9" width="24.4" height="24.65" shape-rendering="crispEdges"/><rect fill="#2d2d2d" x="1159" y="757.9" width="97.6" height="24.65" shape-rendering="crispEdges"/><rect fill="#2d2d2d" x="1256.6" y="757.9" width="12.2" height="24.65" shape-rendering="crispEdges"/>
    <g class="terminal-3909667212-matrix">
    <text class="terminal-3909667212-r2" x="12.2" y="20" textLength="12.2" clip-path="url(#terminal-3909667212-line-0)">⭘</text><text class="terminal-3909667212-r2" x="402.6" y="20" textLength="439.2" clip-path="url(#terminal-3909667212-line-0)">Dispatch&#160;—&#160;advisor&#160;surface&#160;prototype</text><text class="terminal-3909667212-r1" x="1268.8" y="20" textLength="12.2" clip-path="url(#terminal-3909667212-line-0)">
</text><text class="terminal-3909667212-r1" x="1268.8" y="44.4" textLength="12.2" clip-path="url(#terminal-3909667212-line-1)">
</text><text class="terminal-3909667212-r3" x="12.2" y="68.8" textLength="134.2" clip-path="url(#terminal-3909667212-line-2)">‹&#160;New&#160;Job&#160;/</text><text class="terminal-3909667212-r4" x="158.6" y="68.8" textLength="366" clip-path="url(#terminal-3909667212-line-2)">Preview&#160;SQL&#160;·&#160;monthly_pull.sql</text><text class="terminal-3909667212-r1" x="1268.8" y="68.8" textLength="12.2" clip-path="url(#terminal-3909667212-line-2)">
</text><text class="terminal-3909667212-r1" x="1268.8" y="93.2" textLength="12.2" clip-path="url(#terminal-3909667212-line-3)">
</text><text class="terminal-3909667212-r4" x="24.4" y="117.6" textLength="85.4" clip-path="url(#terminal-3909667212-line-4)">Target:</text><text class="terminal-3909667212-r2" x="109.8" y="117.6" textLength="280.6" clip-path="url(#terminal-3909667212-line-4)">&#160;aa_enc.dispatch_result</text><text class="terminal-3909667212-r5" x="1061.4" y="117.6" textLength="183" clip-path="url(#terminal-3909667212-line-4)">SqlFile&#160;→&#160;Table</text><text class="terminal-3909667212-r1" x="1268.8" y="117.6" textLength="12.2" clip-path="url(#terminal-3909667212-line-4)">
</text><text class="terminal-3909667212-r1" x="1268.8" y="142" textLength="12.2" clip-path="url(#terminal-3909667212-line-5)">
</text><text class="terminal-3909667212-r6" x="12.2" y="166.4" textLength="12.2" clip-path="url(#terminal-3909667212-line-6)">╭</text><text class="terminal-3909667212-r6" x="24.4" y="166.4" textLength="1220" clip-path="url(#terminal-3909667212-line-6)">────────────────────────────────────────────────────────────────────────────────────────────────────</text><text class="terminal-3909667212-r6" x="1244.4" y="166.4" textLength="12.2" clip-path="url(#terminal-3909667212-line-6)">╮</text><text class="terminal-3909667212-r1" x="1268.8" y="166.4" textLength="12.2" clip-path="url(#terminal-3909667212-line-6)">
</text><text class="terminal-3909667212-r6" x="12.2" y="190.8" textLength="12.2" clip-path="url(#terminal-3909667212-line-7)">│</text><text class="terminal-3909667212-r7" x="61" y="190.8" textLength="24.4" clip-path="url(#terminal-3909667212-line-7)">2&#160;</text><text class="terminal-3909667212-r8" x="85.4" y="190.8" textLength="48.8" clip-path="url(#terminal-3909667212-line-7)">FROM</text><text class="terminal-3909667212-r2" x="146.4" y="190.8" textLength="268.4" clip-path="url(#terminal-3909667212-line-7)">core.cut_clear_dtl_enc</text><text class="terminal-3909667212-r8" x="427" y="190.8" textLength="24.4" clip-path="url(#terminal-3909667212-line-7)">AS</text><text class="terminal-3909667212-r2" x="463.6" y="190.8" textLength="36.6" clip-path="url(#terminal-3909667212-line-7)">clr</text><text class="terminal-3909667212-r10" x="1207.8" y="190.8" textLength="24.4" clip-path="url(#terminal-3909667212-line-7)">▁▁</text><text class="terminal-3909667212-r6" x="1244.4" y="190.8" textLength="12.2" clip-path="url(#terminal-3909667212-line-7)">│</text><text class="terminal-3909667212-r1" x="1268.8" y="190.8" textLength="12.2" clip-path="url(#terminal-3909667212-line-7)">
</text><text class="terminal-3909667212-r6" x="12.2" y="215.2" textLength="12.2" clip-path="url(#terminal-3909667212-line-8)">│</text><text class="terminal-3909667212-r7" x="61" y="215.2" textLength="24.4" clip-path="url(#terminal-3909667212-line-8)">3&#160;</text><text class="terminal-3909667212-r8" x="85.4" y="215.2" textLength="61" clip-path="url(#terminal-3909667212-line-8)">INNER</text><text class="terminal-3909667212-r8" x="158.6" y="215.2" textLength="48.8" clip-path="url(#terminal-3909667212-line-8)">JOIN</text><text class="terminal-3909667212-r2" x="219.6" y="215.2" textLength="134.2" clip-path="url(#terminal-3909667212-line-8)">[BROADCAST]</text><text class="terminal-3909667212-r2" x="366" y="215.2" textLength="268.4" clip-path="url(#terminal-3909667212-line-8)">core.cut_clear_dtl_enc</text><text class="terminal-3909667212-r8" x="646.6" y="215.2" textLength="24.4" clip-path="url(#terminal-3909667212-line-8)">AS</text><text class="terminal-3909667212-r2" x="683.2" y="215.2" textLength="36.6" clip-path="url(#terminal-3909667212-line-8)">big</text><text class="terminal-3909667212-r6" x="1244.4" y="215.2" textLength="12.2" clip-path="url(#terminal-3909667212-line-8)">│</text><text class="terminal-3909667212-r1" x="1268.8" y="215.2" textLength="12.2" clip-path="url(#terminal-3909667212-line-8)">
</text><text class="terminal-3909667212-r6" x="12.2" y="239.6" textLength="12.2" clip-path="url(#terminal-3909667212-line-9)">│</text><text class="terminal-3909667212-r7" x="61" y="239.6" textLength="24.4" clip-path="url(#terminal-3909667212-line-9)">4&#160;</text><text class="terminal-3909667212-r8" x="109.8" y="239.6" textLength="24.4" clip-path="url(#terminal-3909667212-line-9)">ON</text><text class="terminal-3909667212-r2" x="146.4" y="239.6" textLength="170.8" clip-path="url(#terminal-3909667212-line-9)">clr.dw_acct_id</text><text class="terminal-3909667212-r2" x="329.4" y="239.6" textLength="12.2" clip-path="url(#terminal-3909667212-line-9)">=</text><text class="terminal-3909667212-r2" x="353.8" y="239.6" textLength="170.8" clip-path="url(#terminal-3909667212-line-9)">big.dw_acct_id</text><text class="terminal-3909667212-r6" x="1244.4" y="239.6" textLength="12.2" clip-path="url(#terminal-3909667212-line-9)">│</text><text class="terminal-3909667212-r1" x="1268.8" y="239.6" textLength="12.2" clip-path="url(#terminal-3909667212-line-9)">
</text><text class="terminal-3909667212-r6" x="12.2" y="264" textLength="12.2" clip-path="url(#terminal-3909667212-line-10)">│</text><text class="terminal-3909667212-r7" x="61" y="264" textLength="24.4" clip-path="url(#terminal-3909667212-line-10)">5&#160;</text><text class="terminal-3909667212-r8" x="85.4" y="264" textLength="61" clip-path="url(#terminal-3909667212-line-10)">WHERE</text><text class="terminal-3909667212-r2" x="158.6" y="264" textLength="207.4" clip-path="url(#terminal-3909667212-line-10)">clr.merchant_name</text><text class="terminal-3909667212-r2" x="378.2" y="264" textLength="73.2" clip-path="url(#terminal-3909667212-line-10)">REGEXP</text><text class="terminal-3909667212-r12" x="463.6" y="264" textLength="97.6" clip-path="url(#terminal-3909667212-line-10)">&#x27;^ABC.*&#x27;</text><text class="terminal-3909667212-r6" x="1244.4" y="264" textLength="12.2" clip-path="url(#terminal-3909667212-line-10)">│</text><text class="terminal-3909667212-r1" x="1268.8" y="264" textLength="12.2" clip-path="url(#terminal-3909667212-line-10)">
</text><text class="terminal-3909667212-r6" x="12.2" y="288.4" textLength="12.2" clip-path="url(#terminal-3909667212-line-11)">│</text><text class="terminal-3909667212-r7" x="61" y="288.4" textLength="24.4" clip-path="url(#terminal-3909667212-line-11)">6&#160;</text><text class="terminal-3909667212-r8" x="85.4" y="288.4" textLength="61" clip-path="url(#terminal-3909667212-line-11)">UNION</text><text class="terminal-3909667212-r6" x="1244.4" y="288.4" textLength="12.2" clip-path="url(#terminal-3909667212-line-11)">│</text><text class="terminal-3909667212-r1" x="1268.8" y="288.4" textLength="12.2" clip-path="url(#terminal-3909667212-line-11)">
</text><text class="terminal-3909667212-r6" x="12.2" y="312.8" textLength="12.2" clip-path="url(#terminal-3909667212-line-12)">│</text><text class="terminal-3909667212-r7" x="61" y="312.8" textLength="24.4" clip-path="url(#terminal-3909667212-line-12)">7&#160;</text><text class="terminal-3909667212-r8" x="85.4" y="312.8" textLength="73.2" clip-path="url(#terminal-3909667212-line-12)">SELECT</text><text class="terminal-3909667212-r2" x="170.8" y="312.8" textLength="12.2" clip-path="url(#terminal-3909667212-line-12)">*</text><text class="terminal-3909667212-r8" x="195.2" y="312.8" textLength="48.8" clip-path="url(#terminal-3909667212-line-12)">FROM</text><text class="terminal-3909667212-r2" x="256.2" y="312.8" textLength="268.4" clip-path="url(#terminal-3909667212-line-12)">core.archive_clear_dtl</text><text class="terminal-3909667212-r6" x="1244.4" y="312.8" textLength="12.2" clip-path="url(#terminal-3909667212-line-12)">│</text><text class="terminal-3909667212-r1" x="1268.8" y="312.8" textLength="12.2" clip-path="url(#terminal-3909667212-line-12)">
</text><text class="terminal-3909667212-r6" x="12.2" y="337.2" textLength="12.2" clip-path="url(#terminal-3909667212-line-13)">│</text><text class="terminal-3909667212-r7" x="61" y="337.2" textLength="24.4" clip-path="url(#terminal-3909667212-line-13)">8&#160;</text><text class="terminal-3909667212-r6" x="1244.4" y="337.2" textLength="12.2" clip-path="url(#terminal-3909667212-line-13)">│</text><text class="terminal-3909667212-r1" x="1268.8" y="337.2" textLength="12.2" clip-path="url(#terminal-3909667212-line-13)">
</text><text class="terminal-3909667212-r6" x="12.2" y="361.6" textLength="12.2" clip-path="url(#terminal-3909667212-line-14)">╰</text><text class="terminal-3909667212-r6" x="24.4" y="361.6" textLength="1220" clip-path="url(#terminal-3909667212-line-14)">────────────────────────────────────────────────────────────────────────────────────────────────────</text><text class="terminal-3909667212-r6" x="1244.4" y="361.6" textLength="12.2" clip-path="url(#terminal-3909667212-line-14)">╯</text><text class="terminal-3909667212-r1" x="1268.8" y="361.6" textLength="12.2" clip-path="url(#terminal-3909667212-line-14)">
</text><text class="terminal-3909667212-r1" x="1268.8" y="386" textLength="12.2" clip-path="url(#terminal-3909667212-line-15)">
</text><text class="terminal-3909667212-r4" x="12.2" y="410.4" textLength="195.2" clip-path="url(#terminal-3909667212-line-16)">Advisor&#160;findings</text><text class="terminal-3909667212-r3" x="219.6" y="410.4" textLength="378.2" clip-path="url(#terminal-3909667212-line-16)">·&#160;static&#160;analysis&#160;·&#160;manual&#160;v2.0</text><text class="terminal-3909667212-r1" x="1268.8" y="410.4" textLength="12.2" clip-path="url(#terminal-3909667212-line-16)">
</text><text class="terminal-3909667212-r13" x="0" y="434.8" textLength="61" clip-path="url(#terminal-3909667212-line-17)">error</text><text class="terminal-3909667212-r4" x="73.2" y="434.8" textLength="36.6" clip-path="url(#terminal-3909667212-line-17)">R07</text><text class="terminal-3909667212-r5" x="122" y="434.8" textLength="97.6" clip-path="url(#terminal-3909667212-line-17)">·&#160;G#3/#4</text><text class="terminal-3909667212-r2" x="219.6" y="434.8" textLength="963.8" clip-path="url(#terminal-3909667212-line-17)">&#160;&#160;[BROADCAST]&#160;hint&#160;found&#160;on&#160;shuffle-recommended&#160;core.cut_clear_dtl_enc&#160;(line&#160;3)</text><text class="terminal-3909667212-r1" x="1268.8" y="434.8" textLength="12.2" clip-path="url(#terminal-3909667212-line-17)">
</text><text class="terminal-3909667212-r5" x="73.2" y="459.2" textLength="841.8" clip-path="url(#terminal-3909667212-line-18)">-&gt;&#160;Use&#160;[SHUFFLE]&#160;per&#160;the&#160;recommended&#160;join-strategy&#160;list&#160;(2026-07-10).</text><text class="terminal-3909667212-r1" x="1268.8" y="459.2" textLength="12.2" clip-path="url(#terminal-3909667212-line-18)">
</text><text class="terminal-3909667212-r14" x="0" y="483.6" textLength="85.4" clip-path="url(#terminal-3909667212-line-19)">warning</text><text class="terminal-3909667212-r4" x="97.6" y="483.6" textLength="36.6" clip-path="url(#terminal-3909667212-line-19)">R02</text><text class="terminal-3909667212-r5" x="146.4" y="483.6" textLength="61" clip-path="url(#terminal-3909667212-line-19)">·&#160;G#1</text><text class="terminal-3909667212-r2" x="207.4" y="483.6" textLength="1012.6" clip-path="url(#terminal-3909667212-line-19)">&#160;&#160;No&#160;dw_process_date&#160;predicate&#160;found&#160;for&#160;core.cut_clear_dtl_enc&#160;in&#160;this&#160;query&#160;block</text><text class="terminal-3909667212-r1" x="1268.8" y="483.6" textLength="12.2" clip-path="url(#terminal-3909667212-line-19)">
</text><text class="terminal-3909667212-r5" x="73.2" y="508" textLength="634.4" clip-path="url(#terminal-3909667212-line-20)">-&gt;&#160;Add&#160;a&#160;dw_process_date&#160;filter&#160;to&#160;this&#160;query&#160;block.</text><text class="terminal-3909667212-r1" x="1268.8" y="508" textLength="12.2" clip-path="url(#terminal-3909667212-line-20)">
</text><text class="terminal-3909667212-r15" x="0" y="532.4" textLength="48.8" clip-path="url(#terminal-3909667212-line-21)">info</text><text class="terminal-3909667212-r4" x="61" y="532.4" textLength="36.6" clip-path="url(#terminal-3909667212-line-21)">R12</text><text class="terminal-3909667212-r5" x="109.8" y="532.4" textLength="48.8" clip-path="url(#terminal-3909667212-line-21)">·&#160;§8</text><text class="terminal-3909667212-r2" x="158.6" y="532.4" textLength="573.4" clip-path="url(#terminal-3909667212-line-21)">&#160;&#160;REGEXP&#160;operator&#160;found&#160;in&#160;a&#160;predicate&#160;(line&#160;5)</text><text class="terminal-3909667212-r1" x="1268.8" y="532.4" textLength="12.2" clip-path="url(#terminal-3909667212-line-21)">
</text><text class="terminal-3909667212-r5" x="73.2" y="556.8" textLength="671" clip-path="url(#terminal-3909667212-line-22)">-&gt;&#160;LIKE&#160;&#x27;ABC%&#x27;&#160;may&#160;suffice&#160;and&#160;avoids&#160;the&#160;regex&#160;engine.</text><text class="terminal-3909667212-r1" x="1268.8" y="556.8" textLength="12.2" clip-path="url(#terminal-3909667212-line-22)">
</text><text class="terminal-3909667212-r15" x="0" y="581.2" textLength="48.8" clip-path="url(#terminal-3909667212-line-23)">info</text><text class="terminal-3909667212-r4" x="61" y="581.2" textLength="36.6" clip-path="url(#terminal-3909667212-line-23)">R13</text><text class="terminal-3909667212-r5" x="109.8" y="581.2" textLength="48.8" clip-path="url(#terminal-3909667212-line-23)">·&#160;§8</text><text class="terminal-3909667212-r2" x="158.6" y="581.2" textLength="414.8" clip-path="url(#terminal-3909667212-line-23)">&#160;&#160;UNION&#160;without&#160;ALL&#160;found&#160;(line&#160;6)</text><text class="terminal-3909667212-r1" x="1268.8" y="581.2" textLength="12.2" clip-path="url(#terminal-3909667212-line-23)">
</text><text class="terminal-3909667212-r5" x="73.2" y="605.6" textLength="927.2" clip-path="url(#terminal-3909667212-line-24)">-&gt;&#160;UNION&#160;ALL&#160;avoids&#160;the&#160;deduplication&#160;overhead&#160;if&#160;duplicates&#160;are&#160;acceptable.</text><text class="terminal-3909667212-r1" x="1268.8" y="605.6" textLength="12.2" clip-path="url(#terminal-3909667212-line-24)">
</text><text class="terminal-3909667212-r16" x="0" y="630" textLength="1268.8" clip-path="url(#terminal-3909667212-line-25)">────────────────────────────────────────────────────────────────────────────────────────────────────────</text><text class="terminal-3909667212-r1" x="1268.8" y="630" textLength="12.2" clip-path="url(#terminal-3909667212-line-25)">
</text><text class="terminal-3909667212-r1" x="1268.8" y="654.4" textLength="12.2" clip-path="url(#terminal-3909667212-line-26)">
</text><text class="terminal-3909667212-r17" x="1098" y="678.8" textLength="146.4" clip-path="url(#terminal-3909667212-line-27)">▔▔▔▔▔▔▔▔▔▔▔▔</text><text class="terminal-3909667212-r1" x="1268.8" y="678.8" textLength="12.2" clip-path="url(#terminal-3909667212-line-27)">
</text><text class="terminal-3909667212-r18" x="24.4" y="703.2" textLength="170.8" clip-path="url(#terminal-3909667212-line-28)">Advisor:&#160;error</text><text class="terminal-3909667212-r19" x="207.4" y="703.2" textLength="378.2" clip-path="url(#terminal-3909667212-line-28)">(1&#160;error&#160;·&#160;1&#160;warning&#160;·&#160;2&#160;infos)</text><text class="terminal-3909667212-r20" x="1122.4" y="703.2" textLength="85.4" clip-path="url(#terminal-3909667212-line-28)">&#160;Back&#160;&#160;</text><text class="terminal-3909667212-r1" x="1268.8" y="703.2" textLength="12.2" clip-path="url(#terminal-3909667212-line-28)">
</text><text class="terminal-3909667212-r21" x="1098" y="727.6" textLength="146.4" clip-path="url(#terminal-3909667212-line-29)">▁▁▁▁▁▁▁▁▁▁▁▁</text><text class="terminal-3909667212-r1" x="1268.8" y="727.6" textLength="12.2" clip-path="url(#terminal-3909667212-line-29)">
</text><text class="terminal-3909667212-r1" x="1268.8" y="752" textLength="12.2" clip-path="url(#terminal-3909667212-line-30)">
</text><text class="terminal-3909667212-r22" x="0" y="776.4" textLength="36.6" clip-path="url(#terminal-3909667212-line-31)">&#160;b&#160;</text><text class="terminal-3909667212-r2" x="36.6" y="776.4" textLength="61" clip-path="url(#terminal-3909667212-line-31)">Back&#160;</text><text class="terminal-3909667212-r23" x="1122.4" y="776.4" textLength="12.2" clip-path="url(#terminal-3909667212-line-31)">▏</text><text class="terminal-3909667212-r22" x="1134.6" y="776.4" textLength="24.4" clip-path="url(#terminal-3909667212-line-31)">^p</text><text class="terminal-3909667212-r2" x="1159" y="776.4" textLength="97.6" clip-path="url(#terminal-3909667212-line-31)">&#160;palette</text>
    </g>
    </g>
</svg>
