<svg class="rich-terminal" viewBox="0 0 1287 830.8" xmlns="http://www.w3.org/2000/svg">
    <!-- Generated with Rich https://www.textualize.io -->
    <style>

    @font-face {
        font-family: "Fira Code";
        src: local("FiraCode-Regular"),
                url("https://cdnjs.cloudflare.com/ajax/libs/firacode/6.2.0/woff2/FiraCode-Regular.woff2") format("woff2"),
                url("https://cdnjs.cloudflare.com/ajax/libs/firacode/6.2.0/woff/FiraCode-Regular.woff") format("woff");
        font-style: normal;
        font-weight: 400;
    }
    @font-face {
        font-family: "Fira Code";
        src: local("FiraCode-Bold"),
                url("https://cdnjs.cloudflare.com/ajax/libs/firacode/6.2.0/woff2/FiraCode-Bold.woff2") format("woff2"),
                url("https://cdnjs.cloudflare.com/ajax/libs/firacode/6.2.0/woff/FiraCode-Bold.woff") format("woff");
        font-style: bold;
        font-weight: 700;
    }

    .terminal-4168411667-matrix {
        font-family: Fira Code, monospace;
        font-size: 20px;
        line-height: 24.4px;
        font-variant-east-asian: full-width;
    }

    .terminal-4168411667-title {
        font-size: 18px;
        font-weight: bold;
        font-family: arial;
    }

    .terminal-4168411667-r1 { fill: #595959 }
.terminal-4168411667-r2 { fill: #c5c8c6 }
.terminal-4168411667-r3 { fill: #363636;font-weight: bold }
.terminal-4168411667-r4 { fill: #e0e0e0 }
.terminal-4168411667-r5 { fill: #e0e0e0;font-weight: bold }
.terminal-4168411667-r6 { fill: #9e9e9e }
.terminal-4168411667-r7 { fill: #a5a5a5;font-weight: bold }
.terminal-4168411667-r8 { fill: #a5a5a5 }
.terminal-4168411667-r9 { fill: #838383 }
.terminal-4168411667-r10 { fill: #2d2d2d }
.terminal-4168411667-r11 { fill: #5f5f5f;font-weight: bold }
.terminal-4168411667-r12 { fill: #1c1c1c }
.terminal-4168411667-r13 { fill: #0d0d0d }
    </style>

    <defs>
    <clipPath id="terminal-4168411667-clip-terminal">
      <rect x="0" y="0" width="1267.8" height="779.8" />
    </clipPath>
    <clipPath id="terminal-4168411667-line-0">
    <rect x="0" y="1.5" width="1268.8" height="24.65"/>
            </clipPath>
<clipPath id="terminal-4168411667-line-1">
    <rect x="0" y="25.9" width="1268.8" height="24.65"/>
            </clipPath>
<clipPath id="terminal-4168411667-line-2">
    <rect x="0" y="50.3" width="1268.8" height="24.65"/>
            </clipPath>
<clipPath id="terminal-4168411667-line-3">
    <rect x="0" y="74.7" width="1268.8" height="24.65"/>
            </clipPath>
<clipPath id="terminal-4168411667-line-4">
    <rect x="0" y="99.1" width="1268.8" height="24.65"/>
            </clipPath>
<clipPath id="terminal-4168411667-line-5">
    <rect x="0" y="123.5" width="1268.8" height="24.65"/>
            </clipPath>
<clipPath id="terminal-4168411667-line-6">
    <rect x="0" y="147.9" width="1268.8" height="24.65"/>
            </clipPath>
<clipPath id="terminal-4168411667-line-7">
    <rect x="0" y="172.3" width="1268.8" height="24.65"/>
            </clipPath>
<clipPath id="terminal-4168411667-line-8">
    <rect x="0" y="196.7" width="1268.8" height="24.65"/>
            </clipPath>
<clipPath id="terminal-4168411667-line-9">
    <rect x="0" y="221.1" width="1268.8" height="24.65"/>
            </clipPath>
<clipPath id="terminal-4168411667-line-10">
    <rect x="0" y="245.5" width="1268.8" height="24.65"/>
            </clipPath>
<clipPath id="terminal-4168411667-line-11">
    <rect x="0" y="269.9" width="1268.8" height="24.65"/>
            </clipPath>
<clipPath id="terminal-4168411667-line-12">
    <rect x="0" y="294.3" width="1268.8" height="24.65"/>
            </clipPath>
<clipPath id="terminal-4168411667-line-13">
    <rect x="0" y="318.7" width="1268.8" height="24.65"/>
            </clipPath>
<clipPath id="terminal-4168411667-line-14">
    <rect x="0" y="343.1" width="1268.8" height="24.65"/>
            </clipPath>
<clipPath id="terminal-4168411667-line-15">
    <rect x="0" y="367.5" width="1268.8" height="24.65"/>
            </clipPath>
<clipPath id="terminal-4168411667-line-16">
    <rect x="0" y="391.9" width="1268.8" height="24.65"/>
            </clipPath>
<clipPath id="terminal-4168411667-line-17">
    <rect x="0" y="416.3" width="1268.8" height="24.65"/>
            </clipPath>
<clipPath id="terminal-4168411667-line-18">
    <rect x="0" y="440.7" width="1268.8" height="24.65"/>
            </clipPath>
<clipPath id="terminal-4168411667-line-19">
    <rect x="0" y="465.1" width="1268.8" height="24.65"/>
            </clipPath>
<clipPath id="terminal-4168411667-line-20">
    <rect x="0" y="489.5" width="1268.8" height="24.65"/>
            </clipPath>
<clipPath id="terminal-4168411667-line-21">
    <rect x="0" y="513.9" width="1268.8" height="24.65"/>
            </clipPath>
<clipPath id="terminal-4168411667-line-22">
    <rect x="0" y="538.3" width="1268.8" height="24.65"/>
            </clipPath>
<clipPath id="terminal-4168411667-line-23">
    <rect x="0" y="562.7" width="1268.8" height="24.65"/>
            </clipPath>
<clipPath id="terminal-4168411667-line-24">
    <rect x="0" y="587.1" width="1268.8" height="24.65"/>
            </clipPath>
<clipPath id="terminal-4168411667-line-25">
    <rect x="0" y="611.5" width="1268.8" height="24.65"/>
            </clipPath>
<clipPath id="terminal-4168411667-line-26">
    <rect x="0" y="635.9" width="1268.8" height="24.65"/>
            </clipPath>
<clipPath id="terminal-4168411667-line-27">
    <rect x="0" y="660.3" width="1268.8" height="24.65"/>
            </clipPath>
<clipPath id="terminal-4168411667-line-28">
    <rect x="0" y="684.7" width="1268.8" height="24.65"/>
            </clipPath>
<clipPath id="terminal-4168411667-line-29">
    <rect x="0" y="709.1" width="1268.8" height="24.65"/>
            </clipPath>
<clipPath id="terminal-4168411667-line-30">
    <rect x="0" y="733.5" width="1268.8" height="24.65"/>
            </clipPath>
    </defs>

    <rect fill="#292929" stroke="rgba(255,255,255,0.35)" stroke-width="1" x="1" y="1" width="1285" height="828.8" rx="8"/><text class="terminal-4168411667-title" fill="#c5c8c6" text-anchor="middle" x="642" y="27">Dispatch&#160;—&#160;advisor&#160;surface&#160;prototype</text>
            <g transform="translate(26,22)">
            <circle cx="0" cy="0" r="7" fill="#ff5f57"/>
            <circle cx="22" cy="0" r="7" fill="#febc2e"/>
            <circle cx="44" cy="0" r="7" fill="#28c840"/>
            </g>
        
    <g transform="translate(9, 41)" clip-path="url(#terminal-4168411667-clip-terminal)">
    <rect fill="#1e1e1e" x="0" y="1.5" width="12.2" height="24.65" shape-rendering="crispEdges"/><rect fill="#1e1e1e" x="12.2" y="1.5" width="756.4" height="24.65" shape-rendering="crispEdges"/><rect fill="#1e1e1e" x="768.6" y="1.5" width="12.2" height="24.65" shape-rendering="crispEdges"/><rect fill="#1e1e1e" x="780.8" y="1.5" width="488" height="24.65" shape-rendering="crispEdges"/><rect fill="#1e1e1e" x="0" y="25.9" width="12.2" height="24.65" shape-rendering="crispEdges"/><rect fill="#1e1e1e" x="12.2" y="25.9" width="756.4" height="24.65" shape-rendering="crispEdges"/><rect fill="#1e1e1e" x="768.6" y="25.9" width="12.2" height="24.65" shape-rendering="crispEdges"/><rect fill="#1e1e1e" x="780.8" y="25.9" width="488" height="24.65" shape-rendering="crispEdges"/><rect fill="#1e1e1e" x="0" y="50.3" width="12.2" height="24.65" shape-rendering="crispEdges"/><rect fill="#1e1e1e" x="12.2" y="50.3" width="24.4" height="24.65" shape-rendering="crispEdges"/><rect fill="#1e1e1e" x="36.6" y="50.3" width="341.6" height="24.65" shape-rendering="crispEdges"/><rect fill="#1e1e1e" x="378.2" y="50.3" width="366" height="24.65" shape-rendering="crispEdges"/><rect fill="#1e1e1e" x="744.2" y="50.3" width="24.4" height="24.65" shape-rendering="crispEdges"/><rect fill="#1e1e1e" x="768.6" y="50.3" width="12.2" height="24.65" shape-rendering="crispEdges"/><rect fill="#1e1e1e" x="780.8" y="50.3" width="488" height="24.65" shape-rendering="crispEdges"/><rect fill="#1e1e1e" x="0" y="74.7" width="12.2" height="24.65" shape-rendering="crispEdges"/><rect fill="#1e1e1e" x="12.2" y="74.7" width="24.4" height="24.65" shape-rendering="crispEdges"/><rect fill="#1e1e1e" x="36.6" y="74.7" width="707.6" height="24.65" shape-rendering="crispEdges"/><rect fill="#1e1e1e" x="744.2" y="74.7" width="24.4" height="24.65" shape-rendering="crispEdges"/><rect fill="#1e1e1e" x="768.6" y="74.7" width="12.2" height="24.65" shape-rendering="crispEdges"/><rect fill="#1e1e1e" x="780.8" y="74.7" width="488" height="24.65" shape-rendering="crispEdges"/><rect fill="#1e1e1e" x="0" y="99.1" width="12.2" height="24.65" shape-rendering="crispEdges"/><rect fill="#1e1e1e" x="12.2" y="99.1" width="24.4" height="24.65" shape-rendering="crispEdges"/><rect fill="#1e1e1e" x="36.6" y="99.1" width="61" height="24.65" shape-rendering="crispEdges"/><rect fill="#1e1e1e" x="97.6" y="99.1" width="12.2" height="24.65" shape-rendering="crispEdges"/><rect fill="#1e1e1e" x="109.8" y="99.1" width="36.6" height="24.65" shape-rendering="crispEdges"/><rect fill="#1e1e1e" x="146.4" y="99.1" width="12.2" height="24.65" shape-rendering="crispEdges"/><rect fill="#1e1e1e" x="158.6" y="99.1" width="97.6" height="24.65" shape-rendering="crispEdges"/><rect fill="#1e1e1e" x="256.2" y="99.1" width="329.4" height="24.65" shape-rendering="crispEdges"/><rect fill="#1e1e1e" x="585.6" y="99.1" width="158.6" height="24.65" shape-rendering="crispEdges"/><rect fill="#1e1e1e" x="744.2" y="99.1" width="24.4" height="24.65" shape-rendering="crispEdges"/><rect fill="#1e1e1e" x="768.6" y="99.1" width="12.2" height="24.65" shape-rendering="crispEdges"/><rect fill="#1e1e1e" x="780.8" y="99.1" width="488" height="24.65" shape-rendering="crispEdges"/><rect fill="#1e1e1e" x="0" y="123.5" width="12.2" height="24.65" shape-rendering="crispEdges"/><rect fill="#1e1e1e" x="12.2" y="123.5" width="24.4" height="24.65" shape-rendering="crispEdges"/><rect fill="#1e1e1e" x="36.6" y="123.5" width="622.2" height="24.65" shape-rendering="crispEdges"/><rect fill="#1e1e1e" x="658.8" y="123.5" width="85.4" height="24.65" shape-rendering="crispEdges"/><rect fill="#1e1e1e" x="744.2" y="123.5" width="24.4" height="24.65" shape-rendering="crispEdges"/><rect fill="#1e1e1e" x="768.6" y="123.5" width="12.2" height="24.65" shape-rendering="crispEdges"/><rect fill="#1e1e1e" x="780.8" y="123.5" width="488" height="24.65" shape-rendering="crispEdges"/><rect fill="#1e1e1e" x="0" y="147.9" width="12.2" height="24.65" shape-rendering="crispEdges"/><rect fill="#1e1e1e" x="12.2" y="147.9" width="24.4" height="24.65" shape-rendering="crispEdges"/><rect fill="#1e1e1e" x="36.6" y="147.9" width="73.2" height="24.65" shape-rendering="crispEdges"/><rect fill="#1e1e1e" x="109.8" y="147.9" width="610" height="24.65" shape-rendering="crispEdges"/><rect fill="#1e1e1e" x="719.8" y="147.9" width="24.4" height="24.65" shape-rendering="crispEdges"/><rect fill="#1e1e1e" x="744.2" y="147.9" width="24.4" height="24.65" shape-rendering="crispEdges"/><rect fill="#1e1e1e" x="768.6" y="147.9" width="12.2" height="24.65" shape-rendering="crispEdges"/><rect fill="#1e1e1e" x="780.8" y="147.9" width="488" height="24.65" shape-rendering="crispEdges"/><rect fill="#1e1e1e" x="0" y="172.3" width="12.2" height="24.65" shape-rendering="crispEdges"/><rect fill="#1e1e1e" x="12.2" y="172.3" width="24.4" height="24.65" shape-rendering="crispEdges"/><rect fill="#1e1e1e" x="36.6" y="172.3" width="219.6" height="24.65" shape-rendering="crispEdges"/><rect fill="#1e1e1e" x="256.2" y="172.3" width="488" height="24.65" shape-rendering="crispEdges"/><rect fill="#1e1e1e" x="744.2" y="172.3" width="24.4" height="24.65" shape-rendering="crispEdges"/><rect fill="#1e1e1e" x="768.6" y="172.3" width="12.2" height="24.65" shape-rendering="crispEdges"/><rect fill="#1e1e1e" x="780.8" y="172.3" width="488" height="24.65" shape-rendering="crispEdges"/><rect fill="#1e1e1e" x="0" y="196.7" width="12.2" height="24.65" shape-rendering="crispEdges"/><rect fill="#1e1e1e" x="12.2" y="196.7" width="24.4" height="24.65" shape-rendering="crispEdges"/><rect fill="#1e1e1e" x="36.6" y="196.7" width="0" height="24.65" shape-rendering="crispEdges"/><rect fill="#1e1e1e" x="36.6" y="196.7" width="707.6" height="24.65" shape-rendering="crispEdges"/><rect fill="#1e1e1e" x="744.2" y="196.7" width="24.4" height="24.65" shape-rendering="crispEdges"/><rect fill="#1e1e1e" x="768.6" y="196.7" width="12.2" height="24.65" shape-rendering="crispEdges"/><rect fill="#1e1e1e" x="780.8" y="196.7" width="488" height="24.65" shape-rendering="crispEdges"/><rect fill="#1e1e1e" x="0" y="221.1" width="12.2" height="24.65" shape-rendering="crispEdges"/><rect fill="#1e1e1e" x="12.2" y="221.1" width="24.4" height="24.65" shape-rendering="crispEdges"/><rect fill="#1e1e1e" x="36.6" y="221.1" width="634.4" height="24.65" shape-rendering="crispEdges"/><rect fill="#1e1e1e" x="671" y="221.1" width="73.2" height="24.65" shape-rendering="crispEdges"/><rect fill="#1e1e1e" x="744.2" y="221.1" width="24.4" height="24.65" shape-rendering="crispEdges"/><rect fill="#1e1e1e" x="768.6" y="221.1" width="12.2" height="24.65" shape-rendering="crispEdges"/><rect fill="#1e1e1e" x="780.8" y="221.1" width="488" height="24.65" shape-rendering="crispEdges"/><rect fill="#1e1e1e" x="0" y="245.5" width="12.2" height="24.65" shape-rendering="crispEdges"/><rect fill="#1e1e1e" x="12.2" y="245.5" width="24.4" height="24.65" shape-rendering="crispEdges"/><rect fill="#1e1e1e" x="36.6" y="245.5" width="146.4" height="24.65" shape-rendering="crispEdges"/><rect fill="#1e1e1e" x="183" y="245.5" width="561.2" height="24.65" shape-rendering="crispEdges"/><rect fill="#1e1e1e" x="744.2" y="245.5" width="24.4" height="24.65" shape-rendering="crispEdges"/><rect fill="#1e1e1e" x="768.6" y="245.5" width="12.2" height="24.65" shape-rendering="crispEdges"/><rect fill="#1e1e1e" x="780.8" y="245.5" width="488" height="24.65" shape-rendering="crispEdges"/><rect fill="#1e1e1e" x="0" y="269.9" width="12.2" height="24.65" shape-rendering="crispEdges"/><rect fill="#1e1e1e" x="12.2" y="269.9" width="24.4" height="24.65" shape-rendering="crispEdges"/><rect fill="#1e1e1e" x="36.6" y="269.9" width="707.6" height="24.65" shape-rendering="crispEdges"/><rect fill="#1e1e1e" x="744.2" y="269.9" width="24.4" height="24.65" shape-rendering="crispEdges"/><rect fill="#1e1e1e" x="768.6" y="269.9" width="12.2" height="24.65" shape-rendering="crispEdges"/><rect fill="#1e1e1e" x="780.8" y="269.9" width="488" height="24.65" shape-rendering="crispEdges"/><rect fill="#1e1e1e" x="0" y="294.3" width="12.2" height="24.65" shape-rendering="crispEdges"/><rect fill="#1e1e1e" x="12.2" y="294.3" width="24.4" height="24.65" shape-rendering="crispEdges"/><rect fill="#1e1e1e" x="36.6" y="294.3" width="12.2" height="24.65" shape-rendering="crispEdges"/><rect fill="#1e1e1e" x="48.8" y="294.3" width="219.6" height="24.65" shape-rendering="crispEdges"/><rect fill="#1e1e1e" x="268.4" y="294.3" width="12.2" height="24.65" shape-rendering="crispEdges"/><rect fill="#1e1e1e" x="280.6" y="294.3" width="48.8" height="24.65" shape-rendering="crispEdges"/><rect fill="#1e1e1e" x="329.4" y="294.3" width="36.6" height="24.65" shape-rendering="crispEdges"/><rect fill="#1e1e1e" x="366" y="294.3" width="109.8" height="24.65" shape-rendering="crispEdges"/><rect fill="#1e1e1e" x="475.8" y="294.3" width="268.4" height="24.65" shape-rendering="crispEdges"/><rect fill="#1e1e1e" x="744.2" y="294.3" width="24.4" height="24.65" shape-rendering="crispEdges"/><rect fill="#1e1e1e" x="768.6" y="294.3" width="12.2" height="24.65" shape-rendering="crispEdges"/><rect fill="#1e1e1e" x="780.8" y="294.3" width="488" height="24.65" shape-rendering="crispEdges"/><rect fill="#1e1e1e" x="0" y="318.7" width="12.2" height="24.65" shape-rendering="crispEdges"/><rect fill="#1e1e1e" x="12.2" y="318.7" width="24.4" height="24.65" shape-rendering="crispEdges"/><rect fill="#1e1e1e" x="36.6" y="318.7" width="707.6" height="24.65" shape-rendering="crispEdges"/><rect fill="#1e1e1e" x="744.2" y="318.7" width="24.4" height="24.65" shape-rendering="crispEdges"/><rect fill="#1e1e1e" x="768.6" y="318.7" width="12.2" height="24.65" shape-rendering="crispEdges"/><rect fill="#1e1e1e" x="780.8" y="318.7" width="488" height="24.65" shape-rendering="crispEdges"/><rect fill="#1e1e1e" x="0" y="343.1" width="12.2" height="24.65" shape-rendering="crispEdges"/><rect fill="#1e1e1e" x="12.2" y="343.1" width="24.4" height="24.65" shape-rendering="crispEdges"/><rect fill="#1e1e1e" x="36.6" y="343.1" width="707.6" height="24.65" shape-rendering="crispEdges"/><rect fill="#1e1e1e" x="744.2" y="343.1" width="24.4" height="24.65" shape-rendering="crispEdges"/><rect fill="#1e1e1e" x="768.6" y="343.1" width="12.2" height="24.65" shape-rendering="crispEdges"/><rect fill="#1e1e1e" x="780.8" y="343.1" width="488" height="24.65" shape-rendering="crispEdges"/><rect fill="#1e1e1e" x="0" y="367.5" width="12.2" height="24.65" shape-rendering="crispEdges"/><rect fill="#1e1e1e" x="12.2" y="367.5" width="24.4" height="24.65" shape-rendering="crispEdges"/><rect fill="#1e1e1e" x="36.6" y="367.5" width="146.4" height="24.65" shape-rendering="crispEdges"/><rect fill="#5f5f5f" x="183" y="367.5" width="195.2" height="24.65" shape-rendering="crispEdges"/><rect fill="#1e1e1e" x="378.2" y="367.5" width="12.2" height="24.65" shape-rendering="crispEdges"/><rect fill="#1e1e1e" x="390.4" y="367.5" width="195.2" height="24.65" shape-rendering="crispEdges"/><rect fill="#1e1e1e" x="585.6" y="367.5" width="158.6" height="24.65" shape-rendering="crispEdges"/><rect fill="#1e1e1e" x="744.2" y="367.5" width="24.4" height="24.65" shape-rendering="crispEdges"/><rect fill="#1e1e1e" x="768.6" y="367.5" width="12.2" height="24.65" shape-rendering="crispEdges"/><rect fill="#1e1e1e" x="780.8" y="367.5" width="488" height="24.65" shape-rendering="crispEdges"/><rect fill="#1e1e1e" x="0" y="391.9" width="12.2" height="24.65" shape-rendering="crispEdges"/><rect fill="#1e1e1e" x="12.2" y="391.9" width="24.4" height="24.65" shape-rendering="crispEdges"/><rect fill="#1e1e1e" x="36.6" y="391.9" width="146.4" height="24.65" shape-rendering="crispEdges"/><rect fill="#eaeaea" x="183" y="391.9" width="183" height="24.65" shape-rendering="crispEdges"/><rect fill="#5f5f5f" x="366" y="391.9" width="12.2" height="24.65" shape-rendering="crispEdges"/><rect fill="#1e1e1e" x="378.2" y="391.9" width="12.2" height="24.65" shape-rendering="crispEdges"/><rect fill="#1e1e1e" x="390.4" y="391.9" width="48.8" height="24.65" shape-rendering="crispEdges"/><rect fill="#1e1e1e" x="439.2" y="391.9" width="97.6" height="24.65" shape-rendering="crispEdges"/><rect fill="#1e1e1e" x="536.8" y="391.9" width="48.8" height="24.65" shape-rendering="crispEdges"/><rect fill="#1e1e1e" x="585.6" y="391.9" width="158.6" height="24.65" shape-rendering="crispEdges"/><rect fill="#1e1e1e" x="744.2" y="391.9" width="24.4" height="24.65" shape-rendering="crispEdges"/><rect fill="#1e1e1e" x="768.6" y="391.9" width="12.2" height="24.65" shape-rendering="crispEdges"/><rect fill="#1e1e1e" x="780.8" y="391.9" width="488" height="24.65" shape-rendering="crispEdges"/><rect fill="#1e1e1e" x="0" y="416.3" width="12.2" height="24.65" shape-rendering="crispEdges"/><rect fill="#1e1e1e" x="12.2" y="416.3" width="24.4" height="24.65" shape-rendering="crispEdges"/><rect fill="#1e1e1e" x="36.6" y="416.3" width="146.4" height="24.65" shape-rendering="crispEdges"/><rect fill="#5f5f5f" x="183" y="416.3" width="195.2" height="24.65" shape-rendering="crispEdges"/><rect fill="#1e1e1e" x="378.2" y="416.3" width="12.2" height="24.65" shape-rendering="crispEdges"/><rect fill="#1e1e1e" x="390.4" y="416.3" width="195.2" height="24.65" shape-rendering="crispEdges"/><rect fill="#1e1e1e" x="585.6" y="416.3" width="158.6" height="24.65" shape-rendering="crispEdges"/><rect fill="#1e1e1e" x="744.2" y="416.3" width="24.4" height="24.65" shape-rendering="crispEdges"/><rect fill="#1e1e1e" x="768.6" y="416.3" width="12.2" height="24.65" shape-rendering="crispEdges"/><rect fill="#1e1e1e" x="780.8" y="416.3" width="488" height="24.65" shape-rendering="crispEdges"/><rect fill="#1e1e1e" x="0" y="440.7" width="12.2" height="24.65" shape-rendering="crispEdges"/><rect fill="#1e1e1e" x="12.2" y="440.7" width="756.4" height="24.65" shape-rendering="crispEdges"/><rect fill="#1e1e1e" x="768.6" y="440.7" width="12.2" height="24.65" shape-rendering="crispEdges"/><rect fill="#1e1e1e" x="780.8" y="440.7" width="488" height="24.65" shape-rendering="crispEdges"/><rect fill="#1e1e1e" x="0" y="465.1" width="12.2" height="24.65" shape-rendering="crispEdges"/><rect fill="#1e1e1e" x="12.2" y="465.1" width="756.4" height="24.65" shape-rendering="crispEdges"/><rect fill="#1e1e1e" x="768.6" y="465.1" width="12.2" height="24.65" shape-rendering="crispEdges"/><rect fill="#1e1e1e" x="780.8" y="465.1" width="488" height="24.65" shape-rendering="crispEdges"/><rect fill="#1e1e1e" x="0" y="489.5" width="1268.8" height="24.65" shape-rendering="crispEdges"/><rect fill="#1e1e1e" x="0" y="513.9" width="1268.8" height="24.65" shape-rendering="crispEdges"/><rect fill="#1e1e1e" x="0" y="538.3" width="1268.8" height="24.65" shape-rendering="crispEdges"/><rect fill="#1e1e1e" x="0" y="562.7" width="1268.8" height="24.65" shape-rendering="crispEdges"/><rect fill="#1e1e1e" x="0" y="587.1" width="1268.8" height="24.65" shape-rendering="crispEdges"/><rect fill="#1e1e1e" x="0" y="611.5" width="1268.8" height="24.65" shape-rendering="crispEdges"/><rect fill="#1e1e1e" x="0" y="635.9" width="1268.8" height="24.65" shape-rendering="crispEdges"/><rect fill="#1e1e1e" x="0" y="660.3" width="1268.8" height="24.65" shape-rendering="crispEdges"/><rect fill="#1e1e1e" x="0" y="684.7" width="1268.8" height="24.65" shape-rendering="crispEdges"/><rect fill="#1e1e1e" x="0" y="709.1" width="1268.8" height="24.65" shape-rendering="crispEdges"/><rect fill="#1e1e1e" x="0" y="733.5" width="1268.8" height="24.65" shape-rendering="crispEdges"/><rect fill="#1e1e1e" x="0" y="757.9" width="1268.8" height="24.65" shape-rendering="crispEdges"/>
    <g class="terminal-4168411667-matrix">
    <text class="terminal-4168411667-r1" x="0" y="20" textLength="12.2" clip-path="url(#terminal-4168411667-line-0)">╔</text><text class="terminal-4168411667-r1" x="12.2" y="20" textLength="756.4" clip-path="url(#terminal-4168411667-line-0)">══════════════════════════════════════════════════════════════</text><text class="terminal-4168411667-r1" x="768.6" y="20" textLength="12.2" clip-path="url(#terminal-4168411667-line-0)">╗</text><text class="terminal-4168411667-r2" x="1268.8" y="20" textLength="12.2" clip-path="url(#terminal-4168411667-line-0)">
</text><text class="terminal-4168411667-r1" x="0" y="44.4" textLength="12.2" clip-path="url(#terminal-4168411667-line-1)">║</text><text class="terminal-4168411667-r1" x="768.6" y="44.4" textLength="12.2" clip-path="url(#terminal-4168411667-line-1)">║</text><text class="terminal-4168411667-r2" x="1268.8" y="44.4" textLength="12.2" clip-path="url(#terminal-4168411667-line-1)">
</text><text class="terminal-4168411667-r1" x="0" y="68.8" textLength="12.2" clip-path="url(#terminal-4168411667-line-2)">║</text><text class="terminal-4168411667-r3" x="36.6" y="68.8" textLength="341.6" clip-path="url(#terminal-4168411667-line-2)">Advisor&#160;found&#160;error&#160;findings</text><text class="terminal-4168411667-r1" x="768.6" y="68.8" textLength="12.2" clip-path="url(#terminal-4168411667-line-2)">║</text><text class="terminal-4168411667-r2" x="1268.8" y="68.8" textLength="12.2" clip-path="url(#terminal-4168411667-line-2)">
</text><text class="terminal-4168411667-r1" x="0" y="93.2" textLength="12.2" clip-path="url(#terminal-4168411667-line-3)">║</text><text class="terminal-4168411667-r1" x="768.6" y="93.2" textLength="12.2" clip-path="url(#terminal-4168411667-line-3)">║</text><text class="terminal-4168411667-r2" x="1268.8" y="93.2" textLength="12.2" clip-path="url(#terminal-4168411667-line-3)">
</text><text class="terminal-4168411667-r1" x="0" y="117.6" textLength="12.2" clip-path="url(#terminal-4168411667-line-4)">║</text><text class="terminal-4168411667-r3" x="36.6" y="117.6" textLength="61" clip-path="url(#terminal-4168411667-line-4)">error</text><text class="terminal-4168411667-r5" x="109.8" y="117.6" textLength="36.6" clip-path="url(#terminal-4168411667-line-4)">R07</text><text class="terminal-4168411667-r6" x="158.6" y="117.6" textLength="97.6" clip-path="url(#terminal-4168411667-line-4)">·&#160;G#3/#4</text><text class="terminal-4168411667-r4" x="256.2" y="117.6" textLength="329.4" clip-path="url(#terminal-4168411667-line-4)">&#160;&#160;[BROADCAST]&#160;hint&#160;found&#160;on</text><text class="terminal-4168411667-r1" x="768.6" y="117.6" textLength="12.2" clip-path="url(#terminal-4168411667-line-4)">║</text><text class="terminal-4168411667-r2" x="1268.8" y="117.6" textLength="12.2" clip-path="url(#terminal-4168411667-line-4)">
</text><text class="terminal-4168411667-r1" x="0" y="142" textLength="12.2" clip-path="url(#terminal-4168411667-line-5)">║</text><text class="terminal-4168411667-r4" x="36.6" y="142" textLength="622.2" clip-path="url(#terminal-4168411667-line-5)">shuffle-recommended&#160;core.cut_clear_dtl_enc&#160;(line&#160;3)</text><text class="terminal-4168411667-r1" x="768.6" y="142" textLength="12.2" clip-path="url(#terminal-4168411667-line-5)">║</text><text class="terminal-4168411667-r2" x="1268.8" y="142" textLength="12.2" clip-path="url(#terminal-4168411667-line-5)">
</text><text class="terminal-4168411667-r1" x="0" y="166.4" textLength="12.2" clip-path="url(#terminal-4168411667-line-6)">║</text><text class="terminal-4168411667-r6" x="109.8" y="166.4" textLength="610" clip-path="url(#terminal-4168411667-line-6)">-&gt;&#160;Use&#160;[SHUFFLE]&#160;per&#160;the&#160;recommended&#160;join-strategy</text><text class="terminal-4168411667-r1" x="768.6" y="166.4" textLength="12.2" clip-path="url(#terminal-4168411667-line-6)">║</text><text class="terminal-4168411667-r2" x="1268.8" y="166.4" textLength="12.2" clip-path="url(#terminal-4168411667-line-6)">
</text><text class="terminal-4168411667-r1" x="0" y="190.8" textLength="12.2" clip-path="url(#terminal-4168411667-line-7)">║</text><text class="terminal-4168411667-r6" x="36.6" y="190.8" textLength="219.6" clip-path="url(#terminal-4168411667-line-7)">list&#160;(2026-07-10).</text><text class="terminal-4168411667-r1" x="768.6" y="190.8" textLength="12.2" clip-path="url(#terminal-4168411667-line-7)">║</text><text class="terminal-4168411667-r2" x="1268.8" y="190.8" textLength="12.2" clip-path="url(#terminal-4168411667-line-7)">
</text><text class="terminal-4168411667-r1" x="0" y="215.2" textLength="12.2" clip-path="url(#terminal-4168411667-line-8)">║</text><text class="terminal-4168411667-r1" x="768.6" y="215.2" textLength="12.2" clip-path="url(#terminal-4168411667-line-8)">║</text><text class="terminal-4168411667-r2" x="1268.8" y="215.2" textLength="12.2" clip-path="url(#terminal-4168411667-line-8)">
</text><text class="terminal-4168411667-r1" x="0" y="239.6" textLength="12.2" clip-path="url(#terminal-4168411667-line-9)">║</text><text class="terminal-4168411667-r6" x="36.6" y="239.6" textLength="634.4" clip-path="url(#terminal-4168411667-line-9)">The&#160;SQL&#160;launches&#160;exactly&#160;as&#160;written&#160;—&#160;Dispatch&#160;never</text><text class="terminal-4168411667-r1" x="768.6" y="239.6" textLength="12.2" clip-path="url(#terminal-4168411667-line-9)">║</text><text class="terminal-4168411667-r2" x="1268.8" y="239.6" textLength="12.2" clip-path="url(#terminal-4168411667-line-9)">
</text><text class="terminal-4168411667-r1" x="0" y="264" textLength="12.2" clip-path="url(#terminal-4168411667-line-10)">║</text><text class="terminal-4168411667-r6" x="36.6" y="264" textLength="146.4" clip-path="url(#terminal-4168411667-line-10)">rewrites&#160;it.</text><text class="terminal-4168411667-r1" x="768.6" y="264" textLength="12.2" clip-path="url(#terminal-4168411667-line-10)">║</text><text class="terminal-4168411667-r2" x="1268.8" y="264" textLength="12.2" clip-path="url(#terminal-4168411667-line-10)">
</text><text class="terminal-4168411667-r1" x="0" y="288.4" textLength="12.2" clip-path="url(#terminal-4168411667-line-11)">║</text><text class="terminal-4168411667-r1" x="768.6" y="288.4" textLength="12.2" clip-path="url(#terminal-4168411667-line-11)">║</text><text class="terminal-4168411667-r2" x="1268.8" y="288.4" textLength="12.2" clip-path="url(#terminal-4168411667-line-11)">
</text><text class="terminal-4168411667-r1" x="0" y="312.8" textLength="12.2" clip-path="url(#terminal-4168411667-line-12)">║</text><text class="terminal-4168411667-r7" x="36.6" y="312.8" textLength="12.2" clip-path="url(#terminal-4168411667-line-12)">Y</text><text class="terminal-4168411667-r8" x="48.8" y="312.8" textLength="219.6" clip-path="url(#terminal-4168411667-line-12)">&#160;launches&#160;anyway;&#160;</text><text class="terminal-4168411667-r7" x="268.4" y="312.8" textLength="12.2" clip-path="url(#terminal-4168411667-line-12)">N</text><text class="terminal-4168411667-r8" x="280.6" y="312.8" textLength="48.8" clip-path="url(#terminal-4168411667-line-12)">&#160;or&#160;</text><text class="terminal-4168411667-r7" x="329.4" y="312.8" textLength="36.6" clip-path="url(#terminal-4168411667-line-12)">Esc</text><text class="terminal-4168411667-r8" x="366" y="312.8" textLength="109.8" clip-path="url(#terminal-4168411667-line-12)">&#160;cancels.</text><text class="terminal-4168411667-r1" x="768.6" y="312.8" textLength="12.2" clip-path="url(#terminal-4168411667-line-12)">║</text><text class="terminal-4168411667-r2" x="1268.8" y="312.8" textLength="12.2" clip-path="url(#terminal-4168411667-line-12)">
</text><text class="terminal-4168411667-r1" x="0" y="337.2" textLength="12.2" clip-path="url(#terminal-4168411667-line-13)">║</text><text class="terminal-4168411667-r1" x="768.6" y="337.2" textLength="12.2" clip-path="url(#terminal-4168411667-line-13)">║</text><text class="terminal-4168411667-r2" x="1268.8" y="337.2" textLength="12.2" clip-path="url(#terminal-4168411667-line-13)">
</text><text class="terminal-4168411667-r1" x="0" y="361.6" textLength="12.2" clip-path="url(#terminal-4168411667-line-14)">║</text><text class="terminal-4168411667-r1" x="768.6" y="361.6" textLength="12.2" clip-path="url(#terminal-4168411667-line-14)">║</text><text class="terminal-4168411667-r2" x="1268.8" y="361.6" textLength="12.2" clip-path="url(#terminal-4168411667-line-14)">
</text><text class="terminal-4168411667-r1" x="0" y="386" textLength="12.2" clip-path="url(#terminal-4168411667-line-15)">║</text><text class="terminal-4168411667-r9" x="183" y="386" textLength="195.2" clip-path="url(#terminal-4168411667-line-15)">▔▔▔▔▔▔▔▔▔▔▔▔▔▔▔▔</text><text class="terminal-4168411667-r10" x="390.4" y="386" textLength="195.2" clip-path="url(#terminal-4168411667-line-15)">▔▔▔▔▔▔▔▔▔▔▔▔▔▔▔▔</text><text class="terminal-4168411667-r1" x="768.6" y="386" textLength="12.2" clip-path="url(#terminal-4168411667-line-15)">║</text><text class="terminal-4168411667-r2" x="1268.8" y="386" textLength="12.2" clip-path="url(#terminal-4168411667-line-15)">
</text><text class="terminal-4168411667-r1" x="0" y="410.4" textLength="12.2" clip-path="url(#terminal-4168411667-line-16)">║</text><text class="terminal-4168411667-r11" x="183" y="410.4" textLength="183" clip-path="url(#terminal-4168411667-line-16)">&#160;Launch&#160;anyway&#160;</text><text class="terminal-4168411667-r5" x="439.2" y="410.4" textLength="97.6" clip-path="url(#terminal-4168411667-line-16)">&#160;Cancel&#160;</text><text class="terminal-4168411667-r1" x="768.6" y="410.4" textLength="12.2" clip-path="url(#terminal-4168411667-line-16)">║</text><text class="terminal-4168411667-r2" x="1268.8" y="410.4" textLength="12.2" clip-path="url(#terminal-4168411667-line-16)">
</text><text class="terminal-4168411667-r1" x="0" y="434.8" textLength="12.2" clip-path="url(#terminal-4168411667-line-17)">║</text><text class="terminal-4168411667-r12" x="183" y="434.8" textLength="195.2" clip-path="url(#terminal-4168411667-line-17)">▁▁▁▁▁▁▁▁▁▁▁▁▁▁▁▁</text><text class="terminal-4168411667-r13" x="390.4" y="434.8" textLength="195.2" clip-path="url(#terminal-4168411667-line-17)">▁▁▁▁▁▁▁▁▁▁▁▁▁▁▁▁</text><text class="terminal-4168411667-r1" x="768.6" y="434.8" textLength="12.2" clip-path="url(#terminal-4168411667-line-17)">║</text><text class="terminal-4168411667-r2" x="1268.8" y="434.8" textLength="12.2" clip-path="url(#terminal-4168411667-line-17)">
</text><text class="terminal-4168411667-r1" x="0" y="459.2" textLength="12.2" clip-path="url(#terminal-4168411667-line-18)">║</text><text class="terminal-4168411667-r1" x="768.6" y="459.2" textLength="12.2" clip-path="url(#terminal-4168411667-line-18)">║</text><text class="terminal-4168411667-r2" x="1268.8" y="459.2" textLength="12.2" clip-path="url(#terminal-4168411667-line-18)">
</text><text class="terminal-4168411667-r1" x="0" y="483.6" textLength="12.2" clip-path="url(#terminal-4168411667-line-19)">╚</text><text class="terminal-4168411667-r1" x="12.2" y="483.6" textLength="756.4" clip-path="url(#terminal-4168411667-line-19)">══════════════════════════════════════════════════════════════</text><text class="terminal-4168411667-r1" x="768.6" y="483.6" textLength="12.2" clip-path="url(#terminal-4168411667-line-19)">╝</text><text class="terminal-4168411667-r2" x="1268.8" y="483.6" textLength="12.2" clip-path="url(#terminal-4168411667-line-19)">
</text><text class="terminal-4168411667-r2" x="1268.8" y="508" textLength="12.2" clip-path="url(#terminal-4168411667-line-20)">
</text><text class="terminal-4168411667-r2" x="1268.8" y="532.4" textLength="12.2" clip-path="url(#terminal-4168411667-line-21)">
</text><text class="terminal-4168411667-r2" x="1268.8" y="556.8" textLength="12.2" clip-path="url(#terminal-4168411667-line-22)">
</text><text class="terminal-4168411667-r2" x="1268.8" y="581.2" textLength="12.2" clip-path="url(#terminal-4168411667-line-23)">
</text><text class="terminal-4168411667-r2" x="1268.8" y="605.6" textLength="12.2" clip-path="url(#terminal-4168411667-line-24)">
</text><text class="terminal-4168411667-r2" x="1268.8" y="630" textLength="12.2" clip-path="url(#terminal-4168411667-line-25)">
</text><text class="terminal-4168411667-r2" x="1268.8" y="654.4" textLength="12.2" clip-path="url(#terminal-4168411667-line-26)">
</text><text class="terminal-4168411667-r2" x="1268.8" y="678.8" textLength="12.2" clip-path="url(#terminal-4168411667-line-27)">
</text><text class="terminal-4168411667-r2" x="1268.8" y="703.2" textLength="12.2" clip-path="url(#terminal-4168411667-line-28)">
</text><text class="terminal-4168411667-r2" x="1268.8" y="727.6" textLength="12.2" clip-path="url(#terminal-4168411667-line-29)">
</text><text class="terminal-4168411667-r2" x="1268.8" y="752" textLength="12.2" clip-path="url(#terminal-4168411667-line-30)">
</text>
    </g>
    </g>
</svg>
