<svg class="rich-terminal" viewBox="0 0 994 635.5999999999999" xmlns="http://www.w3.org/2000/svg">
    <!-- Generated with Rich https://www.textualize.io -->
    <style>

    @font-face {
        font-family: "Fira Code";
        src: local("FiraCode-Regular"),
                url("https://cdnjs.cloudflare.com/ajax/libs/firacode/6.2.0/woff2/FiraCode-Regular.woff2") format("woff2"),
                url("https://cdnjs.cloudflare.com/ajax/libs/firacode/6.2.0/woff/FiraCode-Regular.woff") format("woff");
        font-style: normal;
        font-weight: 400;
    }
    @font-face {
        font-family: "Fira Code";
        src: local("FiraCode-Bold"),
                url("https://cdnjs.cloudflare.com/ajax/libs/firacode/6.2.0/woff2/FiraCode-Bold.woff2") format("woff2"),
                url("https://cdnjs.cloudflare.com/ajax/libs/firacode/6.2.0/woff/FiraCode-Bold.woff") format("woff");
        font-style: bold;
        font-weight: 700;
    }

    .terminal-4119386702-matrix {
        font-family: Fira Code, monospace;
        font-size: 20px;
        line-height: 24.4px;
        font-variant-east-asian: full-width;
    }

    .terminal-4119386702-title {
        font-size: 18px;
        font-weight: bold;
        font-family: arial;
    }

    .terminal-4119386702-r1 { fill: #c5c8c6 }
.terminal-4119386702-r2 { fill: #e0e0e0 }
.terminal-4119386702-r3 { fill: #9e9e9e;font-weight: bold }
.terminal-4119386702-r4 { fill: #e0e0e0;font-weight: bold }
.terminal-4119386702-r5 { fill: #9e9e9e }
.terminal-4119386702-r6 { fill: #2f2f2f }
.terminal-4119386702-r7 { fill: #a1a1a1 }
.terminal-4119386702-r8 { fill: #7c7c7c }
.terminal-4119386702-r9 { fill: #5e5e5e }
.terminal-4119386702-r10 { fill: #a4a4a4 }
.terminal-4119386702-r11 { fill: #272727 }
.terminal-4119386702-r12 { fill: #363636;font-weight: bold }
.terminal-4119386702-r13 { fill: #1e1e1e }
.terminal-4119386702-r14 { fill: #a9a9a9 }
.terminal-4119386702-r15 { fill: #363636 }
.terminal-4119386702-r16 { fill: #6c6c6c }
.terminal-4119386702-r17 { fill: #eaeaea;font-weight: bold }
.terminal-4119386702-r18 { fill: #3a3a3a }
.terminal-4119386702-r19 { fill: #b0b0b0;font-weight: bold }
.terminal-4119386702-r20 { fill: #515151 }
    </style>

    <defs>
    <clipPath id="terminal-4119386702-clip-terminal">
      <rect x="0" y="0" width="975.0" height="584.5999999999999" />
    </clipPath>
    <clipPath id="terminal-4119386702-line-0">
    <rect x="0" y="1.5" width="976" height="24.65"/>
            </clipPath>
<clipPath id="terminal-4119386702-line-1">
    <rect x="0" y="25.9" width="976" height="24.65"/>
            </clipPath>
<clipPath id="terminal-4119386702-line-2">
    <rect x="0" y="50.3" width="976" height="24.65"/>
            </clipPath>
<clipPath id="terminal-4119386702-line-3">
    <rect x="0" y="74.7" width="976" height="24.65"/>
            </clipPath>
<clipPath id="terminal-4119386702-line-4">
    <rect x="0" y="99.1" width="976" height="24.65"/>
            </clipPath>
<clipPath id="terminal-4119386702-line-5">
    <rect x="0" y="123.5" width="976" height="24.65"/>
            </clipPath>
<clipPath id="terminal-4119386702-line-6">
    <rect x="0" y="147.9" width="976" height="24.65"/>
            </clipPath>
<clipPath id="terminal-4119386702-line-7">
    <rect x="0" y="172.3" width="976" height="24.65"/>
            </clipPath>
<clipPath id="terminal-4119386702-line-8">
    <rect x="0" y="196.7" width="976" height="24.65"/>
            </clipPath>
<clipPath id="terminal-4119386702-line-9">
    <rect x="0" y="221.1" width="976" height="24.65"/>
            </clipPath>
<clipPath id="terminal-4119386702-line-10">
    <rect x="0" y="245.5" width="976" height="24.65"/>
            </clipPath>
<clipPath id="terminal-4119386702-line-11">
    <rect x="0" y="269.9" width="976" height="24.65"/>
            </clipPath>
<clipPath id="terminal-4119386702-line-12">
    <rect x="0" y="294.3" width="976" height="24.65"/>
            </clipPath>
<clipPath id="terminal-4119386702-line-13">
    <rect x="0" y="318.7" width="976" height="24.65"/>
            </clipPath>
<clipPath id="terminal-4119386702-line-14">
    <rect x="0" y="343.1" width="976" height="24.65"/>
            </clipPath>
<clipPath id="terminal-4119386702-line-15">
    <rect x="0" y="367.5" width="976" height="24.65"/>
            </clipPath>
<clipPath id="terminal-4119386702-line-16">
    <rect x="0" y="391.9" width="976" height="24.65"/>
            </clipPath>
<clipPath id="terminal-4119386702-line-17">
    <rect x="0" y="416.3" width="976" height="24.65"/>
            </clipPath>
<clipPath id="terminal-4119386702-line-18">
    <rect x="0" y="440.7" width="976" height="24.65"/>
            </clipPath>
<clipPath id="terminal-4119386702-line-19">
    <rect x="0" y="465.1" width="976" height="24.65"/>
            </clipPath>
<clipPath id="terminal-4119386702-line-20">
    <rect x="0" y="489.5" width="976" height="24.65"/>
            </clipPath>
<clipPath id="terminal-4119386702-line-21">
    <rect x="0" y="513.9" width="976" height="24.65"/>
            </clipPath>
<clipPath id="terminal-4119386702-line-22">
    <rect x="0" y="538.3" width="976" height="24.65"/>
            </clipPath>
    </defs>

    <rect fill="#292929" stroke="rgba(255,255,255,0.35)" stroke-width="1" x="1" y="1" width="992" height="633.6" rx="8"/><text class="terminal-4119386702-title" fill="#c5c8c6" text-anchor="middle" x="496" y="27">Dispatch&#160;—&#160;advisor&#160;surface&#160;prototype</text>
            <g transform="translate(26,22)">
            <circle cx="0" cy="0" r="7" fill="#ff5f57"/>
            <circle cx="22" cy="0" r="7" fill="#febc2e"/>
            <circle cx="44" cy="0" r="7" fill="#28c840"/>
            </g>
        
    <g transform="translate(9, 41)" clip-path="url(#terminal-4119386702-clip-terminal)">
    <rect fill="#2d2d2d" x="0" y="1.5" width="12.2" height="24.65" shape-rendering="crispEdges"/><rect fill="#2d2d2d" x="12.2" y="1.5" width="12.2" height="24.65" shape-rendering="crispEdges"/><rect fill="#2d2d2d" x="24.4" y="1.5" width="61" height="24.65" shape-rendering="crispEdges"/><rect fill="#2d2d2d" x="85.4" y="1.5" width="12.2" height="24.65" shape-rendering="crispEdges"/><rect fill="#2d2d2d" x="97.6" y="1.5" width="158.6" height="24.65" shape-rendering="crispEdges"/><rect fill="#2d2d2d" x="256.2" y="1.5" width="439.2" height="24.65" shape-rendering="crispEdges"/><rect fill="#2d2d2d" x="695.4" y="1.5" width="158.6" height="24.65" shape-rendering="crispEdges"/><rect fill="#2d2d2d" x="854" y="1.5" width="12.2" height="24.65" shape-rendering="crispEdges"/><rect fill="#2d2d2d" x="866.2" y="1.5" width="0" height="24.65" shape-rendering="crispEdges"/><rect fill="#2d2d2d" x="866.2" y="1.5" width="97.6" height="24.65" shape-rendering="crispEdges"/><rect fill="#2d2d2d" x="963.8" y="1.5" width="12.2" height="24.65" shape-rendering="crispEdges"/><rect fill="#1e1e1e" x="0" y="25.9" width="976" height="24.65" shape-rendering="crispEdges"/><rect fill="#1e1e1e" x="0" y="50.3" width="12.2" height="24.65" shape-rendering="crispEdges"/><rect fill="#1e1e1e" x="12.2" y="50.3" width="134.2" height="24.65" shape-rendering="crispEdges"/><rect fill="#1e1e1e" x="146.4" y="50.3" width="12.2" height="24.65" shape-rendering="crispEdges"/><rect fill="#1e1e1e" x="158.6" y="50.3" width="366" height="24.65" shape-rendering="crispEdges"/><rect fill="#1e1e1e" x="524.6" y="50.3" width="439.2" height="24.65" shape-rendering="crispEdges"/><rect fill="#1e1e1e" x="963.8" y="50.3" width="12.2" height="24.65" shape-rendering="crispEdges"/><rect fill="#0d0d0d" x="0" y="74.7" width="976" height="24.65" shape-rendering="crispEdges"/><rect fill="#0d0d0d" x="0" y="99.1" width="24.4" height="24.65" shape-rendering="crispEdges"/><rect fill="#0d0d0d" x="24.4" y="99.1" width="85.4" height="24.65" shape-rendering="crispEdges"/><rect fill="#0d0d0d" x="109.8" y="99.1" width="280.6" height="24.65" shape-rendering="crispEdges"/><rect fill="#0d0d0d" x="390.4" y="99.1" width="97.6" height="24.65" shape-rendering="crispEdges"/><rect fill="#0d0d0d" x="488" y="99.1" width="280.6" height="24.65" shape-rendering="crispEdges"/><rect fill="#0d0d0d" x="768.6" y="99.1" width="183" height="24.65" shape-rendering="crispEdges"/><rect fill="#0d0d0d" x="951.6" y="99.1" width="24.4" height="24.65" shape-rendering="crispEdges"/><rect fill="#0d0d0d" x="0" y="123.5" width="976" height="24.65" shape-rendering="crispEdges"/><rect fill="#1e1e1e" x="0" y="147.9" width="12.2" height="24.65" shape-rendering="crispEdges"/><rect fill="#1e1e1e" x="12.2" y="147.9" width="12.2" height="24.65" shape-rendering="crispEdges"/><rect fill="#1e1e1e" x="24.4" y="147.9" width="927.2" height="24.65" shape-rendering="crispEdges"/><rect fill="#1e1e1e" x="951.6" y="147.9" width="12.2" height="24.65" shape-rendering="crispEdges"/><rect fill="#1e1e1e" x="963.8" y="147.9" width="12.2" height="24.65" shape-rendering="crispEdges"/><rect fill="#1e1e1e" x="0" y="172.3" width="12.2" height="24.65" shape-rendering="crispEdges"/><rect fill="#1e1e1e" x="12.2" y="172.3" width="12.2" height="24.65" shape-rendering="crispEdges"/><rect fill="#272727" x="24.4" y="172.3" width="12.2" height="24.65" shape-rendering="crispEdges"/><rect fill="#272727" x="36.6" y="172.3" width="24.4" height="24.65" shape-rendering="crispEdges"/><rect fill="#272727" x="61" y="172.3" width="24.4" height="24.65" shape-rendering="crispEdges"/><rect fill="#0c0c0c" x="85.4" y="172.3" width="61" height="24.65" shape-rendering="crispEdges"/><rect fill="#0c0c0c" x="146.4" y="172.3" width="12.2" height="24.65" shape-rendering="crispEdges"/><rect fill="#0c0c0c" x="158.6" y="172.3" width="207.4" height="24.65" shape-rendering="crispEdges"/><rect fill="#0c0c0c" x="366" y="172.3" width="12.2" height="24.65" shape-rendering="crispEdges"/><rect fill="#0c0c0c" x="378.2" y="172.3" width="73.2" height="24.65" shape-rendering="crispEdges"/><rect fill="#0c0c0c" x="451.4" y="172.3" width="12.2" height="24.65" shape-rendering="crispEdges"/><rect fill="#0c0c0c" x="463.6" y="172.3" width="97.6" height="24.65" shape-rendering="crispEdges"/><rect fill="#272727" x="561.2" y="172.3" width="353.8" height="24.65" shape-rendering="crispEdges"/><rect fill="#000000" x="915" y="172.3" width="24.4" height="24.65" shape-rendering="crispEdges"/><rect fill="#272727" x="939.4" y="172.3" width="12.2" height="24.65" shape-rendering="crispEdges"/><rect fill="#1e1e1e" x="951.6" y="172.3" width="12.2" height="24.65" shape-rendering="crispEdges"/><rect fill="#1e1e1e" x="963.8" y="172.3" width="12.2" height="24.65" shape-rendering="crispEdges"/><rect fill="#1e1e1e" x="0" y="196.7" width="12.2" height="24.65" shape-rendering="crispEdges"/><rect fill="#1e1e1e" x="12.2" y="196.7" width="12.2" height="24.65" shape-rendering="crispEdges"/><rect fill="#272727" x="24.4" y="196.7" width="12.2" height="24.65" shape-rendering="crispEdges"/><rect fill="#272727" x="36.6" y="196.7" width="24.4" height="24.65" shape-rendering="crispEdges"/><rect fill="#272727" x="61" y="196.7" width="24.4" height="24.65" shape-rendering="crispEdges"/><rect fill="#0c0c0c" x="85.4" y="196.7" width="61" height="24.65" shape-rendering="crispEdges"/><rect fill="#272727" x="146.4" y="196.7" width="768.6" height="24.65" shape-rendering="crispEdges"/><rect fill="#000000" x="915" y="196.7" width="24.4" height="24.65" shape-rendering="crispEdges"/><rect fill="#272727" x="939.4" y="196.7" width="12.2" height="24.65" shape-rendering="crispEdges"/><rect fill="#1e1e1e" x="951.6" y="196.7" width="12.2" height="24.65" shape-rendering="crispEdges"/><rect fill="#1e1e1e" x="963.8" y="196.7" width="12.2" height="24.65" shape-rendering="crispEdges"/><rect fill="#1e1e1e" x="0" y="221.1" width="12.2" height="24.65" shape-rendering="crispEdges"/><rect fill="#1e1e1e" x="12.2" y="221.1" width="12.2" height="24.65" shape-rendering="crispEdges"/><rect fill="#272727" x="24.4" y="221.1" width="12.2" height="24.65" shape-rendering="crispEdges"/><rect fill="#272727" x="36.6" y="221.1" width="24.4" height="24.65" shape-rendering="crispEdges"/><rect fill="#272727" x="61" y="221.1" width="24.4" height="24.65" shape-rendering="crispEdges"/><rect fill="#0c0c0c" x="85.4" y="221.1" width="73.2" height="24.65" shape-rendering="crispEdges"/><rect fill="#0c0c0c" x="158.6" y="221.1" width="12.2" height="24.65" shape-rendering="crispEdges"/><rect fill="#0c0c0c" x="170.8" y="221.1" width="12.2" height="24.65" shape-rendering="crispEdges"/><rect fill="#0c0c0c" x="183" y="221.1" width="12.2" height="24.65" shape-rendering="crispEdges"/><rect fill="#0c0c0c" x="195.2" y="221.1" width="48.8" height="24.65" shape-rendering="crispEdges"/><rect fill="#0c0c0c" x="244" y="221.1" width="12.2" height="24.65" shape-rendering="crispEdges"/><rect fill="#0c0c0c" x="256.2" y="221.1" width="268.4" height="24.65" shape-rendering="crispEdges"/><rect fill="#272727" x="524.6" y="221.1" width="390.4" height="24.65" shape-rendering="crispEdges"/><rect fill="#282828" x="915" y="221.1" width="24.4" height="24.65" shape-rendering="crispEdges"/><rect fill="#272727" x="939.4" y="221.1" width="12.2" height="24.65" shape-rendering="crispEdges"/><rect fill="#1e1e1e" x="951.6" y="221.1" width="12.2" height="24.65" shape-rendering="crispEdges"/><rect fill="#1e1e1e" x="963.8" y="221.1" width="12.2" height="24.65" shape-rendering="crispEdges"/><rect fill="#1e1e1e" x="0" y="245.5" width="12.2" height="24.65" shape-rendering="crispEdges"/><rect fill="#1e1e1e" x="12.2" y="245.5" width="12.2" height="24.65" shape-rendering="crispEdges"/><rect fill="#272727" x="24.4" y="245.5" width="12.2" height="24.65" shape-rendering="crispEdges"/><rect fill="#272727" x="36.6" y="245.5" width="24.4" height="24.65" shape-rendering="crispEdges"/><rect fill="#272727" x="61" y="245.5" width="24.4" height="24.65" shape-rendering="crispEdges"/><rect fill="#272727" x="85.4" y="245.5" width="829.6" height="24.65" shape-rendering="crispEdges"/><rect fill="#282828" x="915" y="245.5" width="24.4" height="24.65" shape-rendering="crispEdges"/><rect fill="#272727" x="939.4" y="245.5" width="12.2" height="24.65" shape-rendering="crispEdges"/><rect fill="#1e1e1e" x="951.6" y="245.5" width="12.2" height="24.65" shape-rendering="crispEdges"/><rect fill="#1e1e1e" x="963.8" y="245.5" width="12.2" height="24.65" shape-rendering="crispEdges"/><rect fill="#1e1e1e" x="0" y="269.9" width="12.2" height="24.65" shape-rendering="crispEdges"/><rect fill="#1e1e1e" x="12.2" y="269.9" width="12.2" height="24.65" shape-rendering="crispEdges"/><rect fill="#1e1e1e" x="24.4" y="269.9" width="927.2" height="24.65" shape-rendering="crispEdges"/><rect fill="#1e1e1e" x="951.6" y="269.9" width="12.2" height="24.65" shape-rendering="crispEdges"/><rect fill="#1e1e1e" x="963.8" y="269.9" width="12.2" height="24.65" shape-rendering="crispEdges"/><rect fill="#1e1e1e" x="0" y="294.3" width="976" height="24.65" shape-rendering="crispEdges"/><rect fill="#1e1e1e" x="0" y="318.7" width="12.2" height="24.65" shape-rendering="crispEdges"/><rect fill="#1e1e1e" x="12.2" y="318.7" width="195.2" height="24.65" shape-rendering="crispEdges"/><rect fill="#1e1e1e" x="207.4" y="318.7" width="12.2" height="24.65" shape-rendering="crispEdges"/><rect fill="#1e1e1e" x="219.6" y="318.7" width="378.2" height="24.65" shape-rendering="crispEdges"/><rect fill="#1e1e1e" x="597.8" y="318.7" width="366" height="24.65" shape-rendering="crispEdges"/><rect fill="#1e1e1e" x="963.8" y="318.7" width="12.2" height="24.65" shape-rendering="crispEdges"/><rect fill="#1e1e1e" x="0" y="343.1" width="61" height="24.65" shape-rendering="crispEdges"/><rect fill="#1e1e1e" x="61" y="343.1" width="12.2" height="24.65" shape-rendering="crispEdges"/><rect fill="#1e1e1e" x="73.2" y="343.1" width="36.6" height="24.65" shape-rendering="crispEdges"/><rect fill="#1e1e1e" x="109.8" y="343.1" width="12.2" height="24.65" shape-rendering="crispEdges"/><rect fill="#1e1e1e" x="122" y="343.1" width="97.6" height="24.65" shape-rendering="crispEdges"/><rect fill="#1e1e1e" x="219.6" y="343.1" width="573.4" height="24.65" shape-rendering="crispEdges"/><rect fill="#1e1e1e" x="793" y="343.1" width="183" height="24.65" shape-rendering="crispEdges"/><rect fill="#1e1e1e" x="0" y="367.5" width="378.2" height="24.65" shape-rendering="crispEdges"/><rect fill="#1e1e1e" x="378.2" y="367.5" width="597.8" height="24.65" shape-rendering="crispEdges"/><rect fill="#1e1e1e" x="0" y="391.9" width="73.2" height="24.65" shape-rendering="crispEdges"/><rect fill="#1e1e1e" x="73.2" y="391.9" width="841.8" height="24.65" shape-rendering="crispEdges"/><rect fill="#1e1e1e" x="915" y="391.9" width="61" height="24.65" shape-rendering="crispEdges"/><rect fill="#0d0d0d" x="0" y="416.3" width="976" height="24.65" shape-rendering="crispEdges"/><rect fill="#0d0d0d" x="0" y="440.7" width="976" height="24.65" shape-rendering="crispEdges"/><rect fill="#0d0d0d" x="0" y="465.1" width="12.2" height="24.65" shape-rendering="crispEdges"/><rect fill="#0d0d0d" x="12.2" y="465.1" width="12.2" height="24.65" shape-rendering="crispEdges"/><rect fill="#0d0d0d" x="24.4" y="465.1" width="756.4" height="24.65" shape-rendering="crispEdges"/><rect fill="#0d0d0d" x="780.8" y="465.1" width="12.2" height="24.65" shape-rendering="crispEdges"/><rect fill="#0d0d0d" x="793" y="465.1" width="12.2" height="24.65" shape-rendering="crispEdges"/><rect fill="#656565" x="805.2" y="465.1" width="146.4" height="24.65" shape-rendering="crispEdges"/><rect fill="#0d0d0d" x="951.6" y="465.1" width="12.2" height="24.65" shape-rendering="crispEdges"/><rect fill="#0d0d0d" x="963.8" y="465.1" width="12.2" height="24.65" shape-rendering="crispEdges"/><rect fill="#0d0d0d" x="0" y="489.5" width="12.2" height="24.65" shape-rendering="crispEdges"/><rect fill="#0d0d0d" x="12.2" y="489.5" width="12.2" height="24.65" shape-rendering="crispEdges"/><rect fill="#0d0d0d" x="24.4" y="489.5" width="170.8" height="24.65" shape-rendering="crispEdges"/><rect fill="#0d0d0d" x="195.2" y="489.5" width="12.2" height="24.65" shape-rendering="crispEdges"/><rect fill="#0d0d0d" x="207.4" y="489.5" width="378.2" height="24.65" shape-rendering="crispEdges"/><rect fill="#0d0d0d" x="585.6" y="489.5" width="195.2" height="24.65" shape-rendering="crispEdges"/><rect fill="#0d0d0d" x="780.8" y="489.5" width="12.2" height="24.65" shape-rendering="crispEdges"/><rect fill="#0d0d0d" x="793" y="489.5" width="12.2" height="24.65" shape-rendering="crispEdges"/><rect fill="#656565" x="805.2" y="489.5" width="24.4" height="24.65" shape-rendering="crispEdges"/><rect fill="#656565" x="829.6" y="489.5" width="85.4" height="24.65" shape-rendering="crispEdges"/><rect fill="#656565" x="915" y="489.5" width="36.6" height="24.65" shape-rendering="crispEdges"/><rect fill="#0d0d0d" x="951.6" y="489.5" width="12.2" height="24.65" shape-rendering="crispEdges"/><rect fill="#0d0d0d" x="963.8" y="489.5" width="12.2" height="24.65" shape-rendering="crispEdges"/><rect fill="#0d0d0d" x="0" y="513.9" width="12.2" height="24.65" shape-rendering="crispEdges"/><rect fill="#0d0d0d" x="12.2" y="513.9" width="12.2" height="24.65" shape-rendering="crispEdges"/><rect fill="#0d0d0d" x="24.4" y="513.9" width="756.4" height="24.65" shape-rendering="crispEdges"/><rect fill="#0d0d0d" x="780.8" y="513.9" width="12.2" height="24.65" shape-rendering="crispEdges"/><rect fill="#0d0d0d" x="793" y="513.9" width="12.2" height="24.65" shape-rendering="crispEdges"/><rect fill="#656565" x="805.2" y="513.9" width="146.4" height="24.65" shape-rendering="crispEdges"/><rect fill="#0d0d0d" x="951.6" y="513.9" width="12.2" height="24.65" shape-rendering="crispEdges"/><rect fill="#0d0d0d" x="963.8" y="513.9" width="12.2" height="24.65" shape-rendering="crispEdges"/><rect fill="#0d0d0d" x="0" y="538.3" width="976" height="24.65" shape-rendering="crispEdges"/><rect fill="#2d2d2d" x="0" y="562.7" width="36.6" height="24.65" shape-rendering="crispEdges"/><rect fill="#2d2d2d" x="36.6" y="562.7" width="61" height="24.65" shape-rendering="crispEdges"/><rect fill="#2d2d2d" x="97.6" y="562.7" width="732" height="24.65" shape-rendering="crispEdges"/><rect fill="#2d2d2d" x="829.6" y="562.7" width="12.2" height="24.65" shape-rendering="crispEdges"/><rect fill="#2d2d2d" x="841.8" y="562.7" width="24.4" height="24.65" shape-rendering="crispEdges"/><rect fill="#2d2d2d" x="866.2" y="562.7" width="97.6" height="24.65" shape-rendering="crispEdges"/><rect fill="#2d2d2d" x="963.8" y="562.7" width="12.2" height="24.65" shape-rendering="crispEdges"/>
    <g class="terminal-4119386702-matrix">
    <text class="terminal-4119386702-r2" x="12.2" y="20" textLength="12.2" clip-path="url(#terminal-4119386702-line-0)">⭘</text><text class="terminal-4119386702-r2" x="256.2" y="20" textLength="439.2" clip-path="url(#terminal-4119386702-line-0)">Dispatch&#160;—&#160;advisor&#160;surface&#160;prototype</text><text class="terminal-4119386702-r1" x="976" y="20" textLength="12.2" clip-path="url(#terminal-4119386702-line-0)">
</text><text class="terminal-4119386702-r1" x="976" y="44.4" textLength="12.2" clip-path="url(#terminal-4119386702-line-1)">
</text><text class="terminal-4119386702-r3" x="12.2" y="68.8" textLength="134.2" clip-path="url(#terminal-4119386702-line-2)">‹&#160;New&#160;Job&#160;/</text><text class="terminal-4119386702-r4" x="158.6" y="68.8" textLength="366" clip-path="url(#terminal-4119386702-line-2)">Preview&#160;SQL&#160;·&#160;monthly_pull.sql</text><text class="terminal-4119386702-r1" x="976" y="68.8" textLength="12.2" clip-path="url(#terminal-4119386702-line-2)">
</text><text class="terminal-4119386702-r1" x="976" y="93.2" textLength="12.2" clip-path="url(#terminal-4119386702-line-3)">
</text><text class="terminal-4119386702-r4" x="24.4" y="117.6" textLength="85.4" clip-path="url(#terminal-4119386702-line-4)">Target:</text><text class="terminal-4119386702-r2" x="109.8" y="117.6" textLength="280.6" clip-path="url(#terminal-4119386702-line-4)">&#160;aa_enc.dispatch_result</text><text class="terminal-4119386702-r5" x="768.6" y="117.6" textLength="183" clip-path="url(#terminal-4119386702-line-4)">SqlFile&#160;→&#160;Table</text><text class="terminal-4119386702-r1" x="976" y="117.6" textLength="12.2" clip-path="url(#terminal-4119386702-line-4)">
</text><text class="terminal-4119386702-r1" x="976" y="142" textLength="12.2" clip-path="url(#terminal-4119386702-line-5)">
</text><text class="terminal-4119386702-r6" x="12.2" y="166.4" textLength="12.2" clip-path="url(#terminal-4119386702-line-6)">╭</text><text class="terminal-4119386702-r6" x="24.4" y="166.4" textLength="927.2" clip-path="url(#terminal-4119386702-line-6)">────────────────────────────────────────────────────────────────────────────</text><text class="terminal-4119386702-r6" x="951.6" y="166.4" textLength="12.2" clip-path="url(#terminal-4119386702-line-6)">╮</text><text class="terminal-4119386702-r1" x="976" y="166.4" textLength="12.2" clip-path="url(#terminal-4119386702-line-6)">
</text><text class="terminal-4119386702-r6" x="12.2" y="190.8" textLength="12.2" clip-path="url(#terminal-4119386702-line-7)">│</text><text class="terminal-4119386702-r7" x="61" y="190.8" textLength="24.4" clip-path="url(#terminal-4119386702-line-7)">5&#160;</text><text class="terminal-4119386702-r8" x="85.4" y="190.8" textLength="61" clip-path="url(#terminal-4119386702-line-7)">WHERE</text><text class="terminal-4119386702-r2" x="158.6" y="190.8" textLength="207.4" clip-path="url(#terminal-4119386702-line-7)">clr.merchant_name</text><text class="terminal-4119386702-r2" x="378.2" y="190.8" textLength="73.2" clip-path="url(#terminal-4119386702-line-7)">REGEXP</text><text class="terminal-4119386702-r10" x="463.6" y="190.8" textLength="97.6" clip-path="url(#terminal-4119386702-line-7)">&#x27;^ABC.*&#x27;</text><text class="terminal-4119386702-r6" x="951.6" y="190.8" textLength="12.2" clip-path="url(#terminal-4119386702-line-7)">│</text><text class="terminal-4119386702-r1" x="976" y="190.8" textLength="12.2" clip-path="url(#terminal-4119386702-line-7)">
</text><text class="terminal-4119386702-r6" x="12.2" y="215.2" textLength="12.2" clip-path="url(#terminal-4119386702-line-8)">│</text><text class="terminal-4119386702-r7" x="61" y="215.2" textLength="24.4" clip-path="url(#terminal-4119386702-line-8)">6&#160;</text><text class="terminal-4119386702-r8" x="85.4" y="215.2" textLength="61" clip-path="url(#terminal-4119386702-line-8)">UNION</text><text class="terminal-4119386702-r6" x="951.6" y="215.2" textLength="12.2" clip-path="url(#terminal-4119386702-line-8)">│</text><text class="terminal-4119386702-r1" x="976" y="215.2" textLength="12.2" clip-path="url(#terminal-4119386702-line-8)">
</text><text class="terminal-4119386702-r6" x="12.2" y="239.6" textLength="12.2" clip-path="url(#terminal-4119386702-line-9)">│</text><text class="terminal-4119386702-r7" x="61" y="239.6" textLength="24.4" clip-path="url(#terminal-4119386702-line-9)">7&#160;</text><text class="terminal-4119386702-r8" x="85.4" y="239.6" textLength="73.2" clip-path="url(#terminal-4119386702-line-9)">SELECT</text><text class="terminal-4119386702-r2" x="170.8" y="239.6" textLength="12.2" clip-path="url(#terminal-4119386702-line-9)">*</text><text class="terminal-4119386702-r8" x="195.2" y="239.6" textLength="48.8" clip-path="url(#terminal-4119386702-line-9)">FROM</text><text class="terminal-4119386702-r2" x="256.2" y="239.6" textLength="268.4" clip-path="url(#terminal-4119386702-line-9)">core.archive_clear_dtl</text><text class="terminal-4119386702-r6" x="951.6" y="239.6" textLength="12.2" clip-path="url(#terminal-4119386702-line-9)">│</text><text class="terminal-4119386702-r1" x="976" y="239.6" textLength="12.2" clip-path="url(#terminal-4119386702-line-9)">
</text><text class="terminal-4119386702-r6" x="12.2" y="264" textLength="12.2" clip-path="url(#terminal-4119386702-line-10)">│</text><text class="terminal-4119386702-r7" x="61" y="264" textLength="24.4" clip-path="url(#terminal-4119386702-line-10)">8&#160;</text><text class="terminal-4119386702-r6" x="951.6" y="264" textLength="12.2" clip-path="url(#terminal-4119386702-line-10)">│</text><text class="terminal-4119386702-r1" x="976" y="264" textLength="12.2" clip-path="url(#terminal-4119386702-line-10)">
</text><text class="terminal-4119386702-r6" x="12.2" y="288.4" textLength="12.2" clip-path="url(#terminal-4119386702-line-11)">╰</text><text class="terminal-4119386702-r6" x="24.4" y="288.4" textLength="927.2" clip-path="url(#terminal-4119386702-line-11)">────────────────────────────────────────────────────────────────────────────</text><text class="terminal-4119386702-r6" x="951.6" y="288.4" textLength="12.2" clip-path="url(#terminal-4119386702-line-11)">╯</text><text class="terminal-4119386702-r1" x="976" y="288.4" textLength="12.2" clip-path="url(#terminal-4119386702-line-11)">
</text><text class="terminal-4119386702-r1" x="976" y="312.8" textLength="12.2" clip-path="url(#terminal-4119386702-line-12)">
</text><text class="terminal-4119386702-r4" x="12.2" y="337.2" textLength="195.2" clip-path="url(#terminal-4119386702-line-13)">Advisor&#160;findings</text><text class="terminal-4119386702-r3" x="219.6" y="337.2" textLength="378.2" clip-path="url(#terminal-4119386702-line-13)">·&#160;static&#160;analysis&#160;·&#160;manual&#160;v2.0</text><text class="terminal-4119386702-r1" x="976" y="337.2" textLength="12.2" clip-path="url(#terminal-4119386702-line-13)">
</text><text class="terminal-4119386702-r12" x="0" y="361.6" textLength="61" clip-path="url(#terminal-4119386702-line-14)">error</text><text class="terminal-4119386702-r4" x="73.2" y="361.6" textLength="36.6" clip-path="url(#terminal-4119386702-line-14)">R07</text><text class="terminal-4119386702-r5" x="122" y="361.6" textLength="97.6" clip-path="url(#terminal-4119386702-line-14)">·&#160;G#3/#4</text><text class="terminal-4119386702-r2" x="219.6" y="361.6" textLength="573.4" clip-path="url(#terminal-4119386702-line-14)">&#160;&#160;[BROADCAST]&#160;hint&#160;found&#160;on&#160;shuffle-recommended</text><text class="terminal-4119386702-r1" x="976" y="361.6" textLength="12.2" clip-path="url(#terminal-4119386702-line-14)">
</text><text class="terminal-4119386702-r2" x="0" y="386" textLength="378.2" clip-path="url(#terminal-4119386702-line-15)">core.cut_clear_dtl_enc&#160;(line&#160;3)</text><text class="terminal-4119386702-r1" x="976" y="386" textLength="12.2" clip-path="url(#terminal-4119386702-line-15)">
</text><text class="terminal-4119386702-r5" x="73.2" y="410.4" textLength="841.8" clip-path="url(#terminal-4119386702-line-16)">-&gt;&#160;Use&#160;[SHUFFLE]&#160;per&#160;the&#160;recommended&#160;join-strategy&#160;list&#160;(2026-07-10).</text><text class="terminal-4119386702-r1" x="976" y="410.4" textLength="12.2" clip-path="url(#terminal-4119386702-line-16)">
</text><text class="terminal-4119386702-r13" x="0" y="434.8" textLength="976" clip-path="url(#terminal-4119386702-line-17)">────────────────────────────────────────────────────────────────────────────────</text><text class="terminal-4119386702-r1" x="976" y="434.8" textLength="12.2" clip-path="url(#terminal-4119386702-line-17)">
</text><text class="terminal-4119386702-r1" x="976" y="459.2" textLength="12.2" clip-path="url(#terminal-4119386702-line-18)">
</text><text class="terminal-4119386702-r14" x="805.2" y="483.6" textLength="146.4" clip-path="url(#terminal-4119386702-line-19)">▔▔▔▔▔▔▔▔▔▔▔▔</text><text class="terminal-4119386702-r1" x="976" y="483.6" textLength="12.2" clip-path="url(#terminal-4119386702-line-19)">
</text><text class="terminal-4119386702-r15" x="24.4" y="508" textLength="170.8" clip-path="url(#terminal-4119386702-line-20)">Advisor:&#160;error</text><text class="terminal-4119386702-r16" x="207.4" y="508" textLength="378.2" clip-path="url(#terminal-4119386702-line-20)">(1&#160;error&#160;·&#160;1&#160;warning&#160;·&#160;2&#160;infos)</text><text class="terminal-4119386702-r17" x="829.6" y="508" textLength="85.4" clip-path="url(#terminal-4119386702-line-20)">&#160;Back&#160;&#160;</text><text class="terminal-4119386702-r1" x="976" y="508" textLength="12.2" clip-path="url(#terminal-4119386702-line-20)">
</text><text class="terminal-4119386702-r18" x="805.2" y="532.4" textLength="146.4" clip-path="url(#terminal-4119386702-line-21)">▁▁▁▁▁▁▁▁▁▁▁▁</text><text class="terminal-4119386702-r1" x="976" y="532.4" textLength="12.2" clip-path="url(#terminal-4119386702-line-21)">
</text><text class="terminal-4119386702-r1" x="976" y="556.8" textLength="12.2" clip-path="url(#terminal-4119386702-line-22)">
</text><text class="terminal-4119386702-r19" x="0" y="581.2" textLength="36.6" clip-path="url(#terminal-4119386702-line-23)">&#160;b&#160;</text><text class="terminal-4119386702-r2" x="36.6" y="581.2" textLength="61" clip-path="url(#terminal-4119386702-line-23)">Back&#160;</text><text class="terminal-4119386702-r20" x="829.6" y="581.2" textLength="12.2" clip-path="url(#terminal-4119386702-line-23)">▏</text><text class="terminal-4119386702-r19" x="841.8" y="581.2" textLength="24.4" clip-path="url(#terminal-4119386702-line-23)">^p</text><text class="terminal-4119386702-r2" x="866.2" y="581.2" textLength="97.6" clip-path="url(#terminal-4119386702-line-23)">&#160;palette</text>
    </g>
    </g>
</svg>
