<svg class="rich-terminal" viewBox="0 0 2946 1806.8" xmlns="http://www.w3.org/2000/svg">
    <!-- Generated with Rich https://www.textualize.io -->
    <style>

    @font-face {
        font-family: "Fira Code";
        src: local("FiraCode-Regular"),
                url("https://cdnjs.cloudflare.com/ajax/libs/firacode/6.2.0/woff2/FiraCode-Regular.woff2") format("woff2"),
                url("https://cdnjs.cloudflare.com/ajax/libs/firacode/6.2.0/woff/FiraCode-Regular.woff") format("woff");
        font-style: normal;
        font-weight: 400;
    }
    @font-face {
        font-family: "Fira Code";
        src: local("FiraCode-Bold"),
                url("https://cdnjs.cloudflare.com/ajax/libs/firacode/6.2.0/woff2/FiraCode-Bold.woff2") format("woff2"),
                url("https://cdnjs.cloudflare.com/ajax/libs/firacode/6.2.0/woff/FiraCode-Bold.woff") format("woff");
        font-style: bold;
        font-weight: 700;
    }

    .terminal-793675189-matrix {
        font-family: Fira Code, monospace;
        font-size: 20px;
        line-height: 24.4px;
        font-variant-east-asian: full-width;
    }

    .terminal-793675189-title {
        font-size: 18px;
        font-weight: bold;
        font-family: arial;
    }

    .terminal-793675189-r1 { fill: #e0e0e0 }
.terminal-793675189-r2 { fill: #c5c8c6 }
.terminal-793675189-r3 { fill: #121212 }
.terminal-793675189-r4 { fill: #656565 }
.terminal-793675189-r5 { fill: #797979 }
.terminal-793675189-r6 { fill: #a9a9a9 }
.terminal-793675189-r7 { fill: #eaeaea;font-weight: bold }
.terminal-793675189-r8 { fill: #3a3a3a }
.terminal-793675189-r9 { fill: #2d2d2d }
.terminal-793675189-r10 { fill: #e0e0e0;font-weight: bold }
.terminal-793675189-r11 { fill: #0d0d0d }
.terminal-793675189-r12 { fill: #838383 }
.terminal-793675189-r13 { fill: #e9e9e9;font-weight: bold }
.terminal-793675189-r14 { fill: #1c1c1c }
    </style>

    <defs>
    <clipPath id="terminal-793675189-clip-terminal">
      <rect x="0" y="0" width="2927.0" height="1755.8" />
    </clipPath>
    <clipPath id="terminal-793675189-line-0">
    <rect x="0" y="1.5" width="2928" height="24.65"/>
            </clipPath>
<clipPath id="terminal-793675189-line-1">
    <rect x="0" y="25.9" width="2928" height="24.65"/>
            </clipPath>
<clipPath id="terminal-793675189-line-2">
    <rect x="0" y="50.3" width="2928" height="24.65"/>
            </clipPath>
<clipPath id="terminal-793675189-line-3">
    <rect x="0" y="74.7" width="2928" height="24.65"/>
            </clipPath>
<clipPath id="terminal-793675189-line-4">
    <rect x="0" y="99.1" width="2928" height="24.65"/>
            </clipPath>
<clipPath id="terminal-793675189-line-5">
    <rect x="0" y="123.5" width="2928" height="24.65"/>
            </clipPath>
<clipPath id="terminal-793675189-line-6">
    <rect x="0" y="147.9" width="2928" height="24.65"/>
            </clipPath>
<clipPath id="terminal-793675189-line-7">
    <rect x="0" y="172.3" width="2928" height="24.65"/>
            </clipPath>
<clipPath id="terminal-793675189-line-8">
    <rect x="0" y="196.7" width="2928" height="24.65"/>
            </clipPath>
<clipPath id="terminal-793675189-line-9">
    <rect x="0" y="221.1" width="2928" height="24.65"/>
            </clipPath>
<clipPath id="terminal-793675189-line-10">
    <rect x="0" y="245.5" width="2928" height="24.65"/>
            </clipPath>
<clipPath id="terminal-793675189-line-11">
    <rect x="0" y="269.9" width="2928" height="24.65"/>
            </clipPath>
<clipPath id="terminal-793675189-line-12">
    <rect x="0" y="294.3" width="2928" height="24.65"/>
            </clipPath>
<clipPath id="terminal-793675189-line-13">
    <rect x="0" y="318.7" width="2928" height="24.65"/>
            </clipPath>
<clipPath id="terminal-793675189-line-14">
    <rect x="0" y="343.1" width="2928" height="24.65"/>
            </clipPath>
<clipPath id="terminal-793675189-line-15">
    <rect x="0" y="367.5" width="2928" height="24.65"/>
            </clipPath>
<clipPath id="terminal-793675189-line-16">
    <rect x="0" y="391.9" width="2928" height="24.65"/>
            </clipPath>
<clipPath id="terminal-793675189-line-17">
    <rect x="0" y="416.3" width="2928" height="24.65"/>
            </clipPath>
<clipPath id="terminal-793675189-line-18">
    <rect x="0" y="440.7" width="2928" height="24.65"/>
            </clipPath>
<clipPath id="terminal-793675189-line-19">
    <rect x="0" y="465.1" width="2928" height="24.65"/>
            </clipPath>
<clipPath id="terminal-793675189-line-20">
    <rect x="0" y="489.5" width="2928" height="24.65"/>
            </clipPath>
<clipPath id="terminal-793675189-line-21">
    <rect x="0" y="513.9" width="2928" height="24.65"/>
            </clipPath>
<clipPath id="terminal-793675189-line-22">
    <rect x="0" y="538.3" width="2928" height="24.65"/>
            </clipPath>
<clipPath id="terminal-793675189-line-23">
    <rect x="0" y="562.7" width="2928" height="24.65"/>
            </clipPath>
<clipPath id="terminal-793675189-line-24">
    <rect x="0" y="587.1" width="2928" height="24.65"/>
            </clipPath>
<clipPath id="terminal-793675189-line-25">
    <rect x="0" y="611.5" width="2928" height="24.65"/>
            </clipPath>
<clipPath id="terminal-793675189-line-26">
    <rect x="0" y="635.9" width="2928" height="24.65"/>
            </clipPath>
<clipPath id="terminal-793675189-line-27">
    <rect x="0" y="660.3" width="2928" height="24.65"/>
            </clipPath>
<clipPath id="terminal-793675189-line-28">
    <rect x="0" y="684.7" width="2928" height="24.65"/>
            </clipPath>
<clipPath id="terminal-793675189-line-29">
    <rect x="0" y="709.1" width="2928" height="24.65"/>
            </clipPath>
<clipPath id="terminal-793675189-line-30">
    <rect x="0" y="733.5" width="2928" height="24.65"/>
            </clipPath>
<clipPath id="terminal-793675189-line-31">
    <rect x="0" y="757.9" width="2928" height="24.65"/>
            </clipPath>
<clipPath id="terminal-793675189-line-32">
    <rect x="0" y="782.3" width="2928" height="24.65"/>
            </clipPath>
<clipPath id="terminal-793675189-line-33">
    <rect x="0" y="806.7" width="2928" height="24.65"/>
            </clipPath>
<clipPath id="terminal-793675189-line-34">
    <rect x="0" y="831.1" width="2928" height="24.65"/>
            </clipPath>
<clipPath id="terminal-793675189-line-35">
    <rect x="0" y="855.5" width="2928" height="24.65"/>
            </clipPath>
<clipPath id="terminal-793675189-line-36">
    <rect x="0" y="879.9" width="2928" height="24.65"/>
            </clipPath>
<clipPath id="terminal-793675189-line-37">
    <rect x="0" y="904.3" width="2928" height="24.65"/>
            </clipPath>
<clipPath id="terminal-793675189-line-38">
    <rect x="0" y="928.7" width="2928" height="24.65"/>
            </clipPath>
<clipPath id="terminal-793675189-line-39">
    <rect x="0" y="953.1" width="2928" height="24.65"/>
            </clipPath>
<clipPath id="terminal-793675189-line-40">
    <rect x="0" y="977.5" width="2928" height="24.65"/>
            </clipPath>
<clipPath id="terminal-793675189-line-41">
    <rect x="0" y="1001.9" width="2928" height="24.65"/>
            </clipPath>
<clipPath id="terminal-793675189-line-42">
    <rect x="0" y="1026.3" width="2928" height="24.65"/>
            </clipPath>
<clipPath id="terminal-793675189-line-43">
    <rect x="0" y="1050.7" width="2928" height="24.65"/>
            </clipPath>
<clipPath id="terminal-793675189-line-44">
    <rect x="0" y="1075.1" width="2928" height="24.65"/>
            </clipPath>
<clipPath id="terminal-793675189-line-45">
    <rect x="0" y="1099.5" width="2928" height="24.65"/>
            </clipPath>
<clipPath id="terminal-793675189-line-46">
    <rect x="0" y="1123.9" width="2928" height="24.65"/>
            </clipPath>
<clipPath id="terminal-793675189-line-47">
    <rect x="0" y="1148.3" width="2928" height="24.65"/>
            </clipPath>
<clipPath id="terminal-793675189-line-48">
    <rect x="0" y="1172.7" width="2928" height="24.65"/>
            </clipPath>
<clipPath id="terminal-793675189-line-49">
    <rect x="0" y="1197.1" width="2928" height="24.65"/>
            </clipPath>
<clipPath id="terminal-793675189-line-50">
    <rect x="0" y="1221.5" width="2928" height="24.65"/>
            </clipPath>
<clipPath id="terminal-793675189-line-51">
    <rect x="0" y="1245.9" width="2928" height="24.65"/>
            </clipPath>
<clipPath id="terminal-793675189-line-52">
    <rect x="0" y="1270.3" width="2928" height="24.65"/>
            </clipPath>
<clipPath id="terminal-793675189-line-53">
    <rect x="0" y="1294.7" width="2928" height="24.65"/>
            </clipPath>
<clipPath id="terminal-793675189-line-54">
    <rect x="0" y="1319.1" width="2928" height="24.65"/>
            </clipPath>
<clipPath id="terminal-793675189-line-55">
    <rect x="0" y="1343.5" width="2928" height="24.65"/>
            </clipPath>
<clipPath id="terminal-793675189-line-56">
    <rect x="0" y="1367.9" width="2928" height="24.65"/>
            </clipPath>
<clipPath id="terminal-793675189-line-57">
    <rect x="0" y="1392.3" width="2928" height="24.65"/>
            </clipPath>
<clipPath id="terminal-793675189-line-58">
    <rect x="0" y="1416.7" width="2928" height="24.65"/>
            </clipPath>
<clipPath id="terminal-793675189-line-59">
    <rect x="0" y="1441.1" width="2928" height="24.65"/>
            </clipPath>
<clipPath id="terminal-793675189-line-60">
    <rect x="0" y="1465.5" width="2928" height="24.65"/>
            </clipPath>
<clipPath id="terminal-793675189-line-61">
    <rect x="0" y="1489.9" width="2928" height="24.65"/>
            </clipPath>
<clipPath id="terminal-793675189-line-62">
    <rect x="0" y="1514.3" width="2928" height="24.65"/>
            </clipPath>
<clipPath id="terminal-793675189-line-63">
    <rect x="0" y="1538.7" width="2928" height="24.65"/>
            </clipPath>
<clipPath id="terminal-793675189-line-64">
    <rect x="0" y="1563.1" width="2928" height="24.65"/>
            </clipPath>
<clipPath id="terminal-793675189-line-65">
    <rect x="0" y="1587.5" width="2928" height="24.65"/>
            </clipPath>
<clipPath id="terminal-793675189-line-66">
    <rect x="0" y="1611.9" width="2928" height="24.65"/>
            </clipPath>
<clipPath id="terminal-793675189-line-67">
    <rect x="0" y="1636.3" width="2928" height="24.65"/>
            </clipPath>
<clipPath id="terminal-793675189-line-68">
    <rect x="0" y="1660.7" width="2928" height="24.65"/>
            </clipPath>
<clipPath id="terminal-793675189-line-69">
    <rect x="0" y="1685.1" width="2928" height="24.65"/>
            </clipPath>
<clipPath id="terminal-793675189-line-70">
    <rect x="0" y="1709.5" width="2928" height="24.65"/>
            </clipPath>
    </defs>

    <rect fill="#292929" stroke="rgba(255,255,255,0.35)" stroke-width="1" x="1" y="1" width="2944" height="1804.8" rx="8"/><text class="terminal-793675189-title" fill="#c5c8c6" text-anchor="middle" x="1472" y="27">DispatchApp</text>
            <g transform="translate(26,22)">
            <circle cx="0" cy="0" r="7" fill="#ff5f57"/>
            <circle cx="22" cy="0" r="7" fill="#febc2e"/>
            <circle cx="44" cy="0" r="7" fill="#28c840"/>
            </g>
        
    <g transform="translate(9, 41)" clip-path="url(#terminal-793675189-clip-terminal)">
    <rect fill="#121212" x="0" y="1.5" width="97.6" height="24.65" shape-rendering="crispEdges"/><rect fill="#121212" x="97.6" y="1.5" width="2830.4" height="24.65" shape-rendering="crispEdges"/><rect fill="#121212" x="0" y="25.9" width="231.8" height="24.65" shape-rendering="crispEdges"/><rect fill="#121212" x="231.8" y="25.9" width="2696.2" height="24.65" shape-rendering="crispEdges"/><rect fill="#121212" x="0" y="50.3" width="634.4" height="24.65" shape-rendering="crispEdges"/><rect fill="#121212" x="634.4" y="50.3" width="2293.6" height="24.65" shape-rendering="crispEdges"/><rect fill="#121212" x="0" y="74.7" width="73.2" height="24.65" shape-rendering="crispEdges"/><rect fill="#121212" x="73.2" y="74.7" width="2854.8" height="24.65" shape-rendering="crispEdges"/><rect fill="#121212" x="0" y="99.1" width="378.2" height="24.65" shape-rendering="crispEdges"/><rect fill="#121212" x="378.2" y="99.1" width="2549.8" height="24.65" shape-rendering="crispEdges"/><rect fill="#121212" x="0" y="123.5" width="634.4" height="24.65" shape-rendering="crispEdges"/><rect fill="#121212" x="634.4" y="123.5" width="2293.6" height="24.65" shape-rendering="crispEdges"/><rect fill="#121212" x="0" y="147.9" width="73.2" height="24.65" shape-rendering="crispEdges"/><rect fill="#121212" x="73.2" y="147.9" width="2854.8" height="24.65" shape-rendering="crispEdges"/><rect fill="#656565" x="0" y="172.3" width="12.2" height="24.65" shape-rendering="crispEdges"/><rect fill="#272727" x="12.2" y="172.3" width="2903.6" height="24.65" shape-rendering="crispEdges"/><rect fill="#121212" x="2915.8" y="172.3" width="12.2" height="24.65" shape-rendering="crispEdges"/><rect fill="#656565" x="0" y="196.7" width="12.2" height="24.65" shape-rendering="crispEdges"/><rect fill="#272727" x="12.2" y="196.7" width="24.4" height="24.65" shape-rendering="crispEdges"/><rect fill="#e0e0e0" x="36.6" y="196.7" width="12.2" height="24.65" shape-rendering="crispEdges"/><rect fill="#272727" x="48.8" y="196.7" width="561.2" height="24.65" shape-rendering="crispEdges"/><rect fill="#272727" x="610" y="196.7" width="2281.4" height="24.65" shape-rendering="crispEdges"/><rect fill="#272727" x="2891.4" y="196.7" width="24.4" height="24.65" shape-rendering="crispEdges"/><rect fill="#121212" x="2915.8" y="196.7" width="12.2" height="24.65" shape-rendering="crispEdges"/><rect fill="#656565" x="0" y="221.1" width="12.2" height="24.65" shape-rendering="crispEdges"/><rect fill="#272727" x="12.2" y="221.1" width="2903.6" height="24.65" shape-rendering="crispEdges"/><rect fill="#121212" x="2915.8" y="221.1" width="12.2" height="24.65" shape-rendering="crispEdges"/><rect fill="#656565" x="0" y="245.5" width="195.2" height="24.65" shape-rendering="crispEdges"/><rect fill="#121212" x="195.2" y="245.5" width="2732.8" height="24.65" shape-rendering="crispEdges"/><rect fill="#656565" x="0" y="269.9" width="36.6" height="24.65" shape-rendering="crispEdges"/><rect fill="#656565" x="36.6" y="269.9" width="109.8" height="24.65" shape-rendering="crispEdges"/><rect fill="#656565" x="146.4" y="269.9" width="48.8" height="24.65" shape-rendering="crispEdges"/><rect fill="#121212" x="195.2" y="269.9" width="2732.8" height="24.65" shape-rendering="crispEdges"/><rect fill="#656565" x="0" y="294.3" width="195.2" height="24.65" shape-rendering="crispEdges"/><rect fill="#121212" x="195.2" y="294.3" width="2732.8" height="24.65" shape-rendering="crispEdges"/><rect fill="#1e1e1e" x="0" y="318.7" width="195.2" height="24.65" shape-rendering="crispEdges"/><rect fill="#121212" x="195.2" y="318.7" width="2732.8" height="24.65" shape-rendering="crispEdges"/><rect fill="#1e1e1e" x="0" y="343.1" width="24.4" height="24.65" shape-rendering="crispEdges"/><rect fill="#1e1e1e" x="24.4" y="343.1" width="134.2" height="24.65" shape-rendering="crispEdges"/><rect fill="#1e1e1e" x="158.6" y="343.1" width="36.6" height="24.65" shape-rendering="crispEdges"/><rect fill="#121212" x="195.2" y="343.1" width="2732.8" height="24.65" shape-rendering="crispEdges"/><rect fill="#1e1e1e" x="0" y="367.5" width="195.2" height="24.65" shape-rendering="crispEdges"/><rect fill="#121212" x="195.2" y="367.5" width="2732.8" height="24.65" shape-rendering="crispEdges"/><rect fill="#595959" x="0" y="391.9" width="195.2" height="24.65" shape-rendering="crispEdges"/><rect fill="#121212" x="195.2" y="391.9" width="2732.8" height="24.65" shape-rendering="crispEdges"/><rect fill="#595959" x="0" y="416.3" width="48.8" height="24.65" shape-rendering="crispEdges"/><rect fill="#595959" x="48.8" y="416.3" width="97.6" height="24.65" shape-rendering="crispEdges"/><rect fill="#595959" x="146.4" y="416.3" width="48.8" height="24.65" shape-rendering="crispEdges"/><rect fill="#121212" x="195.2" y="416.3" width="2732.8" height="24.65" shape-rendering="crispEdges"/><rect fill="#595959" x="0" y="440.7" width="195.2" height="24.65" shape-rendering="crispEdges"/><rect fill="#121212" x="195.2" y="440.7" width="2732.8" height="24.65" shape-rendering="crispEdges"/><rect fill="#121212" x="0" y="465.1" width="85.4" height="24.65" shape-rendering="crispEdges"/><rect fill="#121212" x="85.4" y="465.1" width="73.2" height="24.65" shape-rendering="crispEdges"/><rect fill="#121212" x="158.6" y="465.1" width="73.2" height="24.65" shape-rendering="crispEdges"/><rect fill="#121212" x="231.8" y="465.1" width="109.8" height="24.65" shape-rendering="crispEdges"/><rect fill="#121212" x="341.6" y="465.1" width="85.4" height="24.65" shape-rendering="crispEdges"/><rect fill="#121212" x="427" y="465.1" width="73.2" height="24.65" shape-rendering="crispEdges"/><rect fill="#121212" x="500.2" y="465.1" width="36.6" height="24.65" shape-rendering="crispEdges"/><rect fill="#121212" x="536.8" y="465.1" width="2391.2" height="24.65" shape-rendering="crispEdges"/><rect fill="#121212" x="0" y="489.5" width="2928" height="24.65" shape-rendering="crispEdges"/><rect fill="#121212" x="0" y="513.9" width="2928" height="24.65" shape-rendering="crispEdges"/><rect fill="#121212" x="0" y="538.3" width="2928" height="24.65" shape-rendering="crispEdges"/><rect fill="#121212" x="0" y="562.7" width="2928" height="24.65" shape-rendering="crispEdges"/><rect fill="#121212" x="0" y="587.1" width="2928" height="24.65" shape-rendering="crispEdges"/><rect fill="#121212" x="0" y="611.5" width="2928" height="24.65" shape-rendering="crispEdges"/><rect fill="#121212" x="0" y="635.9" width="2928" height="24.65" shape-rendering="crispEdges"/><rect fill="#121212" x="0" y="660.3" width="2928" height="24.65" shape-rendering="crispEdges"/><rect fill="#121212" x="0" y="684.7" width="2928" height="24.65" shape-rendering="crispEdges"/><rect fill="#121212" x="0" y="709.1" width="2928" height="24.65" shape-rendering="crispEdges"/><rect fill="#121212" x="0" y="733.5" width="2928" height="24.65" shape-rendering="crispEdges"/><rect fill="#121212" x="0" y="757.9" width="2928" height="24.65" shape-rendering="crispEdges"/><rect fill="#121212" x="0" y="782.3" width="2928" height="24.65" shape-rendering="crispEdges"/><rect fill="#121212" x="0" y="806.7" width="2928" height="24.65" shape-rendering="crispEdges"/><rect fill="#121212" x="0" y="831.1" width="2928" height="24.65" shape-rendering="crispEdges"/><rect fill="#121212" x="0" y="855.5" width="2928" height="24.65" shape-rendering="crispEdges"/><rect fill="#121212" x="0" y="879.9" width="2928" height="24.65" shape-rendering="crispEdges"/><rect fill="#121212" x="0" y="904.3" width="2928" height="24.65" shape-rendering="crispEdges"/><rect fill="#121212" x="0" y="928.7" width="2928" height="24.65" shape-rendering="crispEdges"/><rect fill="#121212" x="0" y="953.1" width="2928" height="24.65" shape-rendering="crispEdges"/><rect fill="#121212" x="0" y="977.5" width="2928" height="24.65" shape-rendering="crispEdges"/><rect fill="#121212" x="0" y="1001.9" width="2928" height="24.65" shape-rendering="crispEdges"/><rect fill="#121212" x="0" y="1026.3" width="2928" height="24.65" shape-rendering="crispEdges"/><rect fill="#121212" x="0" y="1050.7" width="2928" height="24.65" shape-rendering="crispEdges"/><rect fill="#121212" x="0" y="1075.1" width="2928" height="24.65" shape-rendering="crispEdges"/><rect fill="#121212" x="0" y="1099.5" width="2928" height="24.65" shape-rendering="crispEdges"/><rect fill="#121212" x="0" y="1123.9" width="2928" height="24.65" shape-rendering="crispEdges"/><rect fill="#121212" x="0" y="1148.3" width="2928" height="24.65" shape-rendering="crispEdges"/><rect fill="#121212" x="0" y="1172.7" width="2928" height="24.65" shape-rendering="crispEdges"/><rect fill="#121212" x="0" y="1197.1" width="2928" height="24.65" shape-rendering="crispEdges"/><rect fill="#121212" x="0" y="1221.5" width="2928" height="24.65" shape-rendering="crispEdges"/><rect fill="#121212" x="0" y="1245.9" width="2928" height="24.65" shape-rendering="crispEdges"/><rect fill="#121212" x="0" y="1270.3" width="2928" height="24.65" shape-rendering="crispEdges"/><rect fill="#121212" x="0" y="1294.7" width="2928" height="24.65" shape-rendering="crispEdges"/><rect fill="#121212" x="0" y="1319.1" width="2928" height="24.65" shape-rendering="crispEdges"/><rect fill="#121212" x="0" y="1343.5" width="2928" height="24.65" shape-rendering="crispEdges"/><rect fill="#121212" x="0" y="1367.9" width="2928" height="24.65" shape-rendering="crispEdges"/><rect fill="#121212" x="0" y="1392.3" width="2928" height="24.65" shape-rendering="crispEdges"/><rect fill="#121212" x="0" y="1416.7" width="2928" height="24.65" shape-rendering="crispEdges"/><rect fill="#121212" x="0" y="1441.1" width="2928" height="24.65" shape-rendering="crispEdges"/><rect fill="#121212" x="0" y="1465.5" width="2928" height="24.65" shape-rendering="crispEdges"/><rect fill="#121212" x="0" y="1489.9" width="2928" height="24.65" shape-rendering="crispEdges"/><rect fill="#121212" x="0" y="1514.3" width="2928" height="24.65" shape-rendering="crispEdges"/><rect fill="#121212" x="0" y="1538.7" width="2928" height="24.65" shape-rendering="crispEdges"/><rect fill="#121212" x="0" y="1563.1" width="2928" height="24.65" shape-rendering="crispEdges"/><rect fill="#121212" x="0" y="1587.5" width="2928" height="24.65" shape-rendering="crispEdges"/><rect fill="#121212" x="0" y="1611.9" width="2928" height="24.65" shape-rendering="crispEdges"/><rect fill="#121212" x="0" y="1636.3" width="2928" height="24.65" shape-rendering="crispEdges"/><rect fill="#121212" x="0" y="1660.7" width="2928" height="24.65" shape-rendering="crispEdges"/><rect fill="#121212" x="0" y="1685.1" width="2928" height="24.65" shape-rendering="crispEdges"/><rect fill="#121212" x="0" y="1709.5" width="2928" height="24.65" shape-rendering="crispEdges"/><rect fill="#121212" x="0" y="1733.9" width="2928" height="24.65" shape-rendering="crispEdges"/>
    <g class="terminal-793675189-matrix">
    <text class="terminal-793675189-r1" x="0" y="20" textLength="97.6" clip-path="url(#terminal-793675189-line-0)">Dispatch</text><text class="terminal-793675189-r2" x="2928" y="20" textLength="12.2" clip-path="url(#terminal-793675189-line-0)">
</text><text class="terminal-793675189-r1" x="0" y="44.4" textLength="231.8" clip-path="url(#terminal-793675189-line-1)">Active&#160;Jobs&#160;(0&#160;/&#160;2)</text><text class="terminal-793675189-r2" x="2928" y="44.4" textLength="12.2" clip-path="url(#terminal-793675189-line-1)">
</text><text class="terminal-793675189-r1" x="0" y="68.8" textLength="634.4" clip-path="url(#terminal-793675189-line-2)">ID&#160;&#160;&#160;&#160;&#160;&#160;&#160;&#160;&#160;&#160;&#160;&#160;&#160;&#160;&#160;&#160;&#160;&#160;Source&#160;&#160;&#160;&#160;&#160;&#160;&#160;Destination&#160;&#160;&#160;State</text><text class="terminal-793675189-r2" x="2928" y="68.8" textLength="12.2" clip-path="url(#terminal-793675189-line-2)">
</text><text class="terminal-793675189-r1" x="0" y="93.2" textLength="73.2" clip-path="url(#terminal-793675189-line-3)">(none)</text><text class="terminal-793675189-r2" x="2928" y="93.2" textLength="12.2" clip-path="url(#terminal-793675189-line-3)">
</text><text class="terminal-793675189-r1" x="0" y="117.6" textLength="378.2" clip-path="url(#terminal-793675189-line-4)">Recently&#160;Finished&#160;(last&#160;7&#160;days)</text><text class="terminal-793675189-r2" x="2928" y="117.6" textLength="12.2" clip-path="url(#terminal-793675189-line-4)">
</text><text class="terminal-793675189-r1" x="0" y="142" textLength="634.4" clip-path="url(#terminal-793675189-line-5)">ID&#160;&#160;&#160;&#160;&#160;&#160;&#160;&#160;&#160;&#160;&#160;&#160;&#160;&#160;&#160;&#160;&#160;&#160;Source&#160;&#160;&#160;&#160;&#160;&#160;&#160;Destination&#160;&#160;&#160;State</text><text class="terminal-793675189-r2" x="2928" y="142" textLength="12.2" clip-path="url(#terminal-793675189-line-5)">
</text><text class="terminal-793675189-r1" x="0" y="166.4" textLength="73.2" clip-path="url(#terminal-793675189-line-6)">(none)</text><text class="terminal-793675189-r2" x="2928" y="166.4" textLength="12.2" clip-path="url(#terminal-793675189-line-6)">
</text><text class="terminal-793675189-r3" x="0" y="190.8" textLength="12.2" clip-path="url(#terminal-793675189-line-7)">▊</text><text class="terminal-793675189-r4" x="12.2" y="190.8" textLength="2903.6" clip-path="url(#terminal-793675189-line-7)">▔▔▔▔▔▔▔▔▔▔▔▔▔▔▔▔▔▔▔▔▔▔▔▔▔▔▔▔▔▔▔▔▔▔▔▔▔▔▔▔▔▔▔▔▔▔▔▔▔▔▔▔▔▔▔▔▔▔▔▔▔▔▔▔▔▔▔▔▔▔▔▔▔▔▔▔▔▔▔▔▔▔▔▔▔▔▔▔▔▔▔▔▔▔▔▔▔▔▔▔▔▔▔▔▔▔▔▔▔▔▔▔▔▔▔▔▔▔▔▔▔▔▔▔▔▔▔▔▔▔▔▔▔▔▔▔▔▔▔▔▔▔▔▔▔▔▔▔▔▔▔▔▔▔▔▔▔▔▔▔▔▔▔▔▔▔▔▔▔▔▔▔▔▔▔▔▔▔▔▔▔▔▔▔▔▔▔▔▔▔▔▔▔▔▔▔▔▔▔▔▔▔▔▔▔▔▔▔▔▔▔▔▔▔▔▔▔▔▔▔▔▔▔▔▔▔▔▔▔▔▔▔▔▔▔▔▔▔</text><text class="terminal-793675189-r4" x="2915.8" y="190.8" textLength="12.2" clip-path="url(#terminal-793675189-line-7)">▎</text><text class="terminal-793675189-r2" x="2928" y="190.8" textLength="12.2" clip-path="url(#terminal-793675189-line-7)">
</text><text class="terminal-793675189-r3" x="0" y="215.2" textLength="12.2" clip-path="url(#terminal-793675189-line-8)">▊</text><text class="terminal-793675189-r3" x="36.6" y="215.2" textLength="12.2" clip-path="url(#terminal-793675189-line-8)">J</text><text class="terminal-793675189-r5" x="48.8" y="215.2" textLength="561.2" clip-path="url(#terminal-793675189-line-8)">ob&#160;id&#160;for&#160;attach/cancel&#160;(blank&#160;=&#160;first&#160;active)</text><text class="terminal-793675189-r4" x="2915.8" y="215.2" textLength="12.2" clip-path="url(#terminal-793675189-line-8)">▎</text><text class="terminal-793675189-r2" x="2928" y="215.2" textLength="12.2" clip-path="url(#terminal-793675189-line-8)">
</text><text class="terminal-793675189-r3" x="0" y="239.6" textLength="12.2" clip-path="url(#terminal-793675189-line-9)">▊</text><text class="terminal-793675189-r4" x="12.2" y="239.6" textLength="2903.6" clip-path="url(#terminal-793675189-line-9)">▁▁▁▁▁▁▁▁▁▁▁▁▁▁▁▁▁▁▁▁▁▁▁▁▁▁▁▁▁▁▁▁▁▁▁▁▁▁▁▁▁▁▁▁▁▁▁▁▁▁▁▁▁▁▁▁▁▁▁▁▁▁▁▁▁▁▁▁▁▁▁▁▁▁▁▁▁▁▁▁▁▁▁▁▁▁▁▁▁▁▁▁▁▁▁▁▁▁▁▁▁▁▁▁▁▁▁▁▁▁▁▁▁▁▁▁▁▁▁▁▁▁▁▁▁▁▁▁▁▁▁▁▁▁▁▁▁▁▁▁▁▁▁▁▁▁▁▁▁▁▁▁▁▁▁▁▁▁▁▁▁▁▁▁▁▁▁▁▁▁▁▁▁▁▁▁▁▁▁▁▁▁▁▁▁▁▁▁▁▁▁▁▁▁▁▁▁▁▁▁▁▁▁▁▁▁▁▁▁▁▁▁▁▁▁▁▁▁▁▁▁▁▁▁▁▁▁▁▁▁▁▁▁▁▁▁▁▁</text><text class="terminal-793675189-r4" x="2915.8" y="239.6" textLength="12.2" clip-path="url(#terminal-793675189-line-9)">▎</text><text class="terminal-793675189-r2" x="2928" y="239.6" textLength="12.2" clip-path="url(#terminal-793675189-line-9)">
</text><text class="terminal-793675189-r6" x="0" y="264" textLength="195.2" clip-path="url(#terminal-793675189-line-10)">▔▔▔▔▔▔▔▔▔▔▔▔▔▔▔▔</text><text class="terminal-793675189-r2" x="2928" y="264" textLength="12.2" clip-path="url(#terminal-793675189-line-10)">
</text><text class="terminal-793675189-r7" x="36.6" y="288.4" textLength="109.8" clip-path="url(#terminal-793675189-line-11)">&#160;New&#160;Job&#160;</text><text class="terminal-793675189-r2" x="2928" y="288.4" textLength="12.2" clip-path="url(#terminal-793675189-line-11)">
</text><text class="terminal-793675189-r8" x="0" y="312.8" textLength="195.2" clip-path="url(#terminal-793675189-line-12)">▁▁▁▁▁▁▁▁▁▁▁▁▁▁▁▁</text><text class="terminal-793675189-r2" x="2928" y="312.8" textLength="12.2" clip-path="url(#terminal-793675189-line-12)">
</text><text class="terminal-793675189-r9" x="0" y="337.2" textLength="195.2" clip-path="url(#terminal-793675189-line-13)">▔▔▔▔▔▔▔▔▔▔▔▔▔▔▔▔</text><text class="terminal-793675189-r2" x="2928" y="337.2" textLength="12.2" clip-path="url(#terminal-793675189-line-13)">
</text><text class="terminal-793675189-r10" x="24.4" y="361.6" textLength="134.2" clip-path="url(#terminal-793675189-line-14)">&#160;View&#160;Logs&#160;</text><text class="terminal-793675189-r2" x="2928" y="361.6" textLength="12.2" clip-path="url(#terminal-793675189-line-14)">
</text><text class="terminal-793675189-r11" x="0" y="386" textLength="195.2" clip-path="url(#terminal-793675189-line-15)">▁▁▁▁▁▁▁▁▁▁▁▁▁▁▁▁</text><text class="terminal-793675189-r2" x="2928" y="386" textLength="12.2" clip-path="url(#terminal-793675189-line-15)">
</text><text class="terminal-793675189-r12" x="0" y="410.4" textLength="195.2" clip-path="url(#terminal-793675189-line-16)">▔▔▔▔▔▔▔▔▔▔▔▔▔▔▔▔</text><text class="terminal-793675189-r2" x="2928" y="410.4" textLength="12.2" clip-path="url(#terminal-793675189-line-16)">
</text><text class="terminal-793675189-r13" x="48.8" y="434.8" textLength="97.6" clip-path="url(#terminal-793675189-line-17)">&#160;Cancel&#160;</text><text class="terminal-793675189-r2" x="2928" y="434.8" textLength="12.2" clip-path="url(#terminal-793675189-line-17)">
</text><text class="terminal-793675189-r14" x="0" y="459.2" textLength="195.2" clip-path="url(#terminal-793675189-line-18)">▁▁▁▁▁▁▁▁▁▁▁▁▁▁▁▁</text><text class="terminal-793675189-r2" x="2928" y="459.2" textLength="12.2" clip-path="url(#terminal-793675189-line-18)">
</text><text class="terminal-793675189-r1" x="0" y="483.6" textLength="85.4" clip-path="url(#terminal-793675189-line-19)">ew&#160;Job&#160;</text><text class="terminal-793675189-r1" x="85.4" y="483.6" textLength="73.2" clip-path="url(#terminal-793675189-line-19)">ttach&#160;</text><text class="terminal-793675189-r1" x="158.6" y="483.6" textLength="73.2" clip-path="url(#terminal-793675189-line-19)">ancel&#160;</text><text class="terminal-793675189-r1" x="231.8" y="483.6" textLength="109.8" clip-path="url(#terminal-793675189-line-19)">iew&#160;Logs&#160;</text><text class="terminal-793675189-r1" x="341.6" y="483.6" textLength="85.4" clip-path="url(#terminal-793675189-line-19)">istory&#160;</text><text class="terminal-793675189-r1" x="427" y="483.6" textLength="73.2" clip-path="url(#terminal-793675189-line-19)">rowse&#160;</text><text class="terminal-793675189-r1" x="500.2" y="483.6" textLength="36.6" clip-path="url(#terminal-793675189-line-19)">uit</text><text class="terminal-793675189-r2" x="2928" y="483.6" textLength="12.2" clip-path="url(#terminal-793675189-line-19)">
</text><text class="terminal-793675189-r2" x="2928" y="508" textLength="12.2" clip-path="url(#terminal-793675189-line-20)">
</text><text class="terminal-793675189-r2" x="2928" y="532.4" textLength="12.2" clip-path="url(#terminal-793675189-line-21)">
</text><text class="terminal-793675189-r2" x="2928" y="556.8" textLength="12.2" clip-path="url(#terminal-793675189-line-22)">
</text><text class="terminal-793675189-r2" x="2928" y="581.2" textLength="12.2" clip-path="url(#terminal-793675189-line-23)">
</text><text class="terminal-793675189-r2" x="2928" y="605.6" textLength="12.2" clip-path="url(#terminal-793675189-line-24)">
</text><text class="terminal-793675189-r2" x="2928" y="630" textLength="12.2" clip-path="url(#terminal-793675189-line-25)">
</text><text class="terminal-793675189-r2" x="2928" y="654.4" textLength="12.2" clip-path="url(#terminal-793675189-line-26)">
</text><text class="terminal-793675189-r2" x="2928" y="678.8" textLength="12.2" clip-path="url(#terminal-793675189-line-27)">
</text><text class="terminal-793675189-r2" x="2928" y="703.2" textLength="12.2" clip-path="url(#terminal-793675189-line-28)">
</text><text class="terminal-793675189-r2" x="2928" y="727.6" textLength="12.2" clip-path="url(#terminal-793675189-line-29)">
</text><text class="terminal-793675189-r2" x="2928" y="752" textLength="12.2" clip-path="url(#terminal-793675189-line-30)">
</text><text class="terminal-793675189-r2" x="2928" y="776.4" textLength="12.2" clip-path="url(#terminal-793675189-line-31)">
</text><text class="terminal-793675189-r2" x="2928" y="800.8" textLength="12.2" clip-path="url(#terminal-793675189-line-32)">
</text><text class="terminal-793675189-r2" x="2928" y="825.2" textLength="12.2" clip-path="url(#terminal-793675189-line-33)">
</text><text class="terminal-793675189-r2" x="2928" y="849.6" textLength="12.2" clip-path="url(#terminal-793675189-line-34)">
</text><text class="terminal-793675189-r2" x="2928" y="874" textLength="12.2" clip-path="url(#terminal-793675189-line-35)">
</text><text class="terminal-793675189-r2" x="2928" y="898.4" textLength="12.2" clip-path="url(#terminal-793675189-line-36)">
</text><text class="terminal-793675189-r2" x="2928" y="922.8" textLength="12.2" clip-path="url(#terminal-793675189-line-37)">
</text><text class="terminal-793675189-r2" x="2928" y="947.2" textLength="12.2" clip-path="url(#terminal-793675189-line-38)">
</text><text class="terminal-793675189-r2" x="2928" y="971.6" textLength="12.2" clip-path="url(#terminal-793675189-line-39)">
</text><text class="terminal-793675189-r2" x="2928" y="996" textLength="12.2" clip-path="url(#terminal-793675189-line-40)">
</text><text class="terminal-793675189-r2" x="2928" y="1020.4" textLength="12.2" clip-path="url(#terminal-793675189-line-41)">
</text><text class="terminal-793675189-r2" x="2928" y="1044.8" textLength="12.2" clip-path="url(#terminal-793675189-line-42)">
</text><text class="terminal-793675189-r2" x="2928" y="1069.2" textLength="12.2" clip-path="url(#terminal-793675189-line-43)">
</text><text class="terminal-793675189-r2" x="2928" y="1093.6" textLength="12.2" clip-path="url(#terminal-793675189-line-44)">
</text><text class="terminal-793675189-r2" x="2928" y="1118" textLength="12.2" clip-path="url(#terminal-793675189-line-45)">
</text><text class="terminal-793675189-r2" x="2928" y="1142.4" textLength="12.2" clip-path="url(#terminal-793675189-line-46)">
</text><text class="terminal-793675189-r2" x="2928" y="1166.8" textLength="12.2" clip-path="url(#terminal-793675189-line-47)">
</text><text class="terminal-793675189-r2" x="2928" y="1191.2" textLength="12.2" clip-path="url(#terminal-793675189-line-48)">
</text><text class="terminal-793675189-r2" x="2928" y="1215.6" textLength="12.2" clip-path="url(#terminal-793675189-line-49)">
</text><text class="terminal-793675189-r2" x="2928" y="1240" textLength="12.2" clip-path="url(#terminal-793675189-line-50)">
</text><text class="terminal-793675189-r2" x="2928" y="1264.4" textLength="12.2" clip-path="url(#terminal-793675189-line-51)">
</text><text class="terminal-793675189-r2" x="2928" y="1288.8" textLength="12.2" clip-path="url(#terminal-793675189-line-52)">
</text><text class="terminal-793675189-r2" x="2928" y="1313.2" textLength="12.2" clip-path="url(#terminal-793675189-line-53)">
</text><text class="terminal-793675189-r2" x="2928" y="1337.6" textLength="12.2" clip-path="url(#terminal-793675189-line-54)">
</text><text class="terminal-793675189-r2" x="2928" y="1362" textLength="12.2" clip-path="url(#terminal-793675189-line-55)">
</text><text class="terminal-793675189-r2" x="2928" y="1386.4" textLength="12.2" clip-path="url(#terminal-793675189-line-56)">
</text><text class="terminal-793675189-r2" x="2928" y="1410.8" textLength="12.2" clip-path="url(#terminal-793675189-line-57)">
</text><text class="terminal-793675189-r2" x="2928" y="1435.2" textLength="12.2" clip-path="url(#terminal-793675189-line-58)">
</text><text class="terminal-793675189-r2" x="2928" y="1459.6" textLength="12.2" clip-path="url(#terminal-793675189-line-59)">
</text><text class="terminal-793675189-r2" x="2928" y="1484" textLength="12.2" clip-path="url(#terminal-793675189-line-60)">
</text><text class="terminal-793675189-r2" x="2928" y="1508.4" textLength="12.2" clip-path="url(#terminal-793675189-line-61)">
</text><text class="terminal-793675189-r2" x="2928" y="1532.8" textLength="12.2" clip-path="url(#terminal-793675189-line-62)">
</text><text class="terminal-793675189-r2" x="2928" y="1557.2" textLength="12.2" clip-path="url(#terminal-793675189-line-63)">
</text><text class="terminal-793675189-r2" x="2928" y="1581.6" textLength="12.2" clip-path="url(#terminal-793675189-line-64)">
</text><text class="terminal-793675189-r2" x="2928" y="1606" textLength="12.2" clip-path="url(#terminal-793675189-line-65)">
</text><text class="terminal-793675189-r2" x="2928" y="1630.4" textLength="12.2" clip-path="url(#terminal-793675189-line-66)">
</text><text class="terminal-793675189-r2" x="2928" y="1654.8" textLength="12.2" clip-path="url(#terminal-793675189-line-67)">
</text><text class="terminal-793675189-r2" x="2928" y="1679.2" textLength="12.2" clip-path="url(#terminal-793675189-line-68)">
</text><text class="terminal-793675189-r2" x="2928" y="1703.6" textLength="12.2" clip-path="url(#terminal-793675189-line-69)">
</text><text class="terminal-793675189-r2" x="2928" y="1728" textLength="12.2" clip-path="url(#terminal-793675189-line-70)">
</text>
    </g>
    </g>
</svg>
